<svg width="40" height="40" viewBox="0 0 40 40" fill="none" xmlns="http://www.w3.org/2000/svg">
<g clip-path="url(#clip0_8_1042)">
<path d="M37.321 34.7643H3.4392L17.0988 21.1047C17.4461 21.2685 17.8363 21.3661 18.2459 21.3661C18.6946 21.3661 19.116 21.2529 19.4866 21.0617L21.4726 23.0477C21.2775 23.4183 21.1682 23.8397 21.1682 24.2884C21.1682 25.7749 22.3739 26.9766 23.8565 26.9766C25.343 26.9766 26.5447 25.771 26.5447 24.2884C26.5447 23.8826 26.4511 23.5003 26.2911 23.153L32.9317 16.5124V19.1773L34.6367 20.8823V13.5394H27.2977L29.0027 15.2444H31.6207L25.0036 21.8577C25.0036 21.8577 25.0036 21.8577 25.0075 21.8577C24.6563 21.6899 24.2701 21.5963 23.8565 21.5963C23.4858 21.5963 23.1347 21.6704 22.8147 21.807L20.7235 19.7157C20.8561 19.3957 20.9303 19.0446 20.9303 18.6778C20.9303 17.1913 19.7246 15.9896 18.242 15.9896C16.7555 15.9896 15.5538 17.1952 15.5538 18.6778C15.5538 19.0836 15.6474 19.4699 15.8074 19.8132L1.95658 33.664V4.27689L0.130615 2.45093V36.5981L39.147 36.5864L37.321 34.7643ZM23.8565 22.9423C24.5978 22.9423 25.2025 23.5432 25.2025 24.2884C25.2025 25.0297 24.6017 25.6345 23.8565 25.6345C23.1152 25.6345 22.5104 25.0336 22.5104 24.2884C22.5104 23.5432 23.1113 22.9423 23.8565 22.9423ZM18.242 17.3318C18.9833 17.3318 19.5881 17.9326 19.5881 18.6778C19.5881 19.4192 18.9872 20.0239 18.242 20.0239C17.5007 20.0239 16.896 19.4231 16.896 18.6778C16.8999 17.9326 17.5007 17.3318 18.242 17.3318Z" fill="#292929"/>
</g>
<defs>
<clipPath id="clip0_8_1042">
<rect width="39.0164" height="39.0164" fill="white" transform="translate(0.130859 0.0163574)"/>
</clipPath>
</defs>
</svg>
