<svg width="40" height="40" viewBox="0 0 40 40" fill="none" xmlns="http://www.w3.org/2000/svg">
<g clip-path="url(#clip0_8_1051)">
<path d="M37.8045 32.389L35.3426 25.0071V3.23596H2.7366V25.0071L0.270769 32.389L-0.747559 35.8302L2.42057 35.8459H39.0492C39.0492 35.8459 37.8513 32.4787 37.8045 32.389ZM4.76546 5.26872H33.3098V24.1604H4.76546V5.26872ZM35.3153 33.8131H2.76392C2.4986 33.8131 1.92116 33.8092 1.92116 33.8092C1.92116 33.8092 2.11624 33.2825 2.19818 33.0328L4.48064 26.1893H33.5908L35.8693 33.0328C35.9552 33.2942 36.1463 33.8248 36.1463 33.8248C36.1463 33.8248 35.5767 33.8131 35.3153 33.8131Z" fill="#292929"/>
<path d="M11.968 31.6594L25.9047 31.6087L26.3339 30.1924H12.6157L11.968 31.6594Z" fill="#292929"/>
</g>
<defs>
<clipPath id="clip0_8_1051">
<rect width="39.0164" height="39.0164" fill="white" transform="translate(0.0327148 0.0327148)"/>
</clipPath>
</defs>
</svg>
