<svg width="40" height="40" viewBox="0 0 40 40" fill="none" xmlns="http://www.w3.org/2000/svg">
<g clip-path="url(#clip0_8_1050)">
<path d="M28.9053 21.0625C31.7301 21.0625 34.0282 18.7644 34.0282 15.9396C34.0282 13.1148 31.7301 10.8207 28.9053 10.8207C26.0805 10.8207 23.7825 13.1187 23.7825 15.9396C23.7825 18.7644 26.0805 21.0625 28.9053 21.0625ZM28.9053 12.8846C30.5908 12.8846 31.9642 14.2541 31.9642 15.9396C31.9642 17.6251 30.5947 18.9985 28.9053 18.9985C27.2159 18.9985 25.8464 17.629 25.8464 15.9396C25.8503 14.258 27.2198 12.8846 28.9053 12.8846Z" fill="#292929"/>
<path d="M15.8233 11.2499C18.6481 11.2499 20.9422 8.95179 20.9422 6.12701C20.9422 3.30222 18.6442 1.00806 15.8233 1.00806C12.9985 1.00806 10.7004 3.30612 10.7004 6.12701C10.7004 8.95179 12.9946 11.2499 15.8233 11.2499ZM15.8233 3.07202C17.5088 3.07202 18.8783 4.4415 18.8783 6.12701C18.8783 7.81251 17.5088 9.18589 15.8233 9.18589C14.1378 9.18589 12.7644 7.81641 12.7644 6.12701C12.7644 4.4454 14.1339 3.07202 15.8233 3.07202Z" fill="#292929"/>
<path d="M38.1288 26.1854C37.1534 25.366 35.5811 24.3243 33.1698 24.7379C31.2932 25.0578 27.0794 26.677 24.9218 27.5392C24.3716 23.8405 21.7536 21.4488 18.0588 21.4488H11.227C8.25788 19.5097 5.63598 18.4913 3.00237 18.2455C2.24546 18.1597 0.0527344 18.2455 0.0527344 18.2455C0.0527344 18.2455 0.0683409 23.2318 0.0683409 24.0863L2.13231 25.0149L2.12841 20.3017C2.12841 20.3017 2.77218 20.3017 2.74486 20.3017C2.76437 20.3017 2.78388 20.3056 2.80729 20.3056C4.32503 20.4461 6.79867 20.9299 10.5989 23.5167H18.0627C21.1996 23.5167 22.5808 25.7484 22.8968 27.9957H10.9149L10.0721 30.0597H23.9776C24.0439 30.0636 24.1219 30.0519 24.1961 30.0402C24.2741 30.0246 24.3443 30.0012 24.4146 29.97C26.3264 29.1779 31.617 27.0906 33.5171 26.7706C35.0582 26.5092 36.0414 27.1218 36.7984 27.7616C37.013 27.945 37.0091 28.1791 36.9895 28.3001C36.97 28.4054 36.8959 28.6668 36.5916 28.7722L17.2941 35.7288C16.1197 36.1502 14.8595 36.0916 13.7397 35.5649L0.0683409 29.0492L0.0722426 31.5033L12.8657 37.4377C13.7709 37.863 14.7385 38.0737 15.71 38.0737C16.4786 38.0737 17.2512 37.941 17.9964 37.6718L37.2939 30.723C38.2069 30.3952 38.8545 29.6266 39.0223 28.6668C39.1901 27.7265 38.8584 26.7979 38.1288 26.1854Z" fill="#292929"/>
</g>
<defs>
<clipPath id="clip0_8_1050">
<rect width="39.0164" height="39.0164" fill="white" transform="translate(0.0488281 0.0327148)"/>
</clipPath>
</defs>
</svg>
