<svg width="40" height="40" viewBox="0 0 40 40" fill="none" xmlns="http://www.w3.org/2000/svg">
<g clip-path="url(#clip0_8_1049)">
<path d="M0.0654297 32.6153H34.2594V11.2889H0.0654297V32.6153ZM2.09428 13.3178H32.2266V30.5864H2.09428V13.3178Z" fill="#292929"/>
<path d="M17.1625 16.1115C13.9437 16.1115 11.3218 18.7294 11.3218 21.9522C11.3218 25.1711 13.9398 27.793 17.1625 27.793C20.3814 27.793 23.0033 25.1711 23.0033 21.9522C23.0033 18.7334 20.3814 16.1115 17.1625 16.1115ZM17.1625 25.7641C15.0634 25.7641 13.3545 24.0552 13.3545 21.9522C13.3545 19.8531 15.0634 18.1442 17.1625 18.1442C19.2616 18.1442 20.9705 19.8531 20.9705 21.9522C20.9705 24.0552 19.2616 25.7641 17.1625 25.7641Z" fill="#292929"/>
<path d="M6.44067 6.46655L8.46953 8.4954H37.0529V22.4204L39.0818 24.4492V6.46655H6.44067Z" fill="#292929"/>
</g>
<defs>
<clipPath id="clip0_8_1049">
<rect width="39.0164" height="39.0164" fill="white" transform="translate(0.0654297 0.0327148)"/>
</clipPath>
</defs>
</svg>
