<svg width="40" height="40" viewBox="0 0 40 40" fill="none" xmlns="http://www.w3.org/2000/svg">
<g clip-path="url(#clip0_8_1055)">
<path d="M19.5084 0.0491943L4.04621 5.98749V18.2191C4.04231 18.7302 4.14766 30.8799 19.0168 38.8042L19.5084 39.0656L20 38.8042C34.8692 30.8799 34.9745 18.7341 34.9706 18.2269V5.98749L19.5084 0.0491943ZM32.8793 18.2308C32.8793 18.344 32.7857 29.3505 19.5084 36.6934C6.28965 29.3817 6.13749 18.3401 6.13749 18.2269V7.42329L19.5084 2.28873L32.8793 7.42329V18.2308Z" fill="#292929"/>
<path d="M10.6985 18.4728V12.1053V10.5993V8.35974L8.60727 9.16348V18.465C8.60337 18.8239 8.6775 27.3178 19.0129 32.8269L19.5084 33.0883V30.7122C10.8195 25.8313 10.7024 18.7771 10.6985 18.4728Z" fill="#292929"/>
<path d="M14.7446 6.8107V9.05024L19.5085 7.22037L28.3184 10.6031V18.4766C28.3184 18.5351 28.2755 23.338 23.5545 27.7742V30.5288C30.3512 25.2303 30.4097 18.777 30.4058 18.4727V9.16729L19.5085 4.98083L14.7446 6.8107Z" fill="#292929"/>
</g>
<defs>
<clipPath id="clip0_8_1055">
<rect width="39.0164" height="39.0164" fill="white" transform="translate(0 0.0491943)"/>
</clipPath>
</defs>
</svg>
