<svg width="40" height="40" viewBox="0 0 40 40" fill="none" xmlns="http://www.w3.org/2000/svg">
<g clip-path="url(#clip0_8_1059)">
<path d="M39.0672 31.6681V6.94344C39.0672 6.10459 39.0984 3.49829 39.0984 3.49829L32.9533 5.34767L5.80183 11.7307H0.0820312V26.6116C0.0820312 26.6116 0.0820312 26.6155 0.0859329 26.6155H5.80573C5.80573 26.6155 7.88531 27.1149 11.0027 27.8601V30.404V32.1948V32.5109C14.5064 33.3497 19.321 34.5046 23.9757 35.6166V34.8675V33.459V30.9619C31.697 32.8074 38.9775 34.5358 39.0984 34.5358C39.0984 34.5358 39.0594 31.6642 39.0594 31.7462C39.0594 31.7774 39.0672 31.6954 39.0672 31.6681ZM4.90055 24.5866H2.11088V13.7596H4.90055V24.5866ZM21.9468 32.983L13.0277 30.8839V28.3478C15.6769 28.9838 18.7982 29.729 21.9468 30.482V32.983ZM37.0462 32.1987L36.258 31.9685L34.2448 31.2975V27.1851L32.2159 25.1485V30.7512L6.92941 24.7973V13.5528L32.2159 7.60281V11.8517L34.2448 13.8806V7.05268L36.258 6.3816C36.2229 6.3699 37.0462 6.1397 37.0462 6.1397L37.0344 6.94344V31.4067L37.0462 32.1987Z" fill="#292929"/>
</g>
<defs>
<clipPath id="clip0_8_1059">
<rect width="39.0164" height="39.0164" fill="white" transform="translate(0.0820312 0.0491943)"/>
</clipPath>
</defs>
</svg>
