<svg width="40" height="40" viewBox="0 0 40 40" fill="none" xmlns="http://www.w3.org/2000/svg">
<g clip-path="url(#clip0_8_1061)">
<path d="M29.357 3.6387L29.3726 1.30162L27.535 1.28601L27.5428 7.98903H29.3336L29.3453 5.66755H37.1018V35.7999H2.14311V5.67145L2.14701 5.66755H9.4977V7.98903H11.2964L11.3354 1.30162L9.4977 1.28601V3.6387H0.114258V37.8288H39.1306V3.6387H29.357Z" fill="#292929"/>
<path d="M25.0611 13.4084C25.0299 13.4514 24.1091 15.2422 24.1091 15.2422H29.7977L30.6093 13.4436L25.0611 13.4084Z" fill="#292929"/>
<path d="M24.1091 23.2288H29.7977L30.6093 21.4301L25.0611 21.395C25.026 21.434 24.1091 23.2288 24.1091 23.2288Z" fill="#292929"/>
<path d="M17.1407 13.3811C17.1095 13.424 16.1887 15.2149 16.1887 15.2149H21.8773L22.6888 13.4162L17.1407 13.3811Z" fill="#292929"/>
<path d="M17.1407 21.395C17.1095 21.434 16.1887 23.2288 16.1887 23.2288H21.8773L22.6888 21.4301L17.1407 21.395Z" fill="#292929"/>
<path d="M16.1887 31.3013H21.8773L22.6888 29.5026L17.1407 29.4675C17.1095 29.5065 16.1887 31.3013 16.1887 31.3013Z" fill="#292929"/>
<path d="M9.22446 21.4847C9.19325 21.5277 8.27246 23.3185 8.27246 23.3185H13.9611L14.7726 21.5199L9.22446 21.4847Z" fill="#292929"/>
<path d="M8.27246 31.2116H13.9611L14.7726 29.4129L9.22446 29.3778C9.19325 29.4207 8.27246 31.2116 8.27246 31.2116Z" fill="#292929"/>
<path d="M25.4164 3.84163L14.3786 3.80652C14.3123 3.84553 13.1028 5.64029 13.1028 5.64029H24.0898L25.4164 3.84163Z" fill="#292929"/>
</g>
<defs>
<clipPath id="clip0_8_1061">
<rect width="39.0164" height="39.0164" fill="white" transform="translate(0.114258 0.0491943)"/>
</clipPath>
</defs>
</svg>
