<svg width="40" height="40" viewBox="0 0 40 40" fill="none" xmlns="http://www.w3.org/2000/svg">
<g clip-path="url(#clip0_8_1062)">
<path d="M19.6391 0.0491943C8.88223 0.0491943 0.130859 8.80057 0.130859 19.5574C0.130859 30.3142 8.88223 39.0656 19.6391 39.0656C30.3959 39.0656 39.1472 30.3142 39.1472 19.5574C39.1472 8.80057 30.3959 0.0491943 19.6391 0.0491943ZM19.6391 36.748C10.1581 36.748 2.44843 29.0384 2.44843 19.5574C2.44843 10.0764 10.1581 2.36677 19.6391 2.36677C29.12 2.36677 36.8297 10.0764 36.8297 19.5574C36.8297 29.0384 29.12 36.748 19.6391 36.748Z" fill="#292929"/>
<path d="M23.0764 12.5813L28.8937 18.3986H7.27472L5.88184 20.7162H19.5727L28.8937 20.7396L22.9827 26.6545H26.2952L33.3806 19.5691L26.3888 12.5813H23.0764Z" fill="#292929"/>
</g>
<defs>
<clipPath id="clip0_8_1062">
<rect width="39.0164" height="39.0164" fill="white" transform="translate(0.130859 0.0491943)"/>
</clipPath>
</defs>
</svg>
