<svg width="40" height="40" viewBox="0 0 40 40" fill="none" xmlns="http://www.w3.org/2000/svg">
<g clip-path="url(#clip0_8_1095)">
<path d="M36.1305 32.0628C35.2254 29.874 33.9144 27.9154 32.2367 26.2377C30.559 24.56 28.6004 23.2529 26.4116 22.3438C24.2227 21.4387 21.9091 20.9783 19.5408 20.9783C17.1725 20.9783 14.8588 21.4387 12.67 22.3438C10.4773 23.2529 8.51475 24.5639 6.84095 26.2416C5.16325 27.9193 3.8562 29.8779 2.94712 32.0667C2.04194 34.2555 1.58154 36.5692 1.58154 38.9375V39.0819H3.41921V38.9375C3.41921 36.8111 3.83279 34.7354 4.64823 32.769C5.46367 30.8026 6.63807 29.043 8.1402 27.5369C9.65013 26.0309 11.4098 24.8565 13.3723 24.045C15.3387 23.2295 17.4144 22.8159 19.5408 22.8159C21.6672 22.8159 23.7428 23.2295 25.7093 24.045C27.6757 24.8565 29.4353 26.0348 30.9414 27.5369C32.4435 29.043 33.6218 30.8026 34.4333 32.769C35.2488 34.7354 35.6623 36.8111 35.6623 38.9375V39.0819H37.5V38.9375C37.5 36.5653 37.0396 34.2516 36.1305 32.0628Z" fill="#292929"/>
<path d="M19.5445 18.9456C24.7493 18.9456 28.9826 14.7123 28.9826 9.50752C28.9826 4.30273 24.7493 0.0655518 19.5445 0.0655518C14.3397 0.0655518 10.1064 4.29883 10.1064 9.50361C10.1064 14.7084 14.3397 18.9456 19.5445 18.9456ZM11.9441 9.50361C11.9441 5.31326 15.3541 1.90322 19.5445 1.90322C23.7349 1.90322 27.1449 5.31326 27.1449 9.50361C27.1449 13.694 23.7349 17.104 19.5445 17.104C15.3541 17.104 11.9441 13.694 11.9441 9.50361Z" fill="#292929"/>
</g>
<defs>
<clipPath id="clip0_8_1095">
<rect width="39.0164" height="39.0164" fill="white" transform="translate(0.0327148 0.0655518)"/>
</clipPath>
</defs>
</svg>
