<svg width="40" height="40" viewBox="0 0 40 40" fill="none" xmlns="http://www.w3.org/2000/svg">
<g clip-path="url(#clip0_8_1066)">
<path d="M19.5902 32.5662C7.144 32.5662 0.628261 20.5882 0.355146 20.042L0.0820312 19.5738L0.355146 19.1056C0.628261 18.5983 7.144 6.5813 19.5902 6.5813C32.0364 6.5813 38.5522 18.5593 38.8253 19.1056L39.0984 19.5738L38.8253 20.042C38.5522 20.5492 32.0364 32.5662 19.5902 32.5662ZM2.42301 19.5738C3.74957 21.7587 9.71908 30.4983 19.5902 30.4983C29.4224 30.4983 35.4309 21.7197 36.7574 19.5738C35.4309 17.3888 29.4614 8.64917 19.5902 8.64917C9.75809 8.64917 3.74957 17.3888 2.42301 19.5738Z" fill="#292929"/>
<path d="M26.4571 15.1259L24.8964 16.4524C25.4426 17.3498 25.7548 18.4422 25.7548 19.5737C25.7548 22.9681 22.9846 25.7383 19.5902 25.7383C18.0685 25.7383 16.703 25.1921 15.6495 24.2947L14.0889 25.6213C15.5325 26.9478 17.4443 27.7672 19.5902 27.7672C24.1161 27.7672 27.7836 24.0996 27.7836 19.5737C27.7836 17.935 27.3154 16.4134 26.4571 15.1259Z" fill="#292929"/>
<path d="M13.8157 21.6807C13.5816 21.0174 13.4256 20.3151 13.4256 19.5738C13.4256 16.1793 16.1957 13.4092 19.5902 13.4092C20.6826 13.4092 21.7361 13.7213 22.6334 14.2285L24.2721 12.8239C22.9456 11.8875 21.3459 11.3413 19.5902 11.3413C15.0643 11.3413 11.3967 15.0088 11.3967 19.5347C11.3967 20.7833 11.6698 21.9538 12.1771 23.0072L13.8157 21.6807Z" fill="#292929"/>
</g>
<defs>
<clipPath id="clip0_8_1066">
<rect width="39.0164" height="39.0164" fill="white" transform="translate(0.0820312 0.0655518)"/>
</clipPath>
</defs>
</svg>
