<svg width="40" height="40" viewBox="0 0 40 40" fill="none" xmlns="http://www.w3.org/2000/svg">
<g clip-path="url(#clip0_8_1063)">
<path d="M24.5224 11.8094L19.4503 19.4176L16.9532 16.9206H13.949L19.7624 22.7731L27.0975 11.8094H24.5224Z" fill="#292929"/>
<path d="M34.9788 3.14782C27.4486 -0.16857 18.1237 -0.792832 9.61814 1.23602V3.42094C17.5775 1.39209 26.3172 1.86028 33.4572 4.78651V16.1013C33.4572 21.0954 31.5453 25.9334 28.268 29.4839L20.3867 36.3117L11.608 29.5619C7.8624 25.9724 5.7165 20.8613 5.7165 15.516V5.13766V4.63044V2.36749C5.20929 2.52356 4.74109 2.71864 4.2729 2.91372L3.60962 3.18684V15.516C3.60962 21.4855 5.98962 27.1819 10.2034 31.1616L20.4647 39.0819L29.7116 31.0835L29.7896 31.0055C33.5352 27.0258 35.6031 21.7586 35.6031 16.1403V3.42094L34.9788 3.14782Z" fill="#292929"/>
</g>
<defs>
<clipPath id="clip0_8_1063">
<rect width="39.0164" height="39.0164" fill="white" transform="translate(0.0981445 0.0655518)"/>
</clipPath>
</defs>
</svg>
