<svg width="40" height="40" viewBox="0 0 40 40" fill="none" xmlns="http://www.w3.org/2000/svg">
<g clip-path="url(#clip0_8_1092)">
<path d="M33.398 3.51535C29.4183 4.84191 25.1655 3.8665 20.0544 0.472073L19.5081 0.0819092L18.9619 0.472073C13.8508 3.8665 9.59798 4.84191 5.6183 3.51535L4.29175 3.08617V21.8921C4.29175 26.8862 9.1688 30.6708 13.8898 34.2993C15.7235 35.7039 17.4793 37.0694 18.8058 38.396L19.5081 39.0983L20.2104 38.396C21.537 37.0694 23.2927 35.7039 25.1265 34.2993C29.8475 30.6317 34.7245 26.8471 34.7245 21.8921V3.04715L33.398 3.51535ZM32.7347 21.8531C32.7347 25.8327 28.2478 29.3052 23.917 32.6606C22.3173 33.8701 20.8347 35.0406 19.5472 36.2501C18.2596 35.0796 16.738 33.9091 15.1773 32.6606C10.7685 29.3052 6.28158 25.8327 6.28158 21.8531V5.81732C10.3393 6.71469 14.6701 5.62224 19.5081 2.53994C24.3462 5.62224 28.677 6.71469 32.7347 5.81732V21.8531Z" fill="#292929"/>
<path d="M27.6626 9.0167V21.0337C27.6626 23.4137 24.8534 25.5987 22.0833 27.7446C21.1469 28.4469 20.2495 29.1492 19.4692 29.8514C18.6888 29.1492 17.7915 28.4469 16.8551 27.7446C14.1239 25.6377 11.2757 23.4528 11.2757 21.0337V11.0846C13.8118 11.5138 16.5039 10.8115 19.4301 8.93867C21.459 10.1872 23.3708 10.9285 25.1656 11.1236V9.09473C23.5659 8.86064 21.8882 8.15834 20.0154 6.90982L19.4692 6.51965L18.9229 6.90982C15.7236 9.05572 13.0705 9.64096 10.6124 8.82162L9.28589 8.39244V21.0337C9.28589 24.4282 12.6413 27.0423 15.6456 29.3442C16.8161 30.2416 17.9475 31.1 18.7669 31.9583L19.4692 32.6606L20.1715 31.9583C21.0298 31.1 22.1223 30.2416 23.2928 29.3442C26.258 27.0423 29.6524 24.4282 29.6524 21.0337V8.39244L28.3259 8.82162C28.1308 8.89965 27.8967 8.93867 27.6626 9.0167Z" fill="#292929"/>
</g>
<defs>
<clipPath id="clip0_8_1092">
<rect width="39.0164" height="39.0164" fill="white" transform="translate(0 0.0819092)"/>
</clipPath>
</defs>
</svg>
