<svg width="40" height="40" viewBox="0 0 40 40" fill="none" xmlns="http://www.w3.org/2000/svg">
<g clip-path="url(#clip0_8_1075)">
<path d="M12.2509 21.4403C11.9778 21.4403 11.7047 21.4013 11.4316 21.3623C9.75385 21.0502 8.38828 19.6846 8.07615 18.0069C7.80303 16.6023 8.23221 15.1977 9.24664 14.1833C10.2611 13.1689 11.6657 12.7397 13.0702 13.0128C14.7479 13.3249 16.1135 14.6905 16.4257 16.3682C16.6988 17.7728 16.2696 19.1774 15.2552 20.1918C14.4748 21.0111 13.3824 21.4403 12.2509 21.4403ZM12.2899 15.0026C11.7047 15.0026 11.1584 15.2367 10.7293 15.6269C10.222 16.1341 9.98795 16.8754 10.144 17.6167C10.3001 18.4751 11.0024 19.1774 11.8607 19.3334C12.602 19.4895 13.3043 19.2554 13.8506 18.7482C14.3578 18.241 14.5919 17.4997 14.4358 16.7584C14.2797 15.9 13.5775 15.1977 12.7191 15.0416C12.563 15.0416 12.407 15.0026 12.2899 15.0026Z" fill="#292929"/>
<path d="M20.1325 29.4777H4.40894L6.7109 22.6108H17.8306L20.1325 29.4777ZM7.29615 27.4099H17.2843L16.3479 24.6397H8.19352L7.29615 27.4099Z" fill="#292929"/>
<path d="M32.3445 15.0027H24.3071L25.1265 12.9348H33.1638L32.3445 15.0027Z" fill="#292929"/>
<path d="M32.3445 21.4403H24.3071L25.1265 19.3724H33.1638L32.3445 21.4403Z" fill="#292929"/>
<path d="M32.3445 27.878H24.3071L25.1265 25.8102H33.1638L32.3445 27.878Z" fill="#292929"/>
<path d="M30.5108 4.9364V6.69214C30.5108 7.47247 29.9256 8.13575 29.1843 8.17476C28.7941 8.17476 28.4429 8.05771 28.1698 7.7846C27.8967 7.51148 27.7406 7.16034 27.7406 6.80919V4.97542H13.8898L12.8754 5.01443V6.73116C12.8754 7.51148 12.2902 8.17476 11.5489 8.21378C11.1587 8.21378 10.8075 8.09673 10.5344 7.82361C10.2613 7.5505 10.1052 7.19935 10.1052 6.8482V5.01443H0V34.3938H5.69639L6.51574 32.3259H2.06787V6.96525H8.03738C8.07639 7.82361 8.46655 8.60394 9.09082 9.18919C9.7541 9.85247 10.6515 10.2036 11.5879 10.1646C13.3436 10.1256 14.7482 8.72099 14.9043 6.96525H25.7118C25.7508 7.82361 26.141 8.60394 26.7652 9.18919C27.4285 9.85247 28.3259 10.2036 29.2623 10.1646C31.018 10.1256 32.4226 8.72099 32.5787 6.96525H36.9485V32.2089H10.5344L9.71508 34.2767H39.0164V4.9364H30.5108Z" fill="#292929"/>
</g>
<defs>
<clipPath id="clip0_8_1075">
<rect width="39.0164" height="39.0164" fill="white" transform="translate(0 0.0983887)"/>
</clipPath>
</defs>
</svg>
