<svg width="40" height="40" viewBox="0 0 40 40" fill="none" xmlns="http://www.w3.org/2000/svg">
<g clip-path="url(#clip0_8_1077)">
<path d="M22.3502 19.6456L24.262 18.4361C23.7938 16.6414 22.3502 15.2368 20.5555 14.8466V13.5591L18.4876 12.7397V14.8466C16.3027 15.3148 14.625 17.2656 14.625 19.6066C14.625 22.806 16.4978 23.6253 18.4876 23.8204V28.6584C17.4342 28.2292 16.6929 27.2148 16.6929 26.0443L14.7811 27.2929C15.2493 29.0486 16.6929 30.4532 18.4876 30.8433V32.365L20.5555 33.1843V30.8043C22.7404 30.3361 24.4181 28.3853 24.4181 26.0443C24.4181 22.6889 22.1161 21.9866 20.5555 21.8306V17.0315C21.6089 17.4217 22.3502 18.4361 22.3502 19.6456ZM16.7319 19.6456C16.7319 18.4361 17.4732 17.4217 18.5266 17.0315V21.7915C17.005 21.5965 16.7319 21.0112 16.7319 19.6456ZM22.3502 26.0833C22.3502 27.2929 21.6089 28.3073 20.5555 28.6974V23.9374C22.0381 24.1715 22.3502 24.8738 22.3502 26.0833Z" fill="#292929"/>
<path d="M26.3688 8.95511L27.4613 6.18494L25.0423 6.61413L24.418 8.13576H14.6249L12.2449 2.24429C13.1423 2.36134 13.9616 2.63445 14.781 3.49281L15.6003 4.31216L16.3026 3.41478C16.8098 2.7515 17.4341 2.20527 19.5019 2.16626C21.7649 2.20527 22.1941 2.63445 22.7013 3.37576L23.4036 4.39019L24.2619 3.53183C25.1203 2.67347 25.9006 2.40036 26.798 2.28331L25.9006 4.50724L28.3196 4.07806L29.8803 0.176421H28.3587C26.9151 0.176421 25.2764 0.176421 23.6377 1.34691C22.7403 0.449536 21.5308 0.137405 19.541 0.0983887C17.4731 0.137405 16.3026 0.605602 15.4442 1.34691C13.8056 0.137405 12.1669 0.137405 10.6842 0.137405H9.16261L12.6741 8.95511C9.00654 12.7397 4.83179 18.241 4.83179 23.6643C4.83179 31.8577 11.2695 38.6466 19.4629 39.1148H19.5019H19.541C27.7344 38.6466 34.1721 31.8577 34.1721 23.6643C34.2501 18.241 30.0754 12.7397 26.3688 8.95511ZM19.541 37.0469C12.44 36.6177 6.89966 30.7653 6.89966 23.6643C6.89966 19.8017 9.47474 15.1977 14.3128 10.2426H24.6911C29.5682 15.1977 32.1042 19.8407 32.1042 23.6643C32.1823 30.7653 26.6419 36.6177 19.541 37.0469Z" fill="#292929"/>
</g>
<defs>
<clipPath id="clip0_8_1077">
<rect width="39.0164" height="39.0164" fill="white" transform="translate(0.0327148 0.0983887)"/>
</clipPath>
</defs>
</svg>
