<svg width="40" height="40" viewBox="0 0 40 40" fill="none" xmlns="http://www.w3.org/2000/svg">
<g clip-path="url(#clip0_8_1079)">
<path d="M38.8243 18.7482C38.6409 18.4049 35.5937 12.8255 29.8115 9.23601L33.1435 5.50994L32.3671 3.38745L28.0285 8.24499C25.6095 7.04719 22.7886 6.24345 19.5736 6.24345C7.1352 6.24345 0.596052 18.241 0.322938 18.7521L0.0654297 19.232L0.322938 19.7158C0.506315 20.0592 3.53399 25.6034 9.285 29.1929L5.25071 33.6993L6.02713 35.8218L11.068 30.1878C13.5027 31.4012 16.3353 32.2206 19.5775 32.2206C32.0159 32.2206 38.5551 20.223 38.8282 19.7119L39.0857 19.2281L38.8243 18.7482ZM2.41812 19.232C3.74858 17.0549 9.72198 8.29181 19.5736 8.29181C22.1877 8.29181 24.5287 8.91217 26.581 9.86027L14.7668 23.0634C13.924 22.01 13.4207 20.6795 13.4207 19.232C13.4207 15.8376 16.1792 13.0791 19.5736 13.0791C20.2096 13.0791 20.8221 13.1767 21.3996 13.3561L22.8627 11.7214C21.8522 11.2766 20.7441 11.0269 19.5736 11.0269C15.0516 11.0269 11.3685 14.7061 11.3685 19.232C11.3685 21.2882 12.1332 23.1649 13.3895 24.6046L10.6974 27.6127C6.11297 24.8465 3.28038 20.6444 2.41812 19.232ZM19.5736 30.1683C16.9361 30.1683 14.5795 29.5362 12.5117 28.5725L14.8682 25.9389C16.2026 26.8792 17.8218 27.4332 19.5736 27.4332C24.0956 27.4332 27.7788 23.754 27.7788 19.2281C27.7788 17.7572 27.3847 16.376 26.7019 15.1782L25.2349 16.8169C25.5509 17.5582 25.7265 18.3697 25.7265 19.2242C25.7265 22.6186 22.968 25.3771 19.5736 25.3771C18.3485 25.3771 17.2053 25.0142 16.2455 24.3939L28.3952 10.8123C33.0109 13.5746 35.8591 17.804 36.7291 19.2242C35.3987 21.4052 29.4253 30.1683 19.5736 30.1683Z" fill="#292929"/>
</g>
<defs>
<clipPath id="clip0_8_1079">
<rect width="39.0164" height="39.0164" fill="white" transform="translate(0.0654297 0.0983887)"/>
</clipPath>
</defs>
</svg>
