<svg width="40" height="40" viewBox="0 0 40 40" fill="none" xmlns="http://www.w3.org/2000/svg">
<g clip-path="url(#clip0_8_1080)">
<path d="M39.0984 14.9637V12.8958H37.0305H36.3283H2.1499V11.9594C2.1499 11.7253 2.30597 11.4912 2.54006 11.4132C2.65711 11.3742 2.81318 11.2961 2.96924 11.2181L19.4732 2.24435C19.5512 2.20533 19.6683 2.20533 19.7463 2.24435L35.5869 10.867L38.123 9.89156L20.6046 0.371561L20.4486 0.293528C19.8633 0.0984463 19.2391 0.0984463 18.6928 0.293528L18.6148 0.332545L1.99383 9.42336C1.9158 9.46238 1.87679 9.46238 1.75974 9.50139C0.74531 9.89156 0.0820312 10.867 0.0820312 11.9594V14.9637H3.28137V32.1699H0.0820312V35.7204L2.1499 34.706V34.2378H37.0305V35.4473V37.0079H0.0820312V39.0758H37.0305H38.2791H39.0984V32.1699H35.8991V14.9637H39.0984ZM8.11941 32.1699H5.34924V14.9637H8.11941V32.1699ZM16.1568 32.1699H10.1873V14.9637H16.1568V32.1699ZM20.9558 32.1699H18.1856V14.9637H20.9558V32.1699ZM28.9932 32.1699H23.0237V14.9637H28.9932V32.1699ZM33.8312 32.1699H31.061V14.9637H33.8312V32.1699Z" fill="#292929"/>
</g>
<defs>
<clipPath id="clip0_8_1080">
<rect width="39.0164" height="39.0164" fill="white" transform="translate(0.0820312 0.0983887)"/>
</clipPath>
</defs>
</svg>
