<svg width="40" height="40" viewBox="0 0 40 40" fill="none" xmlns="http://www.w3.org/2000/svg">
<g clip-path="url(#clip0_8_1074)">
<path d="M6.01242 36.9696H3.62852L10.7958 25.8967L12.4384 29.178L15.63 24.3907L18.7006 28.9946L21.7711 24.3907L24.8807 29.0571L27.0696 25.4364L35.2123 36.9735H9.82042L8.54849 38.9477H39.0164L19.6838 11.5582V9.79079H29.75L27.5573 6.50171L29.75 3.21262H19.6838V0.302002L17.7095 1.74561V3.20482V9.78298V11.5738L0 38.9438H4.74049L6.01242 36.9696ZM19.6838 5.17905H26.0629L25.1851 6.4939L26.0629 7.80875H19.6838V5.17905ZM18.7318 13.63L25.821 23.6728L24.7949 25.3739L21.7633 20.8324L18.6927 25.4364L15.6222 20.8324L12.6803 25.253L12.0405 23.9732L18.7318 13.63Z" fill="#292929"/>
</g>
<defs>
<clipPath id="clip0_8_1074">
<rect width="39.0164" height="39.0164" fill="white" transform="translate(0 0.114746)"/>
</clipPath>
</defs>
</svg>
