<svg width="40" height="40" viewBox="0 0 40 40" fill="none" xmlns="http://www.w3.org/2000/svg">
<g clip-path="url(#clip0_8_1072)">
<path d="M0.0327148 0.114746V39.1311H0.446288H2.10058H39.0491V0.114746H0.0327148ZM36.9812 37.0633H2.10058V2.18261H36.9812V37.0633Z" fill="#292929"/>
<path d="M6.45861 30.4773L8.52648 29.2366V27.4145H11.7375V18.2535H8.52257V6.74756L6.4547 7.98828V18.2535H3.24756V27.4184H6.46251V30.4773H6.45861ZM5.31153 25.3545V20.3214H9.66966V25.3545H5.31153Z" fill="#292929"/>
<path d="M19.3107 30.4773L21.3785 29.2366V19.385H24.5935V10.22H21.3785V6.74756L19.3107 7.98828V10.22H16.0957V19.385H19.3107V30.4773ZM18.1636 17.321V12.2879H22.5217V17.321H18.1636Z" fill="#292929"/>
<path d="M30.5553 30.4773L32.6232 29.2366V24.2035H35.8381V15.0385H32.6232V6.74756L30.5553 7.98828V15.0424H27.3442V24.2074H30.5592V30.4773H30.5553ZM29.4082 22.1395V17.1064H33.7663V22.1395H29.4082Z" fill="#292929"/>
</g>
<defs>
<clipPath id="clip0_8_1072">
<rect width="39.0164" height="39.0164" fill="white" transform="translate(0.0327148 0.114746)"/>
</clipPath>
</defs>
</svg>
