<svg width="40" height="40" viewBox="0 0 40 40" fill="none" xmlns="http://www.w3.org/2000/svg">
<g clip-path="url(#clip0_8_1070)">
<path d="M34.7432 1.92505L11.4543 33.0718L3.29208 22.155L3.27258 22.1316H0.0654297L11.4036 37.2973L11.4543 37.3636L37.8762 2.02259L37.9503 1.92505H34.7432Z" fill="#292929"/>
<path d="M20.2641 0.805298C10.7636 0.805298 2.89792 7.88287 1.63379 17.0439H4.10743C5.34815 9.24064 12.1175 3.25553 20.2641 3.25553C23.2411 3.25553 26.0307 4.05926 28.438 5.45215L29.9129 3.47792C27.092 1.78461 23.7912 0.805298 20.2641 0.805298Z" fill="#292929"/>
<path d="M36.0386 9.38501L34.4623 11.4919C35.8435 13.8875 36.6355 16.6655 36.6355 19.6229C36.6355 28.6474 29.2926 35.9942 20.2642 35.9942C19.4644 35.9942 18.6802 35.9279 17.9076 35.8147L16.6045 38.0699C17.7906 38.3039 19.0079 38.4405 20.2642 38.4405C30.6426 38.4405 39.0818 29.9974 39.0818 19.6229C39.0818 15.85 37.9621 12.3346 36.0386 9.38501Z" fill="#292929"/>
</g>
<defs>
<clipPath id="clip0_8_1070">
<rect width="39.0164" height="39.0164" fill="white" transform="translate(0.0654297 0.114746)"/>
</clipPath>
</defs>
</svg>
