<svg width="40" height="40" viewBox="0 0 40 40" fill="none" xmlns="http://www.w3.org/2000/svg">
<g clip-path="url(#clip0_8_1069)">
<path d="M4.18652 37.9216H7.63557L19.5902 21.9288L31.5448 37.9216H34.9939L21.3147 19.6229L34.9939 1.32422H31.5448L19.5902 17.317L7.63557 1.32422H4.18652L17.8657 19.6229L4.18652 37.9216Z" fill="#292929"/>
<path d="M36.5583 19.6229C36.5583 23.7547 35.0718 27.5471 32.6099 30.4928L34.1627 32.5685C37.2294 29.1195 39.0983 24.5897 39.0983 19.6229C39.0983 14.6561 37.2294 10.1263 34.1627 6.67725L32.6099 8.75292C35.0757 11.6987 36.5583 15.491 36.5583 19.6229Z" fill="#292929"/>
<path d="M26.336 35.1865C24.2681 36.0878 21.9896 36.5911 19.59 36.5911C17.1905 36.5911 14.9159 36.0878 12.8441 35.1865L11.2913 37.2622C13.8156 38.4561 16.6209 39.1311 19.59 39.1311C22.5592 39.1311 25.3645 38.4561 27.8849 37.2661L26.336 35.1865Z" fill="#292929"/>
<path d="M2.622 19.6229C2.622 15.491 4.10852 11.6987 6.57046 8.75292L5.0176 6.67725C1.95092 10.1263 0.0820312 14.6561 0.0820312 19.6229C0.0820312 24.5897 1.95092 29.1195 5.0176 32.5685L6.57046 30.4928C4.10462 27.5471 2.622 23.7547 2.622 19.6229Z" fill="#292929"/>
<path d="M12.8444 4.0593C14.9122 3.15802 17.1908 2.65471 19.5903 2.65471C21.9898 2.65471 24.2645 3.15802 26.3362 4.0593L27.8891 1.98363C25.3647 0.789729 22.5594 0.114746 19.5903 0.114746C16.6211 0.114746 13.8159 0.789729 11.2954 1.98363L12.8444 4.0593Z" fill="#292929"/>
</g>
<defs>
<clipPath id="clip0_8_1069">
<rect width="39.0164" height="39.0164" fill="white" transform="translate(0.0820312 0.114746)"/>
</clipPath>
</defs>
</svg>
