<svg width="40" height="40" viewBox="0 0 40 40" fill="none" xmlns="http://www.w3.org/2000/svg">
<g clip-path="url(#clip0_8_1039)">
<path d="M20.6245 0.948098L20.527 0.944197C19.8637 0.90518 19.2004 0.909082 18.5372 0.948098L18.4552 0.952C13.2817 1.24852 8.44363 3.65583 5.07652 7.59259V0L2.8838 1.37728V11.6308H13.1412L14.5185 9.43806H6.36796C9.75068 5.19698 14.8579 2.8599 20.3124 3.1018C29.2862 3.49977 36.4418 11.0221 36.4223 20.0076C36.3989 29.2974 28.8375 36.8471 19.5399 36.8471C15.1232 36.8471 10.9485 35.146 7.77645 32.0598C5.0258 29.3832 3.30127 25.9225 2.80967 22.1769H0.62085C1.77964 32.1417 10.6559 39.7889 21.0966 38.954C30.5425 38.2009 38.0766 30.4406 38.5643 20.9752C39.1105 10.394 31.0458 1.53334 20.6245 0.948098Z" fill="#292929"/>
</g>
<defs>
<clipPath id="clip0_8_1039">
<rect width="39.0164" height="39.0164" fill="white" transform="translate(0.0981445)"/>
</clipPath>
</defs>
</svg>
