<svg width="40" height="40" viewBox="0 0 40 40" fill="none" xmlns="http://www.w3.org/2000/svg">
<path fill-rule="evenodd" clip-rule="evenodd" d="M18 28H21V31.375L23 33.125V28V26H21H18H16V28V35V37H18H21H23V35H21H20H18V28Z" fill="#292929"/>
<path fill-rule="evenodd" clip-rule="evenodd" d="M19.5 26C23.6421 26 27 22.6421 27 18.5C27 14.3579 23.6421 11 19.5 11C15.3579 11 12 14.3579 12 18.5C12 22.6421 15.3579 26 19.5 26ZM19.5 28C24.7467 28 29 23.7467 29 18.5C29 13.2533 24.7467 9 19.5 9C14.2533 9 10 13.2533 10 18.5C10 23.7467 14.2533 28 19.5 28Z" fill="#292929"/>
<path fill-rule="evenodd" clip-rule="evenodd" d="M20.5 5L20.5 10L18.5 10L18.5 5L20.5 5Z" fill="#292929"/>
<path fill-rule="evenodd" clip-rule="evenodd" d="M29.4143 10.9142L26.4143 13.9142L25.0001 12.5L28.0001 9.49997L29.4143 10.9142Z" fill="#292929"/>
<path fill-rule="evenodd" clip-rule="evenodd" d="M28.9143 27.5858L25.9143 24.5858L24.5001 26L27.5001 29L28.9143 27.5858Z" fill="#292929"/>
<path fill-rule="evenodd" clip-rule="evenodd" d="M10.4143 9.08582L13.4143 12.0858L12.0001 13.5L9.00009 10.5L10.4143 9.08582Z" fill="#292929"/>
<path fill-rule="evenodd" clip-rule="evenodd" d="M10.9143 29.4142L13.9143 26.4142L12.5001 25L9.50009 28L10.9143 29.4142Z" fill="#292929"/>
<path fill-rule="evenodd" clip-rule="evenodd" d="M5.4984 7C4.67194 7 4 6.32926 4 5.5C4 4.67074 4.67194 4 5.4984 4C6.3289 4 7 4.67157 7 5.5C7 6.32843 6.3289 7 5.4984 7ZM2 5.5C2 7.43339 3.56693 9 5.4984 9C7.43224 9 9 7.43423 9 5.5C9 3.56577 7.43224 2 5.4984 2C3.56693 2 2 3.56661 2 5.5Z" fill="#292929"/>
<path fill-rule="evenodd" clip-rule="evenodd" d="M32.9564 7C33.7829 7 34.4548 6.32926 34.4548 5.5C34.4548 4.67074 33.7829 4 32.9564 4C32.1259 4 31.4548 4.67157 31.4548 5.5C31.4548 6.32843 32.1259 7 32.9564 7ZM36.4548 5.5C36.4548 7.43339 34.8879 9 32.9564 9C31.0226 9 29.4548 7.43423 29.4548 5.5C29.4548 3.56577 31.0226 2 32.9564 2C34.8879 2 36.4548 3.56661 36.4548 5.5Z" fill="#292929"/>
<path fill-rule="evenodd" clip-rule="evenodd" d="M5.4984 23.4475C4.67194 23.4475 4 24.1182 4 24.9475C4 25.7768 4.67194 26.4475 5.4984 26.4475C6.3289 26.4475 7 25.7759 7 24.9475C7 24.1191 6.3289 23.4475 5.4984 23.4475ZM2 24.9475C2 23.0141 3.56693 21.4475 5.4984 21.4475C7.43224 21.4475 9 23.0133 9 24.9475C9 26.8817 7.43224 28.4475 5.4984 28.4475C3.56693 28.4475 2 26.8809 2 24.9475Z" fill="#292929"/>
<path fill-rule="evenodd" clip-rule="evenodd" d="M32.9564 23.4475C33.7829 23.4475 34.4548 24.1182 34.4548 24.9475C34.4548 25.7768 33.7829 26.4475 32.9564 26.4475C32.1259 26.4475 31.4548 25.7759 31.4548 24.9475C31.4548 24.1191 32.1259 23.4475 32.9564 23.4475ZM36.4548 24.9475C36.4548 23.0141 34.8879 21.4475 32.9564 21.4475C31.0226 21.4475 29.4548 23.0133 29.4548 24.9475C29.4548 26.8817 31.0226 28.4475 32.9564 28.4475C34.8879 28.4475 36.4548 26.8809 36.4548 24.9475Z" fill="#292929"/>
<path fill-rule="evenodd" clip-rule="evenodd" d="M4 14L12 14L12 16L4 16L4 14Z" fill="#292929"/>
<path fill-rule="evenodd" clip-rule="evenodd" d="M34 16L27 16L27 14L34 14L34 16Z" fill="#292929"/>
<path fill-rule="evenodd" clip-rule="evenodd" d="M4.36401 18H11.4548V20H4.36401V18Z" fill="#292929"/>
<path fill-rule="evenodd" clip-rule="evenodd" d="M34.0908 18H27.0001V20H34.0908V18Z" fill="#292929"/>
<path fill-rule="evenodd" clip-rule="evenodd" d="M4 16L4 7L6 7L6 16L4 16Z" fill="#292929"/>
<path fill-rule="evenodd" clip-rule="evenodd" d="M32 16L32 8L34 8L34 16L32 16Z" fill="#292929"/>
<path fill-rule="evenodd" clip-rule="evenodd" d="M6.36401 18V22.7176H4.36401V18H6.36401Z" fill="#292929"/>
<path fill-rule="evenodd" clip-rule="evenodd" d="M32.0908 18V22.7176H34.0908V18H32.0908Z" fill="#292929"/>
</svg>
