<svg width="40" height="40" viewBox="0 0 40 40" fill="none" xmlns="http://www.w3.org/2000/svg">
<g clip-path="url(#clip0_1700_39511)">
<path fill-rule="evenodd" clip-rule="evenodd" d="M20 1L20 40L18 40L18 1L20 1Z" fill="#292929"/>
<path fill-rule="evenodd" clip-rule="evenodd" d="M30.0019 11C31.1042 11 32 11.8945 32 13C32 14.1055 31.1042 15 30.0019 15C28.895 15 28 14.1047 28 13C28 11.8953 28.895 11 30.0019 11ZM34 13C34 10.7903 32.2092 9 30.0019 9C27.7916 9 26 10.7895 26 13C26 15.2105 27.7916 17 30.0019 17C32.2092 17 34 15.2097 34 13Z" fill="#292929"/>
<path fill-rule="evenodd" clip-rule="evenodd" d="M30.0019 25C31.1042 25 32 25.8945 32 27C32 28.1055 31.1042 29 30.0019 29C28.895 29 28 28.1047 28 27C28 25.8953 28.895 25 30.0019 25ZM34 27C34 24.7903 32.2092 23 30.0019 23C27.7916 23 26 24.7895 26 27C26 29.2105 27.7916 31 30.0019 31C32.2092 31 34 29.2097 34 27Z" fill="#292929"/>
<path fill-rule="evenodd" clip-rule="evenodd" d="M7.99808 18C6.89582 18 6 18.8945 6 20C6 21.1055 6.89582 22 7.99808 22C9.10501 22 10 21.1047 10 20C10 18.8953 9.10501 18 7.99808 18ZM4 20C4 17.7903 5.79081 16 7.99808 16C10.2084 16 12 17.7895 12 20C12 22.2105 10.2084 24 7.99808 24C5.79081 24 4 22.2097 4 20Z" fill="#292929"/>
<path fill-rule="evenodd" clip-rule="evenodd" d="M7.99808 32C6.89582 32 6 32.8945 6 34C6 35.1055 6.89582 36 7.99808 36C9.10501 36 10 35.1047 10 34C10 32.8953 9.10501 32 7.99808 32ZM4 34C4 31.7903 5.79081 30 7.99808 30C10.2084 30 12 31.7895 12 34C12 36.2105 10.2084 38 7.99808 38C5.79081 38 4 36.2097 4 34Z" fill="#292929"/>
<path fill-rule="evenodd" clip-rule="evenodd" d="M7.99808 4C6.89582 4 6 4.89447 6 6C6 7.10553 6.89582 8 7.99808 8C9.10501 8 10 7.10469 10 6C10 4.89531 9.10501 4 7.99808 4ZM4 6C4 3.79034 5.79081 2 7.99808 2C10.2084 2 12 3.78951 12 6C12 8.21049 10.2084 10 7.99808 10C5.79081 10 4 8.20966 4 6Z" fill="#292929"/>
<path fill-rule="evenodd" clip-rule="evenodd" d="M27.0908 12H20.0001V14H27.0908V12Z" fill="#292929"/>
<path fill-rule="evenodd" clip-rule="evenodd" d="M27.0908 26H20.0001V28H27.0908V26Z" fill="#292929"/>
<path fill-rule="evenodd" clip-rule="evenodd" d="M10.9092 19H17.9999V21H10.9092V19Z" fill="#292929"/>
<path fill-rule="evenodd" clip-rule="evenodd" d="M10.9092 33H17.9999V35H10.9092V33Z" fill="#292929"/>
<path fill-rule="evenodd" clip-rule="evenodd" d="M10.9092 5H17.9999V7H10.9092V5Z" fill="#292929"/>
</g>
<defs>
<clipPath id="clip0_1700_39511">
<rect width="39.0164" height="39.0164" fill="white"/>
</clipPath>
</defs>
</svg>
