<svg width="40" height="40" viewBox="0 0 40 40" fill="none" xmlns="http://www.w3.org/2000/svg">
<g clip-path="url(#clip0_43675_50640)">
<path fill-rule="evenodd" clip-rule="evenodd" d="M30.0818 16.0747H34.4126L35.5831 18.0256H32.7739L31.5246 22.0694C31.1896 22.0236 30.8476 22 30.5 22C30.1373 22 29.7805 22.0258 29.4315 22.0755L30.706 18.0646H30.4719L30.0818 16.0747ZM27.0496 22.839C26.0911 21.7802 24.6768 21.1859 23.2149 21.1859H20.5618V19.2351H28.4821L27.1556 4.79902L25.1657 5.81344L26.2972 17.2843H12.7585L14.1631 1.98984H26.8824L26.6874 0H12.3293L10.5736 19.2351H18.4939V21.1859H15.8408C13.968 21.1859 12.1733 22.1613 11.3149 23.839V23.878C10.5346 23.722 9.8713 23.0977 9.67621 22.3174L8.31064 18.0646H8.54474L8.9349 16.0747H4.60409L3.43359 18.0646H6.24277L7.76441 22.8246C8.15458 24.3072 9.28605 25.3997 10.7297 25.7898C10.6906 26.0239 10.6906 26.258 10.6906 26.4921V27.4675H18.5329V34.9197H16.387C14.4362 34.9197 12.7975 36.2852 12.3683 38.119C12.2903 38.4311 12.2513 38.7433 12.2513 39.0554H14.2021C14.2021 37.8849 15.1775 36.9095 16.348 36.9095H18.4939V39.0554H20.4447V36.9095H22.6297C23.8001 36.9095 24.7756 37.8849 24.7756 39.0554H26.7654C26.7654 38.7043 26.7264 38.3531 26.6483 38.041C26.1801 36.2462 24.5805 34.9587 22.6687 34.9587H20.5228V27.4675H23.2786C23.4785 26.7558 23.7808 26.0869 24.1686 25.4777H12.7975C13.2267 23.917 14.6703 22.7465 16.387 22.7465H22.6297C23.7348 22.7465 24.7267 23.2316 25.4077 23.9936C25.8987 23.5393 26.4505 23.1499 27.0496 22.839Z" fill="#292929"/>
<path fill-rule="evenodd" clip-rule="evenodd" d="M33 28.8283L29.9344 32L28 30.0002L28.8007 29.1716L29.9341 30.3432L32.1989 28L33 28.8283Z" fill="#292929"/>
<path fill-rule="evenodd" clip-rule="evenodd" d="M24 29.5C24 25.91 26.91 23 30.5 23C34.09 23 37 25.91 37 29.5C37 33.09 34.0899 36 30.5 36C26.91 36 24 33.09 24 29.5ZM30.5 25C28.0146 25 26 27.0146 26 29.5C26 31.9854 28.0146 34 30.5 34C32.9854 34 35 31.9854 35 29.5C35 27.0146 32.9854 25 30.5 25Z" fill="#292929"/>
</g>
<defs>
<clipPath id="clip0_43675_50640">
<rect width="39.0164" height="39.0164" fill="white"/>
</clipPath>
</defs>
</svg>
