<svg width="40" height="40" viewBox="0 0 40 40" fill="none" xmlns="http://www.w3.org/2000/svg">
<g clip-path="url(#clip0_8_1040)">
<path d="M24.4178 24.9314L20.0167 20.5187V10.1754L17.8318 9.24683L17.8591 21.4316L23.8091 27.3738L24.4178 24.9314Z" fill="#292929"/>
<path d="M20.6409 0.948098L20.5434 0.944197C19.8801 0.90518 19.2168 0.909082 18.5535 0.948098L18.4716 0.952C13.298 1.24852 8.45999 3.65583 5.09288 7.59259V0L2.90016 1.37728V11.6308H13.1576V9.43806H6.38432C9.76704 5.19698 14.8743 2.8599 20.3288 3.1018C29.3025 3.49977 36.4581 11.0221 36.4386 20.0076C36.4152 29.2974 28.8539 36.8471 19.5563 36.8471C15.1396 36.8471 10.9648 35.146 7.79281 32.0598C5.04216 29.3832 3.31763 25.9225 2.82603 22.1769H0.637207C1.79599 32.1417 10.6722 39.7889 21.113 38.954C30.5589 38.2009 38.0929 30.4406 38.5806 20.9752C39.1269 10.394 31.0622 1.53334 20.6409 0.948098Z" fill="#292929"/>
</g>
<defs>
<clipPath id="clip0_8_1040">
<rect width="39.0164" height="39.0164" fill="white" transform="translate(0.114258)"/>
</clipPath>
</defs>
</svg>
