<svg width="40" height="40" viewBox="0 0 40 40" fill="none" xmlns="http://www.w3.org/2000/svg">
<path fill-rule="evenodd" clip-rule="evenodd" d="M22.1939 37.3816C21.4713 36.7865 20.8226 36.1049 20.2636 35.3527H15.1264L16.3243 29.352H18.0311C18.0105 29.0707 18 28.7866 18 28.5C18 28.1027 18.0201 27.7101 18.0595 27.3232H14.6622H2.05986V22.9672H19.4158C19.8098 22.2506 20.278 21.5805 20.8101 20.9672H2.05986V15.9672H7.02787C7.47192 17.6925 9.03802 18.9672 10.9019 18.9672C13.111 18.9672 14.9019 17.1764 14.9019 14.9672C14.9019 12.7581 13.111 10.9672 10.9019 10.9672C9.03802 10.9672 7.47192 12.242 7.02787 13.9672H2.05986V3.66362H36.9561V8.96722H27.7758C27.3318 7.242 25.7657 5.96722 23.9019 5.96722C21.6927 5.96722 19.9019 7.75809 19.9019 9.96722C19.9019 12.1764 21.6927 13.9672 23.9019 13.9672C25.7657 13.9672 27.3318 12.6925 27.7758 10.9672H36.9561V19.7442C37.7252 20.3997 38.4068 21.1548 38.9811 21.9895V1.63867H0.0349121V29.352H14.2603L13.0586 35.3527H9.07501C9.07501 35.3527 8.00084 37.3401 7.91265 37.3816H7.90842C7.90938 37.3825 7.9108 37.3825 7.91265 37.3816H12.6528H22.1939ZM23.9019 7.96722C25.0064 7.96722 25.9019 8.86265 25.9019 9.96722C25.9019 11.0718 25.0064 11.9672 23.9019 11.9672C22.7973 11.9672 21.9019 11.0718 21.9019 9.96722C21.9019 8.86265 22.7973 7.96722 23.9019 7.96722ZM12.9019 14.9672C12.9019 13.8627 12.0064 12.9672 10.9019 12.9672C9.79729 12.9672 8.90186 13.8627 8.90186 14.9672C8.90186 16.0718 9.79729 16.9672 10.9019 16.9672C12.0064 16.9672 12.9019 16.0718 12.9019 14.9672Z" fill="#292929"/>
<path fill-rule="evenodd" clip-rule="evenodd" d="M33 27.2425L28.7082 32L26 29.0004L27.121 27.7574L28.7078 29.5148L31.8785 26L33 27.2425Z" fill="#292929"/>
<path fill-rule="evenodd" clip-rule="evenodd" d="M21 28.5C21 23.8054 24.8054 20 29.5 20C34.1946 20 38 23.8054 38 28.5C38 33.1946 34.1945 37 29.5 37C24.8054 37 21 33.1946 21 28.5ZM29.5 22.6154C26.2498 22.6154 23.6154 25.2498 23.6154 28.5C23.6154 31.7502 26.2498 34.3846 29.5 34.3846C32.7501 34.3846 35.3846 31.7502 35.3846 28.5C35.3846 25.2498 32.7501 22.6154 29.5 22.6154Z" fill="#292929"/>
</svg>
