<svg width="40" height="40" viewBox="0 0 40 40" fill="none" xmlns="http://www.w3.org/2000/svg">
<g clip-path="url(#clip0_43850_55883)">
<path d="M19.5082 0C8.75138 0 0 8.75138 0 19.5082C0 30.265 8.75138 39.0164 19.5082 39.0164C30.265 39.0164 39.0164 30.265 39.0164 19.5082C39.0164 8.75138 30.265 0 19.5082 0ZM19.5082 36.6988C10.0272 36.6988 2.31757 28.9892 2.31757 19.5082C2.31757 10.0272 10.0272 2.31757 19.5082 2.31757C28.9892 2.31757 36.6988 10.0272 36.6988 19.5082C36.6988 28.9892 28.9892 36.6988 19.5082 36.6988Z" fill="#292929"/>
<path d="M19 11.5L19.0001 20.4663L15.4688 20.4663L13.3445 22.5906L21.5935 22.6182L21.5935 9.67901L19 11.5Z" fill="#292929"/>
</g>
<defs>
<clipPath id="clip0_43850_55883">
<rect width="39.0164" height="39.0164" fill="white"/>
</clipPath>
</defs>
</svg>
