<svg width="40" height="40" viewBox="0 0 40 40" fill="none" xmlns="http://www.w3.org/2000/svg">
<path d="M25.9229 24.7817C25.5954 24.7745 25.2825 24.6447 25.0462 24.4178L20.183 19.4553L15.3199 24.4178C15.0847 24.6369 14.7736 24.7562 14.4522 24.7506C14.1308 24.7449 13.8242 24.6147 13.5969 24.3874C13.3696 24.1601 13.2393 23.8535 13.2336 23.5321C13.2279 23.2106 13.3472 22.8996 13.5664 22.6644L19.3063 16.8914C19.5429 16.6668 19.8568 16.5416 20.183 16.5416C20.5093 16.5416 20.8231 16.6668 21.0598 16.8914L26.7997 22.6644C27.032 22.897 27.1626 23.2123 27.1626 23.541C27.1626 23.8698 27.032 24.1852 26.7997 24.4178C26.5634 24.6447 26.2505 24.7745 25.9229 24.7817V24.7817Z" fill="#292929"/>
</svg>
