<svg width="40" height="40" viewBox="0 0 40 40" fill="none" xmlns="http://www.w3.org/2000/svg">
<path d="M21.8845 27.1933C21.5586 27.194 21.245 27.0697 21.008 26.846L15.2515 21.1059C15.0207 20.8655 14.8904 20.5461 14.8875 20.2128C14.8913 19.8846 15.0218 19.5705 15.2515 19.336L21.008 13.5961C21.2406 13.3638 21.5558 13.2333 21.8845 13.2333C22.2133 13.2333 22.5287 13.3638 22.7613 13.5961C22.9936 13.8288 23.1242 14.1441 23.1242 14.4729C23.1242 14.8017 22.9936 15.1168 22.7613 15.3494L17.7988 20.2128L22.7613 25.076C22.9936 25.3086 23.1242 25.6239 23.1242 25.9527C23.1242 26.2815 22.9936 26.5969 22.7613 26.8295C22.6473 26.9462 22.511 27.0385 22.3603 27.1011C22.2096 27.1636 22.0477 27.195 21.8845 27.1933V27.1933Z" fill="#292929"/>
</svg>
