<svg width="40" height="40" viewBox="0 0 40 40" fill="none" xmlns="http://www.w3.org/2000/svg">
<g clip-path="url(#clip0_8_1048)">
<path d="M19.5903 0.0327148C11.5919 0.0327148 5.08401 6.49383 5.08401 14.4298C5.0684 22.6271 13.8978 32.9781 17.698 37.0476C18.1818 37.5704 19.5825 39.0452 19.5825 39.0452C19.5825 39.0452 20.9871 37.5665 21.4748 37.0437C25.2672 32.9586 34.0927 22.5842 34.0927 14.4298C34.0966 6.49383 27.5887 0.0327148 19.5903 0.0327148ZM20.0078 35.682L19.5864 36.0604L19.165 35.6859C16.3285 32.6426 7.07384 22.1277 7.08945 14.4337C7.08945 7.59799 12.6961 2.03816 19.5903 2.03816C26.4806 2.03816 32.0911 7.59799 32.0911 14.4337C32.0911 22.0848 22.8443 32.6309 20.0078 35.682Z" fill="#292929"/>
<path d="M19.5904 6.87231C15.5327 6.87231 12.2358 10.1731 12.2358 14.2269C12.2358 18.2807 15.5327 21.5854 19.5904 21.5854C23.6481 21.5854 26.945 18.2846 26.945 14.2308C26.945 10.177 23.6481 6.87231 19.5904 6.87231ZM19.5904 19.58C16.6408 19.58 14.2413 17.1804 14.2413 14.2308C14.2413 11.2812 16.6408 8.88166 19.5904 8.88166C22.5401 8.88166 24.9396 11.2812 24.9396 14.2308C24.9396 17.1804 22.5401 19.58 19.5904 19.58Z" fill="#292929"/>
</g>
<defs>
<clipPath id="clip0_8_1048">
<rect width="39.0164" height="39.0164" fill="white" transform="translate(0.0820312 0.0327148)"/>
</clipPath>
</defs>
</svg>
