<svg xmlns="http://www.w3.org/2000/svg" width="60" height="60" viewBox="0 0 60 60" fill="none">
<mask id="mask0_47269_2578" style="mask-type:luminance" maskUnits="userSpaceOnUse" x="0" y="0" width="60" height="60">
<path d="M0 4.34733e-06H60V60H0V4.34733e-06Z" fill="white"/>
</mask>
<g mask="url(#mask0_47269_2578)">
<path fill-rule="evenodd" clip-rule="evenodd" d="M9.04492 52.9812C9.04492 56.8576 12.1873 60 16.0638 60H38.813C42.6894 60 45.8318 56.8576 45.8318 52.9812V49.2661C45.8318 48.6189 45.3072 48.0942 44.66 48.0942H10.2168C9.56959 48.0942 9.04492 48.6189 9.04492 49.2661V52.9812ZM16.0638 57.6563C13.4817 57.6563 11.3887 55.5632 11.3887 52.9812V50.438H43.4881V52.9812C43.4881 55.5632 41.395 57.6563 38.813 57.6563H16.0638Z" fill="#292929"/>
<path fill-rule="evenodd" clip-rule="evenodd" d="M9.04492 49.2662C9.04492 49.9134 9.56959 50.438 10.2168 50.438H44.66C45.3072 50.438 45.8318 49.9134 45.8318 49.2662V37.2232C45.8318 36.576 45.3072 36.0513 44.66 36.0513C44.0128 36.0513 43.4881 36.576 43.4881 37.2232V48.0943H11.3887V8.97606C11.3887 8.32885 10.864 7.80418 10.2168 7.80418C9.56959 7.80418 9.04492 8.32885 9.04492 8.97606V49.2662Z" fill="#292929"/>
<path fill-rule="evenodd" clip-rule="evenodd" d="M24.4263 54.0472C24.4263 54.6944 24.9509 55.2191 25.5981 55.2191H29.2783C29.9255 55.2191 30.4502 54.6944 30.4502 54.0472C30.4502 53.4 29.9255 52.8753 29.2783 52.8753H25.5981C24.9509 52.8753 24.4263 53.4 24.4263 54.0472Z" fill="#292929"/>
<path fill-rule="evenodd" clip-rule="evenodd" d="M9.04541 8.97626C9.04541 9.62347 9.57008 10.1481 10.2173 10.1481H33.3855C34.0327 10.1481 34.5574 9.62347 34.5574 8.97626C34.5574 8.32905 34.0327 7.80438 33.3855 7.80438H11.3892V7.01899C11.3892 4.43698 13.4822 2.34391 16.0642 2.34391H38.8135C41.3955 2.34391 43.4886 4.43698 43.4886 7.01899V8.97626C43.4886 9.62347 44.0132 10.1481 44.6604 10.1481C45.3077 10.1481 45.8323 9.62347 45.8323 8.97626V7.01899C45.8323 3.14257 42.6899 0.000164195 38.8135 0.000164195H16.0642C12.1878 0.000164195 9.04541 3.14256 9.04541 7.01899V8.97626Z" fill="#292929"/>
<path fill-rule="evenodd" clip-rule="evenodd" d="M27.8875 43.0191C28.274 43.2212 28.7408 43.192 29.0991 42.9431L36.1705 38.0312H47.0284C49.1972 38.0312 50.9555 36.273 50.9555 34.1041V19.6876C50.9555 17.5187 49.1972 15.7605 47.0284 15.7605H24.723C22.5541 15.7605 20.7959 17.5187 20.7959 19.6876V34.1041C20.7959 36.273 22.5541 38.0312 24.723 38.0312H27.2587V41.9806C27.2587 42.4169 27.5009 42.817 27.8875 43.0191ZM29.6024 39.7398V36.8593C29.6024 36.2121 29.0778 35.6874 28.4305 35.6874H24.723C23.8485 35.6874 23.1396 34.9786 23.1396 34.1041V19.6876C23.1396 18.8131 23.8485 18.1043 24.723 18.1043H47.0284C47.9028 18.1043 48.6118 18.8132 48.6118 19.6876V34.1041C48.6118 34.9786 47.9028 35.6874 47.0284 35.6874H35.8034C35.5644 35.6874 35.3311 35.7605 35.1349 35.8969L29.6024 39.7398Z" fill="#292929"/>
<path fill-rule="evenodd" clip-rule="evenodd" d="M26.9395 22.3969C26.9395 23.0441 27.4641 23.5687 28.1113 23.5687H43.64C44.2872 23.5687 44.8118 23.0441 44.8118 22.3969C44.8118 21.7496 44.2872 21.225 43.64 21.225H28.1113C27.4641 21.225 26.9395 21.7496 26.9395 22.3969Z" fill="#292929"/>
<path fill-rule="evenodd" clip-rule="evenodd" d="M26.9395 26.9297C26.9395 27.5769 27.4641 28.1016 28.1113 28.1016H43.64C44.2872 28.1016 44.8118 27.5769 44.8118 26.9297C44.8118 26.2825 44.2872 25.7578 43.64 25.7578H28.1113C27.4641 25.7578 26.9395 26.2825 26.9395 26.9297Z" fill="#292929"/>
<path fill-rule="evenodd" clip-rule="evenodd" d="M26.9395 31.4627C26.9395 32.1099 27.4641 32.6346 28.1113 32.6346H36.9079C37.5551 32.6346 38.0798 32.1099 38.0798 31.4627C38.0798 30.8155 37.5551 30.2908 36.9079 30.2908H28.1113C27.4641 30.2908 26.9395 30.8155 26.9395 31.4627Z" fill="#292929"/>
<path fill-rule="evenodd" clip-rule="evenodd" d="M18.9805 41.9805C18.9805 42.6277 19.5051 43.1524 20.1523 43.1524H36.0699C36.7171 43.1524 37.2418 42.6277 37.2418 41.9805C37.2418 41.3333 36.7171 40.8087 36.0699 40.8087H20.1523C19.5051 40.8087 18.9805 41.3333 18.9805 41.9805Z" fill="#292929"/>
<path fill-rule="evenodd" clip-rule="evenodd" d="M44.6602 18.1044C45.3074 18.1044 45.832 17.5798 45.832 16.9326V8.97623C45.832 8.32902 45.3074 7.80435 44.6602 7.80435C44.0129 7.80435 43.4883 8.32902 43.4883 8.97623V16.9326C43.4883 17.5798 44.0129 18.1044 44.6602 18.1044Z" fill="#292929"/>
</g>
</svg>