<svg width="40" height="40" viewBox="0 0 40 40" fill="none" xmlns="http://www.w3.org/2000/svg">
<g clip-path="url(#clip0_8_1085)">
<path d="M29.4935 16.7029V0.0819092H9.75122V16.7029C7.5663 19.0829 6.23975 22.2432 6.23975 25.7157C6.23975 33.0898 12.2483 39.0983 19.6224 39.0983C26.9965 39.0983 33.005 33.0898 33.005 25.7157C33.005 22.2432 31.6784 19.0829 29.4935 16.7029ZM27.2306 2.34486V14.7521C25.0847 13.2304 22.4706 12.3721 19.6224 12.3721C16.7742 12.3721 14.1601 13.2694 12.0142 14.7521V2.34486H27.2306ZM19.6224 36.8353C13.4968 36.8353 8.5027 31.8412 8.5027 25.7157C8.5027 19.5901 13.4968 14.596 19.6224 14.596C25.7479 14.596 30.742 19.5901 30.742 25.7157C30.742 31.8412 25.7479 36.8353 19.6224 36.8353Z" fill="#292929"/>
<path d="M19.6223 20.2144C17.5544 20.2144 15.8767 21.8921 15.8767 23.9599C15.8767 25.6376 16.9692 27.0422 18.4908 27.5494V32.0363L20.7538 30.6707V27.5104C22.2754 27.0422 23.3679 25.5986 23.3679 23.9209C23.3679 21.8921 21.6901 20.2144 19.6223 20.2144ZM19.6223 25.4816C18.8029 25.4816 18.1397 24.8183 18.1397 23.9989C18.1397 23.1796 18.8029 22.5163 19.6223 22.5163C20.4416 22.5163 21.1049 23.1796 21.1049 23.9989C21.1049 24.8183 20.4416 25.4816 19.6223 25.4816Z" fill="#292929"/>
</g>
<defs>
<clipPath id="clip0_8_1085">
<rect width="39.0164" height="39.0164" fill="white" transform="translate(0.114258 0.0819092)"/>
</clipPath>
</defs>
</svg>
