<svg width="45" height="44" viewBox="0 0 45 44" fill="none" xmlns="http://www.w3.org/2000/svg">
<g id="Linkedin">
<path id="Vector" d="M22.4994 37.8758C31.4649 37.8758 38.7317 30.6089 38.7317 21.6435C38.7317 12.6779 31.4649 5.41113 22.4994 5.41113C13.5339 5.41113 6.26709 12.6779 6.26709 21.6435C6.26709 30.6089 13.5339 37.8758 22.4994 37.8758Z" stroke="black" stroke-width="1.27735" stroke-linecap="round" stroke-linejoin="round"/>
<g id="Group 11711">
<path id="Vector_2" d="M15.5894 18.6494L15.5894 26.9948" stroke="black" stroke-width="1.27735" stroke-linecap="round" stroke-linejoin="round"/>
<path id="Vector_3" d="M21.0396 17.627L21.0396 26.9942" stroke="black" stroke-width="1.27735" stroke-linecap="round" stroke-linejoin="round"/>
<path id="Vector_4" d="M21.02 27.0269V21.4429C21.02 19.1266 22.8994 17.2471 25.2159 17.2471C27.5341 17.2471 29.4116 19.1266 29.4116 21.4429V27.0269" stroke="black" stroke-width="1.27735" stroke-linecap="round" stroke-linejoin="round"/>
<path id="Vector_5" d="M15.5938 16.2937V16.3095M15.6581 16.2971C15.6581 16.3328 15.6291 16.3617 15.5934 16.3617C15.5577 16.3617 15.5288 16.3328 15.5288 16.2971C15.5288 16.2614 15.5577 16.2324 15.5934 16.2324C15.6291 16.2324 15.6581 16.2614 15.6581 16.2971Z" stroke="black" stroke-width="1.27735" stroke-linecap="round" stroke-linejoin="round"/>
</g>
</g>
</svg>
