<svg width="40" height="40" viewBox="0 0 40 40" fill="none" xmlns="http://www.w3.org/2000/svg">
<g clip-path="url(#clip0_43824_67701)">
<path d="M0 0V39.0164H0.413574H2.06787H39.0164V0H0ZM36.9485 36.9485H2.06787V2.06787H36.9485V36.9485Z" fill="#292929"/>
<path d="M31.6118 27.3969L30.3711 25.329L19.1649 25.329L19.1649 22.114L10 22.114L10 25.329L7.88208 25.329L9.1228 27.3969L10 27.3969L10 30.6118L19.1649 30.6118L19.1649 27.3969L31.6118 27.3969ZM17.101 28.5439L12.0679 28.5439L12.0679 24.1858L17.101 24.1858L17.101 28.5439Z" fill="#292929"/>
<path d="M31.6118 14.4008L30.3711 12.3329L29.4961 12.3329L29.4961 9.11795L20.3311 9.11795L20.3311 12.3329L7.88208 12.3329L9.1228 14.4008L20.3351 14.4008L20.3351 17.6118L29.5 17.6118L29.5 14.3969L31.6118 14.3969L31.6118 14.4008ZM27.4321 15.5478L22.399 15.5478L22.399 11.1897L27.4321 11.1897L27.4321 15.5478Z" fill="#292929"/>
</g>
<defs>
<clipPath id="clip0_43824_67701">
<rect width="39.0164" height="39.0164" fill="white"/>
</clipPath>
</defs>
</svg>
