<svg width="40" height="40" viewBox="0 0 40 40" fill="none" xmlns="http://www.w3.org/2000/svg">
<g clip-path="url(#clip0_8_1083)">
<path d="M29.042 24.2573L27.3799 25.9194L26.6269 25.1664C28.9562 22.5055 30.3764 19.0252 30.3764 15.2172C30.3764 12.1662 29.4634 9.32576 27.9027 6.94576L26.4435 8.40498C27.6569 10.3909 28.3592 12.7241 28.3592 15.2172C28.3592 22.4431 22.4794 28.3228 15.2536 28.3228C8.02777 28.3228 2.14801 22.447 2.14801 15.2211C2.14801 7.9953 8.02777 2.11554 15.2536 2.11554C17.9301 2.11554 20.4194 2.92317 22.4951 4.30435L23.9426 2.85685C21.4806 1.12062 18.4842 0.0983887 15.2536 0.0983887C6.91581 0.0983887 0.130859 6.88334 0.130859 15.2211C0.130859 23.5589 6.91581 30.3439 15.2536 30.3439C19.0616 30.3439 22.5419 28.9276 25.2028 26.5944L25.9558 27.3474L24.2937 29.0095L28.2617 32.9814L34.395 39.1148L39.1472 34.3626L29.042 24.2573ZM28.5621 30.4297L27.1419 29.0095L29.042 27.1094L36.2951 34.3626L34.395 36.2627L28.5621 30.4297Z" fill="#292929"/>
</g>
<defs>
<clipPath id="clip0_8_1083">
<rect width="39.0164" height="39.0164" fill="white" transform="translate(0.130859 0.0983887)"/>
</clipPath>
</defs>
</svg>
