<svg xmlns="http://www.w3.org/2000/svg" width="15" height="16" viewBox="0 0 15 16" fill="none">
  <rect x="4.34814" y="5.20605" width="6.45905" height="6.45905" fill="white"/>
  <path fill-rule="evenodd" clip-rule="evenodd" d="M10.1808 6.92072L7.13596 9.96709C7.03055 10.0725 6.88776 10.1316 6.73899 10.1316C6.59023 10.1316 6.44744 10.0725 6.34278 9.96709L4.86485 8.48689C4.64657 8.2671 4.64657 7.912 4.86561 7.69296C5.08539 7.47467 5.43974 7.47542 5.65878 7.69371L6.73974 8.77695L8.0637 7.45223L9.38765 6.12752C9.60669 5.90848 9.96179 5.90848 10.1808 6.12752C10.3999 6.34656 10.3999 6.70168 10.1808 6.92072ZM14.0084 6.56786L13.4859 6.04528C13.2474 5.80606 13.1166 5.48759 13.1166 5.15044V4.40286C13.1166 3.28972 12.2105 2.38441 11.0981 2.38441H10.349C10.0104 2.38441 9.69266 2.25358 9.45494 2.01585L8.92341 1.48508C8.13322 0.701617 6.85337 0.705354 6.06917 1.4933L5.54814 2.01585C5.30816 2.25433 4.99045 2.38516 4.65255 2.38516H3.90423C2.80454 2.3859 1.90745 3.27103 1.88727 4.36698C1.88651 4.37894 1.88577 4.3909 1.88577 4.40361V5.14894C1.88577 5.48685 1.75495 5.80456 1.51647 6.04304L0.987187 6.57309C0.98644 6.57534 0.984197 6.57608 0.982702 6.57758C0.201486 7.36851 0.208214 8.64836 0.995411 9.42809L1.51797 9.95214C1.75569 10.1906 1.88727 10.5076 1.88727 10.8455V11.5968C1.88727 12.7092 2.79183 13.6145 3.90423 13.6145H4.65105C4.98971 13.6153 5.30742 13.7461 5.54515 13.9831L6.07814 14.5146C6.45791 14.8921 6.96177 15.0999 7.49778 15.0999H7.50675C8.04575 15.0977 8.55112 14.8854 8.92939 14.5049L9.45344 13.9816C9.68893 13.7468 10.0149 13.6123 10.3475 13.6123H11.0996C12.2097 13.6123 13.1151 12.7084 13.1173 11.5968V10.847C13.1173 10.5098 13.2481 10.1921 13.4851 9.95363L14.0166 9.4221C14.8016 8.63266 14.7971 7.35207 14.0084 6.56786Z" fill="#CC963F"/>
</svg>