<svg xmlns="http://www.w3.org/2000/svg" width="61" height="60" viewBox="0 0 61 60" fill="none">
  <path d="M59.6279 57.6559H58.4561V27.883C58.4561 27.2359 57.9313 26.7112 57.2842 26.7112H51.6741V11.6146C51.6741 11.1809 51.4345 10.7826 51.0513 10.5794L31.3638 0.136315C31.0005 -0.0563413 30.563 -0.0447398 30.2107 0.16737C29.8583 0.379362 29.6428 0.760455 29.6428 1.17155V13.1247H17.7834C17.1363 13.1247 16.6116 13.6494 16.6116 14.2965V26.4515C16.6116 27.0986 17.1363 27.6233 17.7834 27.6233C18.4305 27.6233 18.9553 27.0986 18.9553 26.4515V15.4684H34.8928V20.1487H30.8147C30.1676 20.1487 29.6428 20.6734 29.6428 21.3205C29.6428 21.9676 30.1676 22.4924 30.8147 22.4924H34.8928V26.7112H30.8147C30.1676 26.7112 29.6428 27.2359 29.6428 27.883C29.6428 28.5301 30.1676 29.0549 30.8147 29.0549H34.8928V33.2737H30.8147C30.1676 33.2737 29.6428 33.7984 29.6428 34.4455C29.6428 35.0926 30.1676 35.6174 30.8147 35.6174H34.8928V39.8362H30.8147C30.1676 39.8362 29.6428 40.3609 29.6428 41.008C29.6428 41.6551 30.1676 42.1799 30.8147 42.1799H34.8928V46.3987H30.8147C30.1676 46.3987 29.6428 46.9234 29.6428 47.5705C29.6428 48.2176 30.1676 48.7424 30.8147 48.7424H34.8928V52.9612H30.8147C30.1676 52.9612 29.6428 53.4859 29.6428 54.133C29.6428 54.7801 30.1676 55.3049 30.8147 55.3049H34.8928V57.6559H28.9248V36.0934C28.9248 35.4463 28.4 34.9215 27.7529 34.9215H4.31543C3.66832 34.9215 3.14355 35.4463 3.14355 36.0934V57.6559H1.97168C1.32457 57.6559 0.799805 58.1807 0.799805 58.8278C0.799805 59.4749 1.32457 59.9997 1.97168 59.9997H59.6279C60.275 59.9997 60.7998 59.4749 60.7998 58.8278C60.7998 58.1807 60.2752 57.6559 59.6279 57.6559ZM26.5811 57.6559H5.4873V37.2653H26.5811V57.6559ZM41.1123 27.883V57.6559H37.2366V14.2965C37.2366 13.6494 36.7118 13.1247 36.0647 13.1247H31.9866V3.11967L49.3303 12.3196V26.7112H42.2842C41.6371 26.7112 41.1123 27.2359 41.1123 27.883ZM56.1123 33.2737H49.7842C49.1371 33.2737 48.6123 33.7984 48.6123 34.4455C48.6123 35.0926 49.1371 35.6174 49.7842 35.6174H56.1123V39.8362H49.7842C49.1371 39.8362 48.6123 40.3609 48.6123 41.008C48.6123 41.6551 49.1371 42.1799 49.7842 42.1799H56.1123V46.3987H49.7842C49.1371 46.3987 48.6123 46.9234 48.6123 47.5705C48.6123 48.2176 49.1371 48.7424 49.7842 48.7424H56.1123V52.9612H52.5577C51.9105 52.9612 51.3858 53.4859 51.3858 54.133C51.3858 54.7801 51.9105 55.3049 52.5577 55.3049H56.1123V57.6559H43.4561V29.0549H56.1123V33.2737Z" fill="#292929"/>
</svg>