<svg width="40" height="40" viewBox="0 0 40 40" fill="none" xmlns="http://www.w3.org/2000/svg">
<g clip-path="url(#clip0_8_1089)">
<path d="M24.3755 19.8242H14.7384C11.5079 19.8242 8.88208 17.1984 8.88208 13.9678V12.93H9.91992C11.1177 12.93 12.0931 11.9546 12.0931 10.7568V7.54574C12.0931 3.42951 15.4407 0.0819092 19.557 0.0819092C23.6732 0.0819092 27.0208 3.42951 27.0208 7.54574V10.7568C27.0208 11.9546 27.9962 12.93 29.194 12.93H30.2318V13.9678C30.2318 17.1984 27.606 19.8242 24.3755 19.8242ZM11.0631 14.8535C11.4611 16.5117 12.9593 17.7485 14.7384 17.7485H24.3755C26.1546 17.7485 27.6529 16.5117 28.0508 14.8535C26.26 14.3541 24.9412 12.7076 24.9412 10.7568V7.54574C24.9412 4.5766 22.5261 2.16148 19.557 2.16148C16.5878 2.16148 14.1727 4.5766 14.1727 7.54574V10.7568C14.1727 12.7037 12.8539 14.3502 11.0631 14.8535Z" fill="#292929"/>
<path d="M24.9998 37.0187H6.43191L7.49706 32.7621C8.43736 28.997 11.7655 26.3439 15.6281 26.2541L19.557 27.9474L23.486 26.2502C27.3486 26.3439 30.6767 28.9931 31.617 32.7582L33.1893 39.0983H35.3431L33.6341 32.2588C32.4441 27.4988 28.1835 24.1746 23.2792 24.1746H23.0646L19.557 25.6845L16.0534 24.1707H15.8388C10.9305 24.1707 6.67381 27.4948 5.47991 32.2548L3.771 39.0983H27.0755L24.9998 37.0187Z" fill="#292929"/>
</g>
<defs>
<clipPath id="clip0_8_1089">
<rect width="39.0164" height="39.0164" fill="white" transform="translate(0.0488281 0.0819092)"/>
</clipPath>
</defs>
</svg>
