<svg width="40" height="40" viewBox="0 0 40 40" fill="none" xmlns="http://www.w3.org/2000/svg">
<g clip-path="url(#clip0_8_1073)">
<path d="M20.3284 4.93323H18.7209V7.0011H20.3284V4.93323Z" fill="#292929"/>
<path d="M26.7544 4.93323H25.147V7.0011H26.7544V4.93323Z" fill="#292929"/>
<path d="M33.1805 4.93323H31.573V7.0011H33.1805V4.93323Z" fill="#292929"/>
<path d="M20.3284 9.75574H18.7209V11.8236H20.3284V9.75574Z" fill="#292929"/>
<path d="M26.7544 9.75574H25.147V11.8236H26.7544V9.75574Z" fill="#292929"/>
<path d="M33.1805 9.75574H31.573V11.8236H33.1805V9.75574Z" fill="#292929"/>
<path d="M20.3284 14.5742H18.7209V16.6421H20.3284V14.5742Z" fill="#292929"/>
<path d="M26.7544 14.5742H25.147V16.6421H26.7544V14.5742Z" fill="#292929"/>
<path d="M33.1805 14.5742H31.573V16.6421H33.1805V14.5742Z" fill="#292929"/>
<path d="M20.3284 19.3927H18.7209V21.4606H20.3284V19.3927Z" fill="#292929"/>
<path d="M26.7544 19.3927H25.147V21.4606H26.7544V19.3927Z" fill="#292929"/>
<path d="M33.1805 19.3927H31.573V21.4606H33.1805V19.3927Z" fill="#292929"/>
<path d="M20.3284 24.2113H18.7209V26.2792H20.3284V24.2113Z" fill="#292929"/>
<path d="M26.7544 24.2113H25.147V26.2792H26.7544V24.2113Z" fill="#292929"/>
<path d="M33.1805 24.2113H31.573V26.2792H33.1805V24.2113Z" fill="#292929"/>
<path d="M39.033 0.114746H12.8686V9.75569H0.0166016V34.9096L2.08447 32.8417V11.8197H12.8686V14.5742H4.83512V21.4606H12.8686V24.2152H4.83512V31.1016H12.8686V37.0633H0.0166016V39.1311H39.033V4.74989L36.9651 6.40419V37.0633H30.9995V29.0337H20.9021V37.0633H14.9365V2.18261H39.033V0.114746ZM12.8686 29.0337H6.90299V26.2791H12.8686V29.0337ZM12.8686 19.3927H6.90299V16.6382H12.8686V19.3927ZM22.966 31.0977H28.9316V37.0633H22.966V31.0977Z" fill="#292929"/>
</g>
<defs>
<clipPath id="clip0_8_1073">
<rect width="39.0164" height="39.0164" fill="white" transform="translate(0.0166016 0.114746)"/>
</clipPath>
</defs>
</svg>
