<svg width="24" height="24" viewBox="0 0 24 24" fill="none" xmlns="http://www.w3.org/2000/svg">
<path d="M18.2484 3.21484C19.7682 3.21484 21 4.44663 21 5.96641V8.06803C21 9.09355 20.5923 10.0762 19.8684 10.8011L15.3928 14.7854C15.097 15.0812 14.9306 15.4831 14.9306 15.9014V19.2066C14.9306 20.3217 13.8049 21.0845 12.7696 20.6719L10.8402 19.9033C10.2399 19.6649 9.8468 19.084 9.8468 18.438V16.3996C9.8468 15.953 9.6571 15.5268 9.3253 15.2272L4.2775 10.2358C3.4641 9.5022 3 8.45917 3 7.36457V5.96641C3 4.44663 4.2318 3.21484 5.7516 3.21484H9.3253" stroke="#292929" stroke-linecap="round" stroke-linejoin="round"/>
<path d="M13.9464 8.47804L14.0473 8.20956C14.4282 7.19721 15.2397 6.39902 16.2691 6.02442L16.542 5.92507L16.2691 5.82572C15.2397 5.45112 14.4282 4.65294 14.0473 3.64058L13.9464 3.37207L13.8453 3.64058C13.4645 4.65294 12.653 5.45112 11.6236 5.82572L11.3506 5.92507L11.6236 6.02442C12.653 6.39902 13.4645 7.19721 13.8453 8.20956L13.9464 8.47804Z" stroke="#292929" stroke-linecap="round" stroke-linejoin="round"/>
<path d="M8.63482 9.69754C8.80652 9.14299 9.24772 8.70897 9.81152 8.54018C9.24772 8.37139 8.80652 7.93738 8.63482 7.38281C8.46322 7.93738 8.02202 8.37139 7.45822 8.54018C8.02202 8.70897 8.46322 9.14299 8.63482 9.69754Z" stroke="#292929" stroke-linecap="round" stroke-linejoin="round"/>
</svg>
