<svg width="40" height="40" viewBox="0 0 40 40" fill="none" xmlns="http://www.w3.org/2000/svg">
<g clip-path="url(#clip0_8_1068)">
<path d="M34.1905 3.29848C29.9494 -0.9465 23.0396 -0.9465 18.7947 3.29848L5.21695 16.8762V19.8492L5.22085 19.8531L20.289 4.78501C23.7146 1.35937 29.2823 1.36327 32.7079 4.78501C36.1296 8.21065 36.1296 13.7783 32.7079 17.2039L14.737 35.171C13.543 36.3649 11.9551 37.0242 10.2657 37.0242C8.57626 37.0242 6.9883 36.3649 5.7944 35.171C4.60049 33.9771 3.94112 32.3891 3.94112 30.6997C3.94112 29.0103 4.60049 27.4223 5.7944 26.2284L23.7575 8.26527C25.2636 6.75924 27.7138 6.75924 29.2198 8.26527C30.7259 9.7713 30.7259 12.2215 29.2198 13.7276L14.4872 28.468V31.4449L14.4911 31.4488L30.7181 15.2219C33.0473 12.8926 33.0473 9.10412 30.7181 6.77874C28.3888 4.44947 24.6003 4.44947 22.2749 6.77874L4.30787 24.7419C2.7121 26.3338 1.83813 28.4484 1.83813 30.6997C1.83813 32.9509 2.716 35.0695 4.30787 36.6614C5.89974 38.2533 8.01833 39.1311 10.2696 39.1311C12.5208 39.1311 14.6394 38.2533 16.2313 36.6614L34.1944 18.6982C38.4355 14.4533 38.4355 7.54347 34.1905 3.29848Z" fill="#292929"/>
</g>
<defs>
<clipPath id="clip0_8_1068">
<rect width="39.0164" height="39.0164" fill="white" transform="translate(0.0981445 0.114746)"/>
</clipPath>
</defs>
</svg>
