<svg xmlns="http://www.w3.org/2000/svg" width="55" height="60" viewBox="0 0 55 60" fill="none">
  <path d="M54.432 28.4901C54.4318 27.8431 53.9071 27.3187 53.2601 27.3187H50.1473C49.6053 25.2159 48.7764 23.2139 47.6743 21.3459L49.8756 19.1445C50.3333 18.6869 50.3333 17.9449 49.8756 17.4872L43.2784 10.8899C42.8207 10.4322 42.0787 10.4322 41.621 10.8899L40.9573 11.5535C40.8951 6.86601 38.3502 2.51144 34.2812 0.157737C33.9186 -0.0521456 33.4717 -0.0522628 33.109 0.156917C32.7462 0.366213 32.5226 0.753165 32.5226 1.17211V10.383L27.6006 13.2248L22.6786 10.383V1.17199C22.6786 0.753165 22.455 0.366213 22.0922 0.156799C21.7294 -0.0524971 21.2824 -0.0521456 20.92 0.15762C16.8564 2.5084 14.3129 6.8544 14.2442 11.5347L13.5879 10.8785C13.1303 10.4209 12.3883 10.4209 11.9305 10.8785L5.33323 17.4758C4.87562 17.9334 4.87562 18.6754 5.33323 19.1332L7.54573 21.3455C6.4437 23.2135 5.6146 25.2157 5.07261 27.3186H1.9409C1.29391 27.3186 0.769258 27.843 0.769023 28.49L0.765625 37.82C0.765508 38.1309 0.888906 38.429 1.10875 38.6488C1.32848 38.8688 1.6266 38.9923 1.9375 38.9923H5.07237C5.61437 41.0951 6.44323 43.0974 7.54538 44.9655L5.32538 47.1855C4.86777 47.6431 4.86777 48.3851 5.32538 48.8428L11.9227 55.4401C12.3803 55.8976 13.1223 55.8976 13.5801 55.4401L15.8 53.2201C17.668 54.3222 19.6704 55.1513 21.7733 55.6933V58.828C21.7733 59.1388 21.8968 59.437 22.1167 59.6568C22.3364 59.8765 22.6344 59.9999 22.9452 59.9999C22.9453 59.9999 22.9454 59.9999 22.9457 59.9999L32.2756 59.9965C32.9226 59.9963 33.447 59.4716 33.447 58.8246V55.693C35.5499 55.151 37.5521 54.3222 39.4202 53.2199L41.6326 55.4324C41.8523 55.6521 42.1504 55.7756 42.4612 55.7756C42.4613 55.7756 42.4614 55.7756 42.4616 55.7756C42.7725 55.7755 43.0706 55.6519 43.2903 55.4319L49.884 48.831C50.3411 48.3733 50.3409 47.6317 49.8835 47.1741L47.6746 44.9651C48.7767 43.0971 49.6056 41.0951 50.1476 38.9922H53.2639C53.5748 38.9922 53.8729 38.8687 54.0926 38.6487C54.3124 38.4289 54.4359 38.1308 54.4358 37.8199L54.432 28.4901ZM20.3347 3.45105V11.0594C20.3347 11.4781 20.5581 11.865 20.9207 12.0743L27.0146 15.5926C27.3772 15.8019 27.8239 15.8019 28.1865 15.5926L34.2805 12.0743C34.6431 11.865 34.8664 11.4781 34.8664 11.0594V3.45105C37.2186 5.52292 38.6165 8.5385 38.6165 11.729C38.6165 17.8033 33.6749 22.745 27.6006 22.745C21.5263 22.745 16.5846 17.8033 16.5846 11.729C16.5846 8.5385 17.9825 5.5228 20.3347 3.45105ZM49.2203 36.6486C48.668 36.6486 48.1906 37.0342 48.0746 37.5742C47.5429 40.049 46.5779 42.3798 45.2061 44.5022C44.9062 44.966 44.9711 45.5764 45.3616 45.9669L47.3978 48.0032L42.4607 52.9458L40.4219 50.907C40.0313 50.5166 39.4211 50.4515 38.9571 50.7515C36.8347 52.123 34.5038 53.0883 32.0288 53.6201C31.4888 53.7361 31.1032 54.2135 31.1032 54.7658V57.6531L24.1171 57.6556V54.766C24.1171 54.2137 23.7314 53.7362 23.1914 53.6203C20.7164 53.0885 18.3856 52.1234 16.2632 50.7516C15.7992 50.4517 15.1889 50.5166 14.7983 50.9071L12.7514 52.954L7.81128 48.0142L9.85819 45.9673C10.2488 45.5767 10.3136 44.9664 10.0137 44.5026C8.64213 42.3802 7.67698 40.0492 7.14507 37.5743C7.02905 37.0343 6.55175 36.6487 5.99933 36.6487H3.10996L3.11242 29.6626H5.99968C6.55198 29.6626 7.0294 29.2769 7.14542 28.7369C7.67721 26.2619 8.64225 23.931 10.014 21.8088C10.3139 21.345 10.249 20.7345 9.85854 20.3439L7.81913 18.3047L12.759 13.3647L14.738 15.3437C15.6271 18.5036 17.6522 21.1924 20.3426 22.9401V45.4858C20.3115 45.4675 20.2801 45.4504 20.2492 45.4319C19.6945 45.0986 18.9744 45.2784 18.6413 45.8334C18.3081 46.3881 18.4879 47.1081 19.0427 47.4413C21.703 49.0385 24.66 49.8176 27.5969 49.8175C31.8961 49.8174 36.1518 48.1479 39.3677 44.9322C42.2165 42.0832 43.9341 38.303 44.2041 34.2876C44.4714 30.3112 43.3089 26.3735 40.9306 23.1999C40.5424 22.6822 39.8081 22.577 39.29 22.965C38.7722 23.3531 38.6669 24.0876 39.055 24.6056C43.286 30.2514 42.7079 38.2775 37.7104 43.2749C36.8441 44.1413 35.8898 44.877 34.8743 45.479V32.0712C34.8743 31.4241 34.3496 30.8994 33.7024 30.8994C33.0552 30.8994 32.5305 31.4241 32.5305 32.0712V46.5923C30.9472 47.1753 29.276 47.4727 27.5967 47.4726C25.9419 47.4725 24.2796 47.1824 22.6866 46.5969V24.1522C24.2084 24.7563 25.8666 25.0887 27.6008 25.0887C33.7059 25.0887 38.8674 20.9724 40.4564 15.3695L42.4501 13.3758L47.39 18.3157L45.3617 20.3438C44.9711 20.7344 44.9063 21.3447 45.2062 21.8087C46.5778 23.9309 47.5429 26.2618 48.0747 28.7367C48.1907 29.2767 48.668 29.6623 49.2205 29.6623H52.089L52.0915 36.6485L49.2203 36.6486Z" fill="#292929"/>
</svg>