<svg width="40" height="40" viewBox="0 0 40 40" fill="none" xmlns="http://www.w3.org/2000/svg">
<g clip-path="url(#clip0_1677_35840)">
<path d="M18.7046 19.7423C14.8185 19.7423 11.5607 16.8278 11.1315 12.9651L10.6321 8.45875C10.3941 6.30895 11.0847 4.15134 12.5283 2.53606C13.9719 0.924688 16.0397 0 18.2051 0H19.2079C21.3733 0 23.4411 0.924688 24.8847 2.53606C26.3284 4.14744 27.0189 6.30895 26.7809 8.45875L26.2815 12.9651C25.8485 16.8317 22.5906 19.7423 18.7046 19.7423ZM18.2051 2.07957C16.6328 2.07957 15.1268 2.75065 14.0772 3.92505C13.0277 5.09944 12.5244 6.6679 12.6999 8.23246L13.1993 12.7388C13.5115 15.548 15.8798 17.6666 18.7046 17.6666C21.5293 17.6666 23.8976 15.548 24.2098 12.7388L24.7092 8.23246C24.8847 6.6679 24.3814 5.09944 23.3319 3.92505C22.2824 2.75065 20.7763 2.07957 19.204 2.07957H18.2051Z" fill="#292929"/>
<path d="M27.4909 36.9368H3.84312L3.90164 36.5349C4.61564 31.5408 8.95816 27.7757 14.003 27.7757H14.1512L19.5082 26.2112L24.8651 27.7757H25.0134C30.0582 27.7757 34.4007 31.5408 35.1147 36.5349L35.4269 39.0164H37.5689L37.1709 36.2423C36.3203 30.2806 31.1741 25.7703 25.1656 25.6962L19.5082 24.0458L13.8508 25.6962C7.84229 25.7703 2.69603 30.2806 1.84158 36.2423L1.44751 39.0164H29.5705L27.4909 36.9368Z" fill="#292929"/>
<path fill-rule="evenodd" clip-rule="evenodd" d="M25.8674 17.6689C25.6198 18.216 25.3569 18.7544 25.0792 19.2836C26.0911 20.1662 27.3906 20.729 28.8232 20.8162C32.0175 21.0106 34.841 18.7812 35.3904 15.6246L36.0264 11.9455C36.3295 10.1903 35.87 8.37905 34.764 6.98232C33.6581 5.58558 32.0046 4.72205 30.2247 4.61372L29.4005 4.56355C29.137 4.54752 28.8744 4.54824 28.6139 4.56516C28.6193 5.13546 28.6091 5.70906 28.583 6.28551C28.8187 6.2628 29.0572 6.25835 29.2964 6.27291L30.1174 6.32288C31.4099 6.40154 32.6142 7.0285 33.4181 8.04634C34.2221 9.06417 34.5573 10.3786 34.3347 11.6558L33.6988 15.335C33.3017 17.6284 31.249 19.2514 28.9271 19.1101C27.7183 19.0365 26.6399 18.4971 25.8674 17.6689Z" fill="#292929"/>
<path fill-rule="evenodd" clip-rule="evenodd" d="M11.6201 18.2311C11.8677 18.7782 12.1307 19.3166 12.4083 19.8458C11.3964 20.7284 10.0969 21.2913 8.66424 21.3785C5.47002 21.5729 2.64651 19.3434 2.09709 16.1869L1.46113 12.5077C1.15794 10.7526 1.61745 8.94131 2.72344 7.54457C3.82943 6.14784 5.48291 5.28431 7.26282 5.17598L8.08703 5.12581C8.35048 5.10977 8.61318 5.1105 8.87369 5.12743C8.86828 5.69773 8.87846 6.27132 8.9046 6.84778C8.66887 6.82506 8.43033 6.8206 8.19108 6.83517L7.37007 6.88514C6.07763 6.9638 4.87328 7.59076 4.06934 8.6086C3.2654 9.62643 2.93016 10.9408 3.15275 12.2181L3.78871 15.8972C4.18582 18.1907 6.23849 19.8136 8.5604 19.6723C9.76923 19.5987 10.8476 19.0593 11.6201 18.2311Z" fill="#292929"/>
</g>
<defs>
<clipPath id="clip0_1677_35840">
<rect width="39.0164" height="39.0164" fill="white"/>
</clipPath>
</defs>
</svg>
