<svg width="45" height="44" viewBox="0 0 45 44" fill="none" xmlns="http://www.w3.org/2000/svg">
<g id="Instagram">
<path id="Vector" d="M22.5707 37.8748C31.5362 37.8748 38.803 30.608 38.803 21.6425C38.803 12.677 31.5362 5.41016 22.5707 5.41016C13.6052 5.41016 6.33838 12.677 6.33838 21.6425C6.33838 30.608 13.6052 37.8748 22.5707 37.8748Z" stroke="black" stroke-width="1.27735" stroke-linecap="round" stroke-linejoin="round"/>
<g id="Group 11709">
<path id="Vector_2" d="M19.1866 14.4199H25.9551C28.3208 14.4199 29.7933 16.09 29.7933 18.4534V24.8307C29.7933 27.1941 28.3208 28.8641 25.9543 28.8641H19.1866C16.8209 28.8641 15.3491 27.1941 15.3491 24.8307V18.4534C15.3491 16.09 16.8279 14.4199 19.1866 14.4199Z" stroke="black" stroke-width="1.27735" stroke-linecap="round" stroke-linejoin="round"/>
<path id="Vector_3" d="M22.447 19.0947C20.8948 19.0947 19.6362 20.3533 19.6362 21.9055C19.6362 23.4576 20.8948 24.7163 22.447 24.7163C23.9992 24.7163 25.2578 23.4576 25.2578 21.9055C25.2578 20.3533 23.9992 19.0947 22.447 19.0947Z" stroke="black" stroke-width="1.27735" stroke-linecap="round" stroke-linejoin="round"/>
<path id="Vector_4" d="M26.4759 17.9227V17.9781M26.7022 17.9348C26.7022 18.0607 26.6003 18.1627 26.4743 18.1627C26.3483 18.1627 26.2456 18.0607 26.2456 17.9348C26.2456 17.8088 26.3483 17.7061 26.4743 17.7061C26.6003 17.7061 26.7022 17.8088 26.7022 17.9348Z" stroke="black" stroke-width="1.27735" stroke-linecap="round" stroke-linejoin="round"/>
</g>
</g>
</svg>
