<svg width="40" height="40" viewBox="0 0 40 40" fill="none" xmlns="http://www.w3.org/2000/svg">
<g clip-path="url(#clip0_8_1041)">
<path d="M28.5229 8.99326L18.7493 8.96595L24.4808 3.19153H21.8043L15.0818 9.91405L21.6014 16.4337H24.2779L18.722 10.8621H28.5229C33.3532 10.8621 37.2821 14.7911 37.2821 19.6213C37.2821 24.4516 33.3532 28.3805 28.5229 28.3805H25.9244L27.9962 30.2494H28.5229C34.3793 30.2416 39.1471 25.4777 39.1471 19.6174C39.1471 13.7611 34.3793 8.99326 28.5229 8.99326Z" fill="#292929"/>
<path d="M24.1296 29.3091L17.3915 22.5827H14.7149L20.5089 28.3766H10.7548C5.92455 28.3766 1.9956 24.4477 1.9956 19.6174C1.9956 14.7872 5.92455 10.8583 10.7548 10.8583H11.2854L13.3143 8.99329H10.7587C4.89842 8.99329 0.130615 13.7611 0.130615 19.6174C0.130615 25.4777 4.89842 30.2416 10.7548 30.2416L20.5089 30.2689L14.9607 35.8249H17.6373L24.1374 29.3247L24.1257 29.313L24.1296 29.3091Z" fill="#292929"/>
</g>
<defs>
<clipPath id="clip0_8_1041">
<rect width="39.0164" height="39.0164" fill="white" transform="translate(0.130859)"/>
</clipPath>
</defs>
</svg>
