<svg width="40" height="40" viewBox="0 0 40 40" fill="none" xmlns="http://www.w3.org/2000/svg">
<g clip-path="url(#clip0_8_1071)">
<path d="M28.5619 13.9617H11.1138L11.9292 11.9211H29.3773L28.5619 13.9617Z" fill="#292929"/>
<path d="M28.5619 20.3682H11.1138L11.9292 18.3276H29.3773L28.5619 20.3682Z" fill="#292929"/>
<path d="M28.5619 26.7708H11.1138L11.9292 24.7341H29.3773L28.5619 26.7708Z" fill="#292929"/>
<path d="M19.8379 0.114746C9.21764 0.114746 0.575508 8.75688 0.575508 19.3771C0.575508 22.8925 1.5197 26.2947 3.31446 29.2483L2.13616 32.7715L4.51616 32.0887L5.5579 28.9713L5.29259 28.5616C3.54075 25.8422 2.61607 22.6662 2.61607 19.3732C2.61607 9.87665 10.3413 2.1514 19.8379 2.1514C29.3345 2.1514 37.0597 9.87665 37.0597 19.3732C37.0597 28.8698 29.3345 36.5951 19.8379 36.5951C16.74 36.5951 13.7084 35.7601 11.0631 34.1839L10.6847 33.9576L0.794 36.794L0.0136719 39.1311L10.4037 36.1659C13.2714 37.7851 16.5215 38.6395 19.8379 38.6395C30.4582 38.6395 39.1003 29.9974 39.1003 19.3771C39.1003 8.75688 30.4582 0.114746 19.8379 0.114746Z" fill="#292929"/>
</g>
<defs>
<clipPath id="clip0_8_1071">
<rect width="39.0164" height="39.0164" fill="white" transform="translate(0.0488281 0.114746)"/>
</clipPath>
</defs>
</svg>
