<svg width="40" height="40" viewBox="0 0 40 40" fill="none" xmlns="http://www.w3.org/2000/svg">
<g clip-path="url(#clip0_8_1064)">
<path d="M34.5269 16.1403H30.196L30.5862 18.1301H30.8203L29.4937 22.3049V22.3829C29.2987 23.2023 28.6354 23.7875 27.8551 23.9436V23.9046C26.9967 22.2269 25.2019 21.2514 23.3292 21.2514H20.676V19.3006H28.5964L27.2698 4.86457L25.28 5.87899L26.4115 17.3498H12.8728L14.2774 2.05539H26.9967L26.8016 0.0655518H12.4436L10.6878 19.3006H18.6082V21.2514H15.9551C14.0823 21.2514 12.2875 22.2269 11.4292 23.9046V23.9436C10.6488 23.7875 9.98555 23.1632 9.79047 22.3829L8.4249 18.1301H8.659L9.04916 16.1403H4.71834L3.54785 18.1301H6.35703L7.87867 22.8901C8.26883 24.3728 9.40031 25.4652 10.8439 25.8554C10.8049 26.0895 10.8049 26.3236 10.8049 26.5577V27.5331H18.6472V34.9852H16.5013C14.5505 34.9852 12.9118 36.3508 12.4826 38.1846C12.4046 38.4967 12.3656 38.8088 12.3656 39.1209H14.3164C14.3164 37.9505 15.2918 36.975 16.4623 36.975H18.6082V39.1209H20.559V36.975H22.7439C23.9144 36.975 24.8898 37.9505 24.8898 39.1209H26.8796C26.8796 38.7698 26.8406 38.4187 26.7626 38.1065C26.2944 36.3118 24.6947 35.0242 22.7829 35.0242H20.637V27.5331H28.4793V26.5577C28.4793 26.3236 28.4793 26.0895 28.4403 25.8554C29.8839 25.5042 31.0154 24.3728 31.4055 22.8901L32.8882 18.0911H35.6973L34.5269 16.1403ZM12.9118 25.5432C13.341 23.9826 14.7846 22.8121 16.5013 22.8121H22.7439C24.4606 22.8121 25.9042 23.9826 26.3334 25.5432H12.9118Z" fill="#292929"/>
</g>
<defs>
<clipPath id="clip0_8_1064">
<rect width="39.0164" height="39.0164" fill="white" transform="translate(0.114258 0.0655518)"/>
</clipPath>
</defs>
</svg>
