<svg width="40" height="40" viewBox="0 0 40 40" fill="none" xmlns="http://www.w3.org/2000/svg">
<g clip-path="url(#clip0_8_1052)">
<path d="M0.0166016 6.46655V32.6192H39.033V17.1297V12.3034V6.46655H0.0166016ZM37.0041 11.289H33.0635L31.893 13.3178H37.0041V16.1114H13.7035L12.5331 18.1403H37.0041V30.5826H2.04545V18.1442H6.23191C6.64158 17.5199 7.21122 16.6576 7.57408 16.1153H2.04545V13.3217H25.584C25.9859 12.7092 26.5516 11.8508 26.9262 11.2929H2.04545V8.49931H37.0041V11.289Z" fill="#292929"/>
<path d="M33.3444 25.7641L25.3539 25.7251C25.307 25.7719 23.9844 27.793 23.9844 27.793H32.1778L33.3444 25.7641Z" fill="#292929"/>
</g>
<defs>
<clipPath id="clip0_8_1052">
<rect width="39.0164" height="39.0164" fill="white" transform="translate(0.0166016 0.0327148)"/>
</clipPath>
</defs>
</svg>
