<svg width="40" height="40" viewBox="0 0 40 40" fill="none" xmlns="http://www.w3.org/2000/svg">
<g clip-path="url(#clip0_1613_76324)">
<path d="M19.7891 0.114746C9.16881 0.114746 0.52668 8.75688 0.52668 19.3771C0.52668 22.8925 1.47088 26.2947 3.26563 29.2483L2.08734 32.7715L4.46733 32.0887L5.50907 28.9713L5.24376 28.5616C3.49193 25.8422 2.56724 22.6662 2.56724 19.3732C2.56724 9.87665 10.2925 2.1514 19.7891 2.1514C29.2857 2.1514 37.0109 9.87665 37.0109 19.3732C37.0109 28.8698 29.2857 36.5951 19.7891 36.5951C16.6912 36.5951 13.6596 35.7601 11.0143 34.1839L10.6358 33.9576L0.745171 36.794L-0.0351562 39.1311L10.3549 36.1659C13.2226 37.7851 16.4727 38.6395 19.7891 38.6395C30.4093 38.6395 39.0515 29.9974 39.0515 19.3771C39.0515 8.75688 30.4093 0.114746 19.7891 0.114746Z" fill="#292929"/>
<path d="M17.04 27.5001C17.04 27.7721 17.0404 25.0754 17.0413 25.0001C17.0496 24.2897 17.0972 23.6444 17.184 23.0561C17.2907 22.3948 17.5147 21.7548 17.856 21.1361C18.1653 20.5388 18.5333 20.0535 18.96 19.6801C19.3867 19.2961 19.8453 18.9281 20.336 18.5761C20.8267 18.2241 21.312 17.7921 21.792 17.2801C22.2187 16.8001 22.5013 16.3201 22.64 15.8401C22.7787 15.3495 22.848 14.8321 22.848 14.2881C22.848 13.8081 22.7893 13.3761 22.672 12.9921C22.5653 12.5975 22.384 12.2615 22.128 11.9841C21.744 11.5041 21.264 11.1735 20.688 10.9921C20.1227 10.8108 19.5307 10.7201 18.912 10.7201C18.3253 10.7201 17.7707 10.8001 17.248 10.9601C16.736 11.1201 16.3093 11.3708 15.968 11.7121C15.6267 12.0215 15.376 12.4001 15.216 12.8481C15.056 13.2855 14.976 13.7601 14.976 14.2721H12C12.064 13.3441 12.2827 12.4641 12.656 11.6321C13.04 10.7895 13.568 10.0961 14.24 9.55212C14.8693 9.01879 15.5893 8.62946 16.4 8.38412C17.2107 8.12812 18.0267 8.00012 18.848 8.00012C19.936 8.00012 20.9653 8.16546 21.936 8.49612C22.9173 8.82679 23.7333 9.37612 24.384 10.1441C24.8853 10.6881 25.2587 11.3121 25.504 12.0161C25.7493 12.7201 25.872 13.4615 25.872 14.2401C25.872 15.1895 25.68 16.0748 25.296 16.8961C24.9227 17.7175 24.416 18.4588 23.776 19.1201C23.424 19.5041 23.04 19.8561 22.624 20.1761C22.2187 20.4961 21.8293 20.8161 21.456 21.1361C21.0933 21.4561 20.8053 21.8081 20.592 22.1921C20.3147 22.6935 20.1547 23.1575 20.112 23.5841C20.08 24.0001 20.064 24.5495 20.064 25.2321L17.04 27.5001ZM17.056 31.5041V29.5001L20.064 27.5001V31.5041H17.056Z" fill="#292929"/>
</g>
<defs>
<clipPath id="clip0_1613_76324">
<rect width="39.0164" height="39.0164" fill="white" transform="translate(0 0.114746)"/>
</clipPath>
</defs>
</svg>
