<svg width="40" height="40" viewBox="0 0 40 40" fill="none" xmlns="http://www.w3.org/2000/svg">
<g clip-path="url(#clip0_8_1091)">
<path d="M18.7212 19.8242C14.8351 19.8242 11.5773 16.9097 11.1481 13.0471L10.6487 8.54066C10.4107 6.39086 11.1013 4.23325 12.5449 2.61797C13.9885 1.0066 16.0563 0.0819092 18.2217 0.0819092H19.2245C21.3899 0.0819092 23.4577 1.0066 24.9013 2.61797C26.345 4.22935 27.0355 6.39086 26.7975 8.54066L26.2981 13.0471C25.8651 16.9136 22.6072 19.8242 18.7212 19.8242ZM18.2217 2.16148C16.6494 2.16148 15.1434 2.83256 14.0938 4.00696C13.0443 5.18135 12.541 6.74981 12.7165 8.31437L13.2159 12.8208C13.5281 15.6299 15.8964 17.7485 18.7212 17.7485C21.5459 17.7485 23.9142 15.6299 24.2264 12.8208L24.7258 8.31437C24.9013 6.74981 24.398 5.18135 23.3485 4.00696C22.299 2.83256 20.7929 2.16148 19.2206 2.16148H18.2217Z" fill="#292929"/>
<path d="M27.5075 37.0187H3.85972L3.91824 36.6168C4.63224 31.6227 8.97476 27.8577 14.0196 27.8577H14.1678L19.5248 26.2931L24.8817 27.8577H25.03C30.0748 27.8577 34.4173 31.6227 35.1313 36.6168L35.4435 39.0983H37.5855L37.1875 36.3242C36.3369 30.3625 31.1907 25.8522 25.1822 25.7781L19.5248 24.1277L13.8674 25.7781C7.8589 25.8522 2.71264 30.3625 1.85818 36.3242L1.46411 39.0983H29.5871L27.5075 37.0187Z" fill="#292929"/>
</g>
<defs>
<clipPath id="clip0_8_1091">
<rect width="39.0164" height="39.0164" fill="white" transform="translate(0.0166016 0.0819092)"/>
</clipPath>
</defs>
</svg>
