<svg width="40" height="40" viewBox="0 0 40 40" fill="none" xmlns="http://www.w3.org/2000/svg">
<g clip-path="url(#clip0_1700_52645)">
<path d="M19.7 10.5C14.6 10.5 10.5 14.6 10.5 19.7C10.5 24.8 14.6 28.9 19.7 28.9C24.8 28.9 28.9 24.8 28.9 19.7C28.9 14.6 24.7 10.5 19.7 10.5ZM19.7 26.8C15.8 26.8 12.6 23.6 12.6 19.7C12.6 15.8 15.8 12.6 19.7 12.6C23.6 12.6 26.8 15.8 26.8 19.7C26.8 23.6 23.6 26.8 19.7 26.8Z" fill="#292929"/>
<path fill-rule="evenodd" clip-rule="evenodd" d="M21.2999 28.2H19.7999H18.2999V38H21.2999V28.2ZM16.2 26.4V39.7H23.2999V26.4C23.2999 26.4 22.1 26.8 19.7 26.8C17.3 26.8 16.2 26.4 16.2 26.4Z" fill="#292929"/>
<path fill-rule="evenodd" clip-rule="evenodd" d="M21.3 8.09998V11.2H19.3V8.09998H21.3Z" fill="#292929"/>
<path fill-rule="evenodd" clip-rule="evenodd" d="M28.8142 12.6L26.8 14.6142L25.3857 13.2L27.4 11.1858L28.8142 12.6Z" fill="#292929"/>
<path fill-rule="evenodd" clip-rule="evenodd" d="M31 21H27V19H31V21Z" fill="#292929"/>
<path fill-rule="evenodd" clip-rule="evenodd" d="M8 19H11V21H8V19Z" fill="#292929"/>
<path fill-rule="evenodd" clip-rule="evenodd" d="M12.6 10.7858L14.6142 12.8L13.2 14.2142L11.1858 12.2L12.6 10.7858Z" fill="#292929"/>
<path fill-rule="evenodd" clip-rule="evenodd" d="M33.2 13.1C33.5 13.8 33.8 14.4 34 15.1L39.6 16.5V23L38.8 23.2L34 24.5C33.8 25.2 33.5 25.9 33.2 26.5L36.3 31.3L35.6 32L31.6 36L30.9 35.6L27.4 33.5V31.1L31.3 33.4L33.6 31.1L31.2 27.1C31.2 27.2 30.8 26.3 30.8 26.3C31.3 25.5 32.1 23.6 32.4 22.6L33 22.5L37.7 21.3V18L33 17L32.3 16.9C32.3 16.8 32.2 16.7 32.2 16.5C31.9 15.6 31.6 14.3 31.2 13.6L30.9 12.9L31.3 12.4L33.7 8.5L31.4 6.2L27.4 8.6L26.5 9C25.7 8.5 23.9 7.8 22.9 7.5L22.7 6.8L21.5 2.1H18.2L17 6.8L16.8 7.5C15.8 7.8 14.1 8.5 13.2 9C13.2 9 12.4 8.5 12.5 8.5L8.5 6.1L6.2 8.4L8.6 12.4L8.7 12.5L9.1 13.1C8.6 13.9 7.6 16.7 7.6 16.7L6.8 17L2.1 18.2V21.5L7.2 22.7L7.4 23.4C7.7 24.6 8.3 25.8 9 26.8L8.5 27.3L6.1 31.3L8.4 33.6L12.1 31.4V33.8L8 36.2L7.5 35.7L4 32.2L3.3 31.5L6.4 26.7C6.1 26 5.8 25.4 5.6 24.7L0.7 23.5L0 23L0.1 16.5L5.8 15.1C6 14.4 6.3 13.7 6.6 13.1L4 8.8L3.6 8.2L8.2 3.6L8.9 4L13.2 6.6C13.9 6.3 14.5 6 15.2 5.8L16.4 0.9L16.6 0H23.1L23.3 0.8L24.5 5.7C25.2 5.9 25.9 6.2 26.5 6.5L31 4L31.6 3.7L36.2 8.2L35.8 8.9L33.2 13.1Z" fill="#292929"/>
<path d="M24.8 30.8H14.5V33.2001H24.8V30.8Z" fill="#292929"/>
<path d="M24.8 34.2H14.5V36.5999H24.8V34.2Z" fill="#292929"/>
</g>
<defs>
<clipPath id="clip0_1700_52645">
<rect width="39.7" height="39.7" fill="white"/>
</clipPath>
</defs>
</svg>
