<svg width="40" height="40" viewBox="0 0 40 40" fill="none" xmlns="http://www.w3.org/2000/svg">
<g clip-path="url(#clip0_1700_15188)">
<path fill-rule="evenodd" clip-rule="evenodd" d="M21 0H16.3674L16.1801 0.768623L14.9862 5.56764C14.2917 5.79393 13.6167 6.07485 12.9729 6.40259L8.73187 3.85482L8.02957 3.46856L3.52708 8.04518L3.92895 8.66164L6.47672 12.9027C6.14898 13.5465 5.86806 14.2176 5.64177 14.916L0.0702295 16.301L0 22.6646L0.838852 22.9026L5.63787 24.0965C5.86416 24.791 6.14508 25.466 6.47282 26.1098L3.39833 30.8854L4.08111 31.5955L7.49115 35.0055L7.97885 35.5127L12.969 32.6099C13.6128 32.9376 14.2839 33.2185 14.9823 33.4448L16.1762 38.2439C16.1294 38.197 16.3713 39.0125 16.3713 39.0125L21 39.0068V36.9836H17.9631L16.82 32.3992C16.8317 32.4772 16.6093 31.6657 16.6093 31.6657C16.6093 31.6657 13.921 30.6786 13.09 30.2065L12.3409 30.624L8.36511 33.0079L6.07875 30.7215L8.44705 26.7769L8.92305 26.2892C8.26367 25.2865 7.67062 24.1277 7.33898 22.9416L7.11659 22.2706L2.10298 21.1274V17.889L6.68741 16.7458L7.42092 16.5507C7.42092 16.5507 8.44315 13.8118 8.91524 12.9847L8.52508 12.3565C8.50167 12.3175 8.47826 12.2824 8.45095 12.2472L6.07875 8.29488L8.36511 6.00852L12.3097 8.37682L12.3214 8.38852C12.2355 8.34951 13.0471 8.85282 13.0471 8.85282C13.8781 8.38072 15.6417 7.616 16.582 7.35459L16.8122 6.62108L17.9592 2.02885H21V0Z" fill="#292929"/>
<path fill-rule="evenodd" clip-rule="evenodd" d="M16 10L26 10L26 12L16 12L16 10Z" fill="#292929"/>
<path fill-rule="evenodd" clip-rule="evenodd" d="M8 18L19 18L19 20L8 20L8 18Z" fill="#292929"/>
<path fill-rule="evenodd" clip-rule="evenodd" d="M16 27L26 27L26 29L16 29L16 27Z" fill="#292929"/>
<path fill-rule="evenodd" clip-rule="evenodd" d="M30 11C30 9.89543 29.1046 9 28 9C26.8954 9 26 9.89543 26 11C26 12.1046 26.8954 13 28 13C29.1046 13 30 12.1046 30 11ZM28 7C30.2091 7 32 8.79086 32 11C32 13.2091 30.2091 15 28 15C25.7909 15 24 13.2091 24 11C24 8.79086 25.7909 7 28 7Z" fill="#292929"/>
<path fill-rule="evenodd" clip-rule="evenodd" d="M23 19C23 17.8954 22.1046 17 21 17C19.8954 17 19 17.8954 19 19C19 20.1046 19.8954 21 21 21C22.1046 21 23 20.1046 23 19ZM21 15C23.2091 15 25 16.7909 25 19C25 21.2091 23.2091 23 21 23C18.7909 23 17 21.2091 17 19C17 16.7909 18.7909 15 21 15Z" fill="#292929"/>
<path fill-rule="evenodd" clip-rule="evenodd" d="M30 28C30 26.8954 29.1046 26 28 26C26.8954 26 26 26.8954 26 28C26 29.1046 26.8954 30 28 30C29.1046 30 30 29.1046 30 28ZM28 24C30.2091 24 32 25.7909 32 28C32 30.2091 30.2091 32 28 32C25.7909 32 24 30.2091 24 28C24 25.7909 25.7909 24 28 24Z" fill="#292929"/>
</g>
<defs>
<clipPath id="clip0_1700_15188">
<rect width="39.0164" height="39.0164" fill="white"/>
</clipPath>
</defs>
</svg>
