<svg width="40" height="40" viewBox="0 0 40 40" fill="none" xmlns="http://www.w3.org/2000/svg">
<path d="M17.7814 27.1933C17.6182 27.195 17.4563 27.1637 17.3056 27.1012C17.1549 27.0386 17.0186 26.9462 16.9046 26.8295C16.6723 26.5969 16.5417 26.2815 16.5417 25.9527C16.5417 25.6239 16.6723 25.3087 16.9046 25.0761L21.8671 20.2128L16.9046 15.3495C16.6723 15.1169 16.5417 14.8016 16.5417 14.4728C16.5417 14.144 16.6723 13.8288 16.9046 13.5961C17.1372 13.3638 17.4526 13.2333 17.7814 13.2333C18.1101 13.2333 18.4253 13.3638 18.6579 13.5961L24.4144 19.336C24.6441 19.5705 24.7746 19.8846 24.7785 20.2128C24.7755 20.5461 24.6452 20.8656 24.4144 21.106L18.6579 26.8459C18.4209 27.0696 18.1073 27.194 17.7814 27.1933Z" fill="#292929"/>
</svg>
