<svg width="40" height="40" viewBox="0 0 40 40" fill="none" xmlns="http://www.w3.org/2000/svg">
<g clip-path="url(#clip0_8_1065)">
<path d="M33.841 37.0141H30.8758H23.0725V19.8078H33.841V33.2685L35.9089 34.517V19.8078H39.1082V11.3023H30.0954C31.2269 10.0928 31.9292 8.49309 31.9292 6.73735C31.9292 3.06981 28.9249 0.0655518 25.2574 0.0655518C22.8774 0.0655518 20.8095 1.31408 19.639 3.18686C18.4686 1.31408 16.4007 0.0655518 14.0207 0.0655518C10.3532 0.0655518 7.34889 3.06981 7.34889 6.73735C7.34889 8.49309 8.05118 10.1318 9.18266 11.3023H0.130859V15.6331L2.19873 14.3846V13.4092H14.0207H16.2056V17.74H8.36332H3.3302H2.19873H0.130859V19.8078H3.3302V39.0819H16.1666H23.0725H35.9089V37.0141H33.841ZM16.2056 37.0141H5.43709V19.8078H16.2056V37.0141ZM37.0794 13.3701V17.701H35.9479H23.0725V13.3701H25.2574H37.0794ZM14.0207 11.3023C11.4846 11.3023 9.45577 9.2344 9.45577 6.73735C9.45577 4.2403 11.4846 2.13342 14.0207 2.13342C16.5568 2.13342 18.5856 4.20129 18.5856 6.69834V11.2633H16.1666H14.0207V11.3023ZM21.0046 37.0141H18.2735V19.8078H21.0046V37.0141ZM21.0046 17.74H18.2735V13.3701H18.5856H20.6535H20.9656V17.74H21.0046ZM20.6925 11.3023V6.73735C20.6925 4.20129 22.7604 2.17244 25.2574 2.17244C27.7935 2.17244 29.8223 4.2403 29.8223 6.73735C29.8223 9.2344 27.7545 11.3023 25.2574 11.3023H23.0725H20.6925Z" fill="#292929"/>
</g>
<defs>
<clipPath id="clip0_8_1065">
<rect width="39.0164" height="39.0164" fill="white" transform="translate(0.130859 0.0655518)"/>
</clipPath>
</defs>
</svg>
