<svg xmlns="http://www.w3.org/2000/svg" width="61" height="60" viewBox="0 0 61 60" fill="none">
  <mask id="mask0_47269_7791" style="mask-type:luminance" maskUnits="userSpaceOnUse" x="0" y="0" width="61" height="61">
    <path d="M0.398926 0.000492629H60.3989V60.0005H0.398926V0.000492629Z" fill="white"/>
  </mask>
  <g mask="url(#mask0_47269_7791)">
    <path fill-rule="evenodd" clip-rule="evenodd" d="M0.398438 58.8286C0.398438 59.4758 0.923104 60.0004 1.57031 60.0004H19.6443C20.2915 60.0004 20.8161 59.4758 20.8161 58.8286V36.3077C20.8161 35.6605 20.2915 35.1358 19.6443 35.1358H1.57031C0.923104 35.1358 0.398438 35.6605 0.398438 36.3077V58.8286ZM2.74219 57.6567V37.4796H18.4724V57.6567H2.74219Z" fill="#292929"/>
  </g>
  <path fill-rule="evenodd" clip-rule="evenodd" d="M4.50098 36.3074C4.50098 36.9546 5.02564 37.4793 5.67285 37.4793H19.6452C20.2924 37.4793 20.8171 36.9546 20.8171 36.3074V31.1512C20.8171 30.504 20.2924 29.9793 19.6452 29.9793H5.67285C5.02564 29.9793 4.50098 30.504 4.50098 31.1512V36.3074ZM6.84473 35.1356V32.3231H18.4734V35.1356H6.84473Z" fill="#292929"/>
  <path fill-rule="evenodd" clip-rule="evenodd" d="M43.0708 40.3126C43.0708 40.9598 43.5955 41.4845 44.2427 41.4845H53.6955C54.3427 41.4845 54.8674 40.9598 54.8674 40.3126V26.0157C54.8674 25.3685 54.3427 24.8439 53.6955 24.8439H44.2427C43.5955 24.8439 43.0708 25.3685 43.0708 26.0157V40.3126ZM45.4146 39.1407V27.1876H52.5236V39.1407H45.4146Z" fill="#292929"/>
  <mask id="mask1_47269_7791" style="mask-type:luminance" maskUnits="userSpaceOnUse" x="0" y="0" width="61" height="61">
    <path d="M0.398926 0.000492629H60.3989V60.0005H0.398926V0.000492629Z" fill="white"/>
  </mask>
  <g mask="url(#mask1_47269_7791)">
    <path fill-rule="evenodd" clip-rule="evenodd" d="M30.4136 14.4819C31.0608 14.4819 31.5854 13.9572 31.5854 13.31V1.1723C31.5854 0.525094 31.0608 0.000427558 30.4136 0.000427558C29.7664 0.000427558 29.2417 0.525094 29.2417 1.1723V13.31C29.2417 13.9572 29.7664 14.4819 30.4136 14.4819Z" fill="#292929"/>
    <path fill-rule="evenodd" clip-rule="evenodd" d="M39.5391 58.8285C39.5391 59.4757 40.0637 60.0004 40.7109 60.0004H59.2266C59.8738 60.0004 60.3984 59.4757 60.3984 58.8285V40.3129C60.3984 39.6657 59.8738 39.141 59.2266 39.141H40.7109C40.0637 39.141 39.5391 39.6657 39.5391 40.3129V58.8285ZM41.8828 57.6566V41.4847H58.0547V57.6566H41.8828Z" fill="#292929"/>
  </g>
  <path fill-rule="evenodd" clip-rule="evenodd" d="M18.4741 29.1874C18.4741 29.8346 18.9988 30.3593 19.646 30.3593H25.9741C26.6213 30.3593 27.146 29.8346 27.146 29.1874C27.146 28.5402 26.6213 28.0156 25.9741 28.0156H19.646C18.9988 28.0156 18.4741 28.5402 18.4741 29.1874Z" fill="#292929"/>
  <path fill-rule="evenodd" clip-rule="evenodd" d="M18.4741 35.2187C18.4741 35.866 18.9988 36.3906 19.646 36.3906H25.9741C26.6213 36.3906 27.146 35.866 27.146 35.2187C27.146 34.5715 26.6213 34.0469 25.9741 34.0469H19.646C18.9988 34.0469 18.4741 34.5715 18.4741 35.2187Z" fill="#292929"/>
  <path fill-rule="evenodd" clip-rule="evenodd" d="M18.4741 41.2501C18.4741 41.8973 18.9988 42.422 19.646 42.422H25.9741C26.6213 42.422 27.146 41.8973 27.146 41.2501C27.146 40.6029 26.6213 40.0782 25.9741 40.0782H19.646C18.9988 40.0782 18.4741 40.6029 18.4741 41.2501Z" fill="#292929"/>
  <path fill-rule="evenodd" clip-rule="evenodd" d="M18.4741 47.2818C18.4741 47.929 18.9988 48.4537 19.646 48.4537H25.9741C26.6213 48.4537 27.146 47.929 27.146 47.2818C27.146 46.6346 26.6213 46.1099 25.9741 46.1099H19.646C18.9988 46.1099 18.4741 46.6346 18.4741 47.2818Z" fill="#292929"/>
  <path fill-rule="evenodd" clip-rule="evenodd" d="M18.4741 53.3131C18.4741 53.9603 18.9988 54.485 19.646 54.485H25.9741C26.6213 54.485 27.146 53.9603 27.146 53.3131C27.146 52.6659 26.6213 52.1412 25.9741 52.1412H19.646C18.9988 52.1412 18.4741 52.6659 18.4741 53.3131Z" fill="#292929"/>
  <mask id="mask2_47269_7791" style="mask-type:luminance" maskUnits="userSpaceOnUse" x="0" y="0" width="61" height="61">
    <path d="M0.398926 0.000492629H60.3989V60.0005H0.398926V0.000492629Z" fill="white"/>
  </mask>
  <g mask="url(#mask2_47269_7791)">
    <path fill-rule="evenodd" clip-rule="evenodd" d="M18.4736 58.8285C18.4736 59.4757 18.9983 60.0004 19.6455 60.0004H32.3018C32.949 60.0004 33.4736 59.4757 33.4736 58.8285V46.5238C33.4736 45.8766 32.949 45.3519 32.3018 45.3519C31.6545 45.3519 31.1299 45.8766 31.1299 46.5238V57.6566H20.8174V24.8441H31.1299V35.9769C31.1299 36.6241 31.6545 37.1488 32.3018 37.1488C32.949 37.1488 33.4736 36.6241 33.4736 35.9769V23.6722C33.4736 23.025 32.949 22.5004 32.3018 22.5004H19.6455C18.9983 22.5004 18.4736 23.025 18.4736 23.6722V58.8285Z" fill="#292929"/>
  </g>
  <path fill-rule="evenodd" clip-rule="evenodd" d="M48.9844 41.0151C49.6316 41.0151 50.1563 40.4905 50.1563 39.8433V26.016C50.1563 25.3687 49.6316 24.8441 48.9844 24.8441C48.3372 24.8441 47.8125 25.3687 47.8125 26.016V39.8433C47.8125 40.4905 48.3372 41.0151 48.9844 41.0151Z" fill="#292929"/>
  <mask id="mask3_47269_7791" style="mask-type:luminance" maskUnits="userSpaceOnUse" x="0" y="0" width="61" height="61">
    <path d="M0.398926 0.000492629H60.3989V60.0005H0.398926V0.000492629Z" fill="white"/>
  </mask>
  <g mask="url(#mask3_47269_7791)">
    <path fill-rule="evenodd" clip-rule="evenodd" d="M6.46286 20.1823C6.92051 20.6399 7.6625 20.6399 8.12014 20.1823C9.49309 18.8093 11.7191 18.8093 13.092 20.1823C13.5497 20.6399 14.2917 20.6399 14.7493 20.1823C15.207 19.7246 15.207 18.9826 14.7493 18.525C12.4611 16.2368 8.75109 16.2368 6.46286 18.525C6.00522 18.9826 6.00522 19.7246 6.46286 20.1823Z" fill="#292929"/>
    <path fill-rule="evenodd" clip-rule="evenodd" d="M3.14841 16.8678C3.60606 17.3254 4.34805 17.3254 4.80569 16.8678C8.00923 13.6642 13.2032 13.6642 16.4066 16.8678C16.8643 17.3254 17.6063 17.3254 18.0639 16.8678C18.5216 16.4101 18.5216 15.6681 18.0639 15.2105C13.9452 11.0917 7.26722 11.0917 3.14841 15.2105C2.69076 15.6681 2.69076 16.4101 3.14841 16.8678Z" fill="#292929"/>
    <path fill-rule="evenodd" clip-rule="evenodd" d="M9.42236 22.6683C9.42236 23.3155 9.94703 23.8402 10.5942 23.8402H10.6062C11.2534 23.8402 11.7781 23.3155 11.7781 22.6683C11.7781 22.0211 11.2534 21.4965 10.6062 21.4965H10.5942C9.94703 21.4965 9.42236 22.0211 9.42236 22.6683Z" fill="#292929"/>
    <path fill-rule="evenodd" clip-rule="evenodd" d="M48.4551 11.7863C48.9127 12.244 49.6547 12.244 50.1123 11.7863C51.4853 10.4134 53.7112 10.4134 55.0841 11.7863C55.5418 12.244 56.2837 12.244 56.7414 11.7863C57.199 11.3287 57.199 10.5867 56.7414 10.1291C54.4532 7.84083 50.7433 7.84083 48.4551 10.1291C47.9974 10.5867 47.9974 11.3287 48.4551 11.7863Z" fill="#292929"/>
    <path fill-rule="evenodd" clip-rule="evenodd" d="M45.1406 8.47206C45.5982 8.92971 46.3402 8.92972 46.7979 8.47209C50.0014 5.26865 55.1954 5.26867 58.3988 8.47207C58.8565 8.92972 59.5985 8.92972 60.0561 8.47207C60.5138 8.01443 60.5138 7.27244 60.0561 6.81479C55.9374 2.69608 49.2594 2.6961 45.1406 6.81478C44.683 7.27242 44.6829 8.01441 45.1406 8.47206Z" fill="#292929"/>
    <path fill-rule="evenodd" clip-rule="evenodd" d="M51.4146 14.2724C51.4146 14.9196 51.9392 15.4443 52.5864 15.4443H52.5984C53.2456 15.4443 53.7703 14.9196 53.7703 14.2724C53.7703 13.6252 53.2456 13.1005 52.5984 13.1005H52.5864C51.9392 13.1005 51.4146 13.6252 51.4146 14.2724Z" fill="#292929"/>
    <path fill-rule="evenodd" clip-rule="evenodd" d="M29.2422 58.8286C29.2422 59.4758 29.7669 60.0004 30.4141 60.0004H44.2422C44.8894 60.0004 45.4141 59.4758 45.4141 58.8286C45.4141 58.1813 44.8894 57.6567 44.2422 57.6567H30.4141C29.7669 57.6567 29.2422 58.1813 29.2422 58.8286Z" fill="#292929"/>
    <path fill-rule="evenodd" clip-rule="evenodd" d="M44.2422 41.485C44.8894 41.485 45.4141 40.9603 45.4141 40.3131V15.1948C45.4141 14.6991 45.1022 14.257 44.6352 14.0908L30.8071 9.16763C30.4483 9.03988 30.0498 9.09449 29.7385 9.31405C29.4273 9.53362 29.2422 9.89074 29.2422 10.2716V23.6725C29.2422 24.3197 29.7669 24.8444 30.4141 24.8444C31.0613 24.8444 31.5859 24.3197 31.5859 23.6725V11.9328L43.0703 16.0215V40.3131C43.0703 40.9603 43.595 41.485 44.2422 41.485Z" fill="#292929"/>
  </g>
</svg>