<svg width="40" height="40" viewBox="0 0 40 40" fill="none" xmlns="http://www.w3.org/2000/svg">
<g clip-path="url(#clip0_8_1067)">
<path d="M32.7222 39.0819L26.7917 33.1515L21.6805 38.2626L11.8484 11.8485L38.2625 21.6806L33.1513 26.7918L39.0818 32.7223L37.6772 34.1269L30.3422 26.7918L34.673 22.461L15.2428 15.2039L22.4608 34.6731L26.7917 30.3423L32.7222 36.2728L33.4635 35.5315L36.1556 35.6485L32.7222 39.0819Z" fill="#292929"/>
<path d="M17.4276 9.78063L15.4768 8.72719V0.0655518L17.4276 1.15801V9.78063Z" fill="#292929"/>
<path d="M9.78051 17.4278L8.72707 15.438H0.0654297L1.15789 17.4278H9.78051Z" fill="#292929"/>
<path d="M3.84988 2.40683L2.44287 3.81384L8.56751 9.93849L9.97453 8.53147L3.84988 2.40683Z" fill="#292929"/>
</g>
<defs>
<clipPath id="clip0_8_1067">
<rect width="39.0164" height="39.0164" fill="white" transform="translate(0.0654297 0.0655518)"/>
</clipPath>
</defs>
</svg>
