<svg width="40" height="40" viewBox="0 0 40 40" fill="none" xmlns="http://www.w3.org/2000/svg">
<g clip-path="url(#clip0_8_1054)">
<path d="M39.0174 20.1973C39.0252 19.9866 39.033 19.772 39.033 19.5574C39.033 8.80057 30.2816 0.0491943 19.5248 0.0491943C8.76798 0.0491943 0.0166016 8.80057 0.0166016 19.5574C0.0166016 19.772 0.0244048 19.9866 0.0322081 20.1973C0.0244048 20.2519 0.0166016 20.3065 0.0166016 20.3611C0.0166016 20.4392 0.0283065 20.5133 0.043913 20.5874C0.582339 30.8682 9.11522 39.0656 19.5248 39.0656C29.9344 39.0656 38.4672 30.8682 39.0057 20.5874C39.0213 20.5133 39.033 20.4392 39.033 20.3611C39.033 20.3065 39.0252 20.2519 39.0174 20.1973ZM34.4642 28.6209C33.0986 28.18 30.8278 27.8523 28.1162 27.6338C28.7288 25.683 29.1618 23.5722 29.3179 21.3716H36.9105C36.6335 24.0053 35.7751 26.4672 34.4642 28.6209ZM19.5248 37.0367C18.5416 37.0367 15.7558 34.0832 13.7894 29.4871C17.4413 29.3271 21.6122 29.3271 25.2641 29.4871C23.2938 34.0832 20.508 37.0367 19.5248 37.0367ZM13.0325 27.4972C12.4043 25.6361 11.9361 23.5722 11.7683 21.3755H27.2852C27.1135 23.5722 26.6492 25.6322 26.021 27.4972C21.9087 27.2709 17.1409 27.2709 13.0325 27.4972ZM2.14299 21.3755H9.73168C9.88775 23.5761 10.3247 25.6869 10.9334 27.6377C8.22175 27.8523 5.94709 28.18 4.58542 28.6248C3.27447 26.4672 2.41611 24.0053 2.14299 21.3755ZM3.92604 11.6878C5.34624 12.1521 7.72624 12.4993 10.5744 12.7256C10.0243 14.8052 9.68876 17.0408 9.66926 19.3467H2.05326C2.08447 16.5921 2.75555 13.9936 3.92604 11.6878ZM19.5248 2.07805C20.5977 2.07805 23.7971 5.57782 25.7596 10.884C21.8112 11.0635 17.2384 11.0635 13.29 10.884C15.2525 5.57782 18.4518 2.07805 19.5248 2.07805ZM19.5248 13.0456C21.8775 13.0456 24.2302 12.9831 26.4034 12.8622C26.9652 14.852 27.3281 17.0369 27.3476 19.3428H11.6981C11.7176 17.033 12.0805 14.852 12.6423 12.8622C14.8194 12.9831 17.1721 13.0456 19.5248 13.0456ZM29.3803 19.3467C29.3608 17.0408 29.0214 14.8052 28.4752 12.7256C31.3233 12.4993 33.7034 12.156 35.1235 11.6878C36.294 13.9936 36.9651 16.596 36.9963 19.3467H29.3803ZM34.1013 9.92814C32.8177 10.3066 30.582 10.5836 27.8821 10.767C26.696 7.30624 24.9715 4.39952 23.2743 2.49162C27.7729 3.47483 31.6316 6.20208 34.1013 9.92814ZM15.7792 2.48772C14.082 4.39562 12.3575 7.30234 11.1714 10.7631C8.47145 10.5797 6.23191 10.3027 4.95217 9.92424C7.41801 6.20208 11.2767 3.47483 15.7792 2.48772ZM5.79493 30.3532C7.07857 30.0177 9.15814 29.768 11.6318 29.6041C12.7828 32.5147 14.2927 34.9533 15.7792 36.6271C11.7566 35.7453 8.25686 33.4784 5.79493 30.3532ZM23.2704 36.6271C24.7569 34.9533 26.2707 32.5147 27.4178 29.6041C29.8875 29.768 31.9671 30.0177 33.2547 30.3532C30.7927 33.4784 27.293 35.7453 23.2704 36.6271Z" fill="#292929"/>
</g>
<defs>
<clipPath id="clip0_8_1054">
<rect width="39.0164" height="39.0164" fill="white" transform="translate(0.0166016 0.0491943)"/>
</clipPath>
</defs>
</svg>
