<svg xmlns="http://www.w3.org/2000/svg" width="24" height="26" viewBox="0 0 24 26" fill="none">
  <path d="M8.28313 4.76562H16.7178C19.6659 4.76562 21.5 6.84681 21.5 9.792V17.7392C21.5 20.6844 19.6659 22.7656 16.7169 22.7656H8.28313C5.33503 22.7656 3.5 20.6844 3.5 17.7392V9.792C3.5 6.84681 5.34378 4.76562 8.28313 4.76562Z" stroke="#292929" stroke-linecap="round" stroke-linejoin="round"/>
  <path d="M13.1387 16.75C13.8684 17.0419 14.2907 17.0837 15.1274 17.0837C15.6139 17.0837 16.2989 16.8638 16.7562 16.7665" stroke="#292929" stroke-linecap="round" stroke-linejoin="round"/>
  <path d="M12.5078 17.9891L14.9568 13.1914L17.4067 17.9891" stroke="#292929" stroke-linecap="round" stroke-linejoin="round"/>
  <path d="M9.30859 12.3359C9.54113 13.2914 9.98676 14.1612 10.5871 14.891C10.7934 15.1391 11.0201 15.3726 11.2623 15.5896" stroke="#292929" stroke-linecap="round" stroke-linejoin="round"/>
  <path d="M12.9151 10.4102C12.9734 10.5328 12.6747 14.8557 7.89355 16.319" stroke="#292929" stroke-linecap="round" stroke-linejoin="round"/>
  <path d="M7.59375 10.4102H14.5427" stroke="#292929" stroke-linecap="round" stroke-linejoin="round"/>
  <path d="M10.8887 9.54297V10.4079" stroke="#292929" stroke-linecap="round" stroke-linejoin="round"/>
</svg>