<svg width="40" height="40" viewBox="0 0 40 40" fill="none" xmlns="http://www.w3.org/2000/svg">
<g clip-path="url(#clip0_8_1081)">
<path d="M32.0057 37.0469H3.54712V11.8033H13.1881V2.16626H32.0057V12.7982L18.3655 26.4344L16.1572 31.292L18.3772 33.512L23.2348 31.3037L37.7294 16.8091L34.0696 13.1494V0.0983887H11.725L1.48315 10.3402V39.1148H34.0735V24.7333L32.0057 26.7934V37.0469ZM20.687 27.0353L30.1875 17.5387L32.1383 19.4817L22.63 28.99L20.687 27.0353ZM19.5516 28.8223L20.8431 30.1215L18.4709 31.2022L19.5516 28.8223ZM33.6014 18.0186L31.6506 16.0756L32.864 14.8622L34.8109 16.8091L33.6014 18.0186ZM11.1202 3.62547V9.73934H5.01024L11.1202 3.62547Z" fill="#292929"/>
</g>
<defs>
<clipPath id="clip0_8_1081">
<rect width="39.0164" height="39.0164" fill="white" transform="translate(0.0981445 0.0983887)"/>
</clipPath>
</defs>
</svg>
