<svg width="40" height="40" viewBox="0 0 40 40" fill="none" xmlns="http://www.w3.org/2000/svg">
<g clip-path="url(#clip0_8_1096)">
<path d="M27.7661 23.7758C26.6776 22.6872 25.4095 21.8367 23.9971 21.2592C21.1801 20.0887 17.9652 20.0809 15.1131 21.2592C13.6968 21.8445 12.4288 22.6911 11.3402 23.7797C10.2517 24.8682 9.405 26.1363 8.82366 27.5487C8.23841 28.961 7.93799 30.4554 7.93799 31.9926V32.1877H9.31527V31.9926C9.31527 30.6388 9.57668 29.3239 10.0956 28.0754C10.6145 26.823 11.3597 25.7071 12.3117 24.7551C13.2637 23.8031 14.3835 23.054 15.632 22.539C18.1252 21.5011 20.9734 21.5011 23.4665 22.539C24.715 23.0579 25.8348 23.8031 26.7868 24.7551C27.7388 25.7071 28.4879 26.8269 29.0068 28.0754C29.5258 29.32 29.7872 30.6388 29.7872 31.9926V32.1877H31.1644V31.9926C31.1644 30.4632 30.864 28.965 30.2749 27.5448C29.6974 26.1246 28.8508 24.8565 27.7661 23.7758Z" fill="#292929"/>
<path d="M19.5608 19.2694C22.9514 19.2694 25.7098 16.5109 25.7098 13.1204C25.7098 9.72989 22.9514 6.96753 19.5608 6.96753C16.1703 6.96753 13.4119 9.72599 13.4119 13.1165C13.4119 16.507 16.1703 19.2694 19.5608 19.2694ZM14.7891 13.1204C14.7891 10.4907 16.9311 8.34871 19.5608 8.34871C22.1905 8.34871 24.3326 10.4907 24.3326 13.1204C24.3326 15.7501 22.1905 17.8921 19.5608 17.8921C16.9311 17.8882 14.7891 15.7501 14.7891 13.1204Z" fill="#292929"/>
<path d="M24.8242 8.94176L24.9256 9.07442L25.07 8.99248C25.7996 8.57111 26.6228 8.34871 27.45 8.34871C30.0797 8.34871 32.2217 10.4907 32.2217 13.1204C32.2217 15.7501 30.0797 17.8921 27.45 17.8921C26.6228 17.8921 25.7996 17.6697 25.07 17.2484L24.9256 17.1664L24.8203 17.2952C24.6096 17.5605 24.3872 17.8024 24.157 18.0209L23.9736 18.1925L24.1843 18.3252C25.1636 18.9456 26.2951 19.2694 27.4461 19.2694C30.8366 19.2694 33.5951 16.5109 33.5951 13.1204C33.5951 9.72989 30.8366 6.97144 27.4461 6.97144C26.2951 6.97144 25.1636 7.29917 24.1804 7.91953L23.9658 8.05219L24.1492 8.22386C24.4067 8.45016 24.6291 8.69206 24.8242 8.94176Z" fill="#292929"/>
<path d="M11.6641 19.2694C12.8151 19.2694 13.9427 18.9417 14.9259 18.3252L15.1366 18.1925L14.9532 18.0209C14.7113 17.7946 14.4889 17.5488 14.2899 17.2991L14.1885 17.1664L14.0441 17.2484C13.3145 17.6697 12.4913 17.8921 11.6641 17.8921C9.03442 17.8921 6.89242 15.7501 6.89242 13.1204C6.89242 10.4907 9.03442 8.34871 11.6641 8.34871C12.4913 8.34871 13.3145 8.57111 14.0441 8.99248L14.1885 9.07442L14.2938 8.94566C14.4889 8.69986 14.7113 8.45796 14.961 8.22386L15.1444 8.05219L14.9337 7.91953C13.9466 7.29917 12.819 6.97144 11.668 6.97144C8.2775 6.97144 5.51904 9.72989 5.51904 13.1204C5.51904 16.5109 8.2736 19.2694 11.6641 19.2694Z" fill="#292929"/>
<path d="M38.1756 27.5409C37.5942 26.1285 36.7476 24.8644 35.659 23.7758C34.5744 22.6912 33.3102 21.8445 31.89 21.2593C29.6895 20.3502 27.2978 20.1278 24.9178 20.6584L24.3794 20.7794L24.8749 21.0213C25.3509 21.2554 25.8035 21.5129 26.2249 21.786L26.2834 21.825L26.3536 21.8172C26.7477 21.7782 27.1066 21.7548 27.45 21.7548C28.8039 21.7548 30.1187 22.0162 31.3672 22.5351C32.6158 23.054 33.7355 23.7992 34.6875 24.7512C35.6395 25.7032 36.3847 26.823 36.9076 28.0715C37.4265 29.3161 37.6879 30.6349 37.6879 31.9888V32.1838H39.0652V31.9888C39.0652 30.4476 38.7647 28.9533 38.1756 27.5409Z" fill="#292929"/>
<path d="M12.7565 21.8133L12.8228 21.8211L12.8813 21.7821C13.3261 21.4934 13.767 21.2437 14.2352 21.0174L14.7346 20.7755L14.1923 20.6545C11.8045 20.1239 9.40106 20.3502 7.22004 21.2554C5.80374 21.8367 4.53571 22.6873 3.44716 23.7719C2.3664 24.8527 1.51584 26.1207 0.930598 27.5409C0.345353 28.9572 0.0488281 30.4515 0.0488281 31.9849V32.1799H1.42611V31.9849C1.42611 30.631 1.68752 29.3161 2.20643 28.0676C2.72535 26.8152 3.47057 25.6993 4.42256 24.7473C5.37456 23.7953 6.49433 23.0462 7.74286 22.5312C8.99138 22.0162 10.3101 21.7548 11.6562 21.7548C12.0034 21.7509 12.3624 21.7743 12.7565 21.8133Z" fill="#292929"/>
</g>
<defs>
<clipPath id="clip0_8_1096">
<rect width="39.0164" height="39.0164" fill="white" transform="translate(0.0488281 0.0655518)"/>
</clipPath>
</defs>
</svg>
