<svg width="40" height="40" viewBox="0 0 40 40" fill="none" xmlns="http://www.w3.org/2000/svg">
<path d="M19.5629 13.5652C8.21696 13.5652 2.25526 24.5015 2.00555 24.9697L1.74805 25.4535L2.00555 25.9373C2.25526 26.4016 8.21696 37.3418 19.5629 37.3418C30.9089 37.3418 36.8706 26.4055 37.1203 25.9373L37.3778 25.4535L37.1203 24.9697C36.8706 24.5054 30.9089 13.5652 19.5629 13.5652ZM19.5629 35.2856C10.7374 35.2856 5.35316 27.4862 4.09683 25.4496C5.35316 23.409 10.7374 15.6135 19.5629 15.6135C28.3884 15.6135 33.7688 23.409 35.029 25.4496C33.7688 27.4901 28.3845 35.2856 19.5629 35.2856Z" fill="#292929"/>
<path d="M19.5629 17.9116C15.4037 17.9116 12.021 21.2943 12.021 25.4535C12.021 29.6126 15.4037 32.9954 19.5629 32.9954C23.722 32.9954 27.1047 29.6126 27.1047 25.4535C27.1047 21.2943 23.722 17.9116 19.5629 17.9116ZM19.5629 30.9431C16.5352 30.9431 14.0694 28.4812 14.0694 25.4496C14.0694 22.418 16.5313 19.9561 19.5629 19.9561C22.5944 19.9561 25.0564 22.418 25.0564 25.4496C25.0564 28.4812 22.5905 30.9431 19.5629 30.9431Z" fill="#292929"/>
<path d="M20.5852 1.80957H18.5369V9.2695H20.5852V1.80957Z" fill="#292929"/>
<path d="M38.923 8.36823L36.6913 7.70496L31.4163 12.9761L33.6519 13.6393L38.923 8.36823Z" fill="#292929"/>
<path d="M7.6005 12.8512L2.32549 7.58008L0.09375 8.24336L5.36486 13.5184L7.6005 12.8512Z" fill="#292929"/>
</svg>
