<svg width="40" height="40" viewBox="0 0 40 40" fill="none" xmlns="http://www.w3.org/2000/svg">
<g clip-path="url(#clip0_8_1045)">
<path d="M26.4434 23.5674L23.5835 26.0801C17.4541 21.2186 15.3901 13.6455 14.84 11.0197L18.0003 9.56832L16.5372 0.0483214L5.32388 0.0327148L5.30047 1.07055C4.98053 16.3299 10.9227 25.7562 15.9597 30.9766C21.4337 36.6496 26.9429 38.6745 27.177 38.7604L27.9729 39.0452L33.9892 29.6227L26.4434 23.5674ZM14.719 2.15911L15.6632 8.30809L12.4873 9.7673L12.5965 10.5476C12.6629 11.0119 14.3094 21.9989 23.01 28.3001L23.6967 28.7956L26.5059 26.3298L31.1839 30.0831L27.1223 36.4428C23.2324 34.6715 7.36053 25.9786 7.40735 2.1513L14.719 2.15911Z" fill="#292929"/>
</g>
<defs>
<clipPath id="clip0_8_1045">
<rect width="39.0164" height="39.0164" fill="white" transform="translate(0.130859 0.0327148)"/>
</clipPath>
</defs>
</svg>
