<svg width="40" height="40" viewBox="0 0 40 40" fill="none" xmlns="http://www.w3.org/2000/svg">
<g clip-path="url(#clip0_8_1043)">
<path d="M30.6524 22.7278C30.6524 22.7395 30.6524 22.7512 30.6524 22.759C30.6524 30.6949 24.1952 37.1482 16.2631 37.1482C8.33111 37.1482 1.86999 30.6949 1.86999 22.759C1.86999 14.8504 8.28429 8.41267 16.1851 8.36975V6.61401C7.30107 6.65693 0.114258 13.8672 0.114258 22.759C0.114258 31.6781 7.34399 38.9079 16.2631 38.9079C25.1823 38.9079 32.412 31.6781 32.412 22.759C32.412 22.7473 32.412 22.7356 32.412 22.7278H30.6524Z" fill="#292929"/>
<path d="M8.98254 22.759C8.98254 18.7715 12.2053 15.5253 16.185 15.4824V13.7267C11.2299 13.7696 7.22681 17.7961 7.22681 22.759C7.22681 27.7492 11.2728 31.7952 16.263 31.7952C21.2532 31.7952 25.2992 27.7492 25.2992 22.759C25.2992 22.7473 25.2992 22.7356 25.2992 22.7278H23.5435C23.5435 22.7395 23.5435 22.7512 23.5435 22.759C23.5435 26.7738 20.2778 30.0394 16.263 30.0394C12.2482 30.0394 8.98254 26.7738 8.98254 22.759Z" fill="#292929"/>
<path d="M27.1252 12.7396H31.2882L39.1305 5.16655L33.1883 5.43186L33.1376 0.141235L25.8844 7.33586V11.4989L16.5166 20.8667V23.3443L27.1252 12.7396ZM27.6363 8.06156L31.4365 4.26137V7.18759H34.3627L30.5625 10.9878H27.6363V8.06156Z" fill="#292929"/>
</g>
<defs>
<clipPath id="clip0_8_1043">
<rect width="39.0164" height="39.0164" fill="white" transform="translate(0.114258 0.0163574)"/>
</clipPath>
</defs>
</svg>
