<svg width="40" height="40" viewBox="0 0 40 40" fill="none" xmlns="http://www.w3.org/2000/svg">
<g clip-path="url(#clip0_8_1087)">
<path d="M22.7896 39.0983H16.3909L14.9863 33.5189C14.284 33.2849 13.5037 32.9337 13.0355 32.6996L8.08039 35.6648L3.51547 31.0999L6.48072 26.1449C6.24662 25.6376 5.89547 24.8573 5.66137 24.194L0.0820312 22.7894V16.3908L5.66137 14.9862C5.89547 14.2839 6.24662 13.5035 6.48072 13.0353L3.51547 8.08027L8.08039 3.51535L13.0355 6.4806C13.5427 6.2465 14.323 5.89535 14.9863 5.66125L16.3909 0.0819092H22.8286L24.2332 5.66125C24.9355 5.89535 25.7158 6.2465 26.184 6.4806L31.1391 3.51535L35.704 8.08027L32.7387 12.9963C33.0509 13.6206 33.363 14.3229 33.5581 14.9862L39.1374 16.3908V22.8285L33.5581 24.2331C33.324 24.9353 33.0509 25.5986 32.7387 26.2229L35.704 31.139L31.1001 35.6648L26.145 32.6996C25.6378 32.9337 24.8574 33.2849 24.1942 33.5189L22.7896 39.0983ZM17.9906 37.0304H21.1899L22.4774 31.8803L23.0627 31.7242C23.843 31.4901 25.2866 30.8268 25.7938 30.5927L26.301 30.3586L30.8269 33.0898L33.0899 30.8268L30.3587 26.2619L30.6709 25.7547C31.1391 24.9353 31.5292 24.038 31.7633 23.1016L31.9194 22.5163L37.0696 21.2288V18.0294L31.9194 16.7419L31.7633 16.1567C31.4902 15.2203 31.1391 14.3229 30.6709 13.5035L30.3197 12.9573L33.0509 8.3924L30.7879 6.12945L26.262 8.8606L25.7548 8.6265C25.2476 8.3924 23.804 7.72912 23.0237 7.49502L22.4384 7.33896L21.1899 2.14978H17.9906L16.703 7.29994L16.1178 7.45601C15.3374 7.6901 13.8938 8.35338 13.3866 8.58748L12.8794 8.82158L8.3535 6.09043L6.09055 8.35338L8.8217 12.8793L8.5876 13.3865C8.3535 13.8937 7.69023 15.3373 7.45613 16.1176L7.30006 16.7029L2.1499 17.9904V21.1898L7.30006 22.4773L7.45613 23.0626C7.69023 23.8429 8.3535 25.2865 8.5876 25.7937L8.8217 26.3009L6.09055 30.8268L8.3535 33.0898L12.8794 30.3586L13.3866 30.5927C13.8938 30.8268 15.3374 31.4901 16.1178 31.7242L16.703 31.8803L17.9906 37.0304Z" fill="#292929"/>
<path d="M13.5038 23.0235C12.9186 22.0091 12.6064 20.8386 12.6064 19.5901C12.6064 15.7274 15.7278 12.6061 19.5904 12.6061C20.995 12.6061 22.2825 13.0353 23.375 13.7376L24.8966 12.294C23.414 11.2015 21.5802 10.5773 19.5904 10.5773C14.5963 10.5773 10.5386 14.635 10.5386 19.6291C10.5386 21.4238 11.0848 23.1015 11.9822 24.5451L13.5038 23.0235Z" fill="#292929"/>
<path d="M25.794 16.3516C26.3012 17.3271 26.6133 18.4195 26.6133 19.59C26.6133 23.4526 23.492 26.5739 19.6294 26.5739C18.3029 26.5739 17.0933 26.2228 16.0399 25.5595L14.4792 27.0421C15.9229 28.0566 17.7176 28.6418 19.6294 28.6418C24.6235 28.6418 28.6812 24.5841 28.6812 19.59C28.6812 17.8733 28.213 16.2346 27.3547 14.869L25.794 16.3516Z" fill="#292929"/>
</g>
<defs>
<clipPath id="clip0_8_1087">
<rect width="39.0164" height="39.0164" fill="white" transform="translate(0.0820312 0.0819092)"/>
</clipPath>
</defs>
</svg>
