<svg width="40" height="40" viewBox="0 0 40 40" fill="none" xmlns="http://www.w3.org/2000/svg">
<g clip-path="url(#clip0_8_1056)">
<path d="M33.5163 14.9613C33.29 14.2668 33.0091 13.5918 32.6813 12.948L35.2252 8.71083L35.6505 8.04755L31.1246 3.66211L30.5042 4.00546L26.1812 6.45178C25.5374 6.12404 24.8664 5.84313 24.168 5.61683L22.9741 0.817817C22.9741 0.856833 22.7712 0.0491943 22.7712 0.0491943H16.3647L16.1774 0.817817L14.9835 5.61683C14.289 5.84313 13.614 6.12404 12.9703 6.45178L8.72918 3.90401L8.02689 3.51775L3.5244 8.09437L3.92626 8.71083L6.47403 12.9519C6.1463 13.5957 5.86538 14.2668 5.63908 14.9652L0.0675439 16.3502L-0.00268555 22.7138L0.836167 22.9518L5.63518 24.1457C5.86148 24.8402 6.1424 25.5152 6.47013 26.159L3.39564 30.9346L4.07843 31.6447L7.48846 35.0547L7.97617 35.5619L12.9664 32.6591C13.6101 32.9868 14.2812 33.2677 14.9796 33.494L16.1735 38.293C16.1267 38.2462 16.3686 39.0617 16.3686 39.0617L22.7712 39.0539C22.8258 39.0539 22.9702 38.293 22.9702 38.293L24.1641 33.494C24.8586 33.2677 25.5335 32.9868 26.1773 32.6591L30.4184 35.2069L31.1051 35.6087L35.0691 31.6447L35.7324 30.9112L32.6774 26.1629C33.0052 25.5191 33.2861 24.848 33.5124 24.1496L38.3114 22.9557L39.08 22.7411V16.3502L33.5163 14.9613ZM37.0512 21.1766L32.4667 22.3197L31.862 22.4563C31.5967 23.3966 30.7422 25.2226 30.2701 26.0536C30.2701 26.0536 30.711 26.8691 30.6915 26.7949L33.0793 30.7707L30.7929 33.0571L26.8484 30.6888L26.2124 30.3064C25.2097 30.9658 23.6725 31.3833 22.4864 31.7149C22.4864 31.7149 22.3537 32.5459 22.342 32.4484L21.1988 37.0328H17.9605L16.8173 32.4484C16.829 32.5264 16.6066 31.7149 16.6066 31.7149C16.6066 31.7149 13.9184 30.7278 13.0873 30.2557L12.3382 30.6732L8.36243 33.0571L6.07607 30.7707L8.44436 26.8261L8.92036 26.3384C8.26098 25.3357 7.66794 24.1769 7.3363 22.9908L7.1139 22.3197L2.1003 21.1766V17.9382L6.68472 16.795L7.41823 16.5999C7.41823 16.5999 8.44046 13.861 8.91256 13.0338L8.52239 12.4057C8.49898 12.3667 8.47557 12.3316 8.44826 12.2964L6.07607 8.34408L8.36243 6.05772L12.307 8.42601C12.3109 8.42991 12.3148 8.43382 12.3187 8.43772C12.2329 8.3987 13.0444 8.90201 13.0444 8.90201C13.8754 8.42991 15.639 7.66519 16.5793 7.40378L16.8095 6.67027L17.9566 2.07805H21.1949L22.3381 6.66247L22.5488 7.39598C23.4891 7.66129 25.2643 8.4104 26.0954 8.8825L26.8133 8.44162L30.789 6.05382L33.0754 8.34018L30.6837 12.2067C30.6564 12.2418 30.3326 12.6788 30.3091 12.7217L30.6213 13.4201C31.0934 14.2473 31.4679 15.726 31.7332 16.6663L32.4667 16.7911L37.0512 17.9343V21.1766Z" fill="#292929"/>
<path d="M19.3965 10.369C14.4063 10.369 10.3408 14.4306 10.3408 19.4247C10.3408 24.4149 14.4024 28.4804 19.3965 28.4804C24.3867 28.4804 28.4522 24.4188 28.4522 19.4247C28.4522 14.4306 24.3906 10.369 19.3965 10.369ZM19.3965 26.4477C15.5222 26.4477 12.3736 23.299 12.3736 19.4247C12.3736 15.5504 15.5222 12.4018 19.3965 12.4018C23.2709 12.4018 26.4195 15.5504 26.4195 19.4247C26.4234 23.2951 23.2709 26.4477 19.3965 26.4477Z" fill="#292929"/>
</g>
<defs>
<clipPath id="clip0_8_1056">
<rect width="39.0164" height="39.0164" fill="white" transform="translate(0.0327148 0.0491943)"/>
</clipPath>
</defs>
</svg>
