<svg xmlns="http://www.w3.org/2000/svg" width="48" height="49" viewBox="0 0 48 49" fill="none">
  <path fill-rule="evenodd" clip-rule="evenodd" d="M22.1446 34.9468H25.8353V39.0989L28.2958 41.2519V34.9468V32.4863H25.8353H22.1446H19.6841V34.9468V43.5586V46.0191H22.1446H25.8353H28.2958V43.5586H25.8353H24.6051H22.1446V34.9468Z" fill="#292929"/>
  <path fill-rule="evenodd" clip-rule="evenodd" d="M23.9901 32.4866C29.086 32.4866 33.217 28.3555 33.217 23.2597C33.217 18.1638 29.086 14.0328 23.9901 14.0328C18.8943 14.0328 14.7632 18.1638 14.7632 23.2597C14.7632 28.3555 18.8943 32.4866 23.9901 32.4866ZM23.9901 34.9471C30.4449 34.9471 35.6775 29.7144 35.6775 23.2597C35.6775 16.8049 30.4449 11.5723 23.9901 11.5723C17.5354 11.5723 12.3027 16.8049 12.3027 23.2597C12.3027 29.7144 17.5354 34.9471 23.9901 34.9471Z" fill="#292929"/>
  <path fill-rule="evenodd" clip-rule="evenodd" d="M25.2202 6.65137L25.2202 12.8026L22.7597 12.8026L22.7597 6.65137L25.2202 6.65137Z" fill="#292929"/>
  <path fill-rule="evenodd" clip-rule="evenodd" d="M36.1865 13.9268L32.4958 17.6175L30.7559 15.8777L34.4467 12.1869L36.1865 13.9268Z" fill="#292929"/>
  <path fill-rule="evenodd" clip-rule="evenodd" d="M35.5718 34.4375L31.881 30.7467L30.1412 32.4866L33.8319 36.1773L35.5718 34.4375Z" fill="#292929"/>
  <path fill-rule="evenodd" clip-rule="evenodd" d="M12.812 11.6777L16.5028 15.3685L14.7629 17.1083L11.0722 13.4176L12.812 11.6777Z" fill="#292929"/>
  <path fill-rule="evenodd" clip-rule="evenodd" d="M13.4272 36.6865L17.118 32.9958L15.3782 31.2559L11.6874 34.9467L13.4272 36.6865Z" fill="#292929"/>
  <path fill-rule="evenodd" clip-rule="evenodd" d="M6.76436 9.11176C5.7476 9.11176 4.92095 8.28658 4.92095 7.26638C4.92095 6.24618 5.7476 5.421 6.76436 5.421C7.78609 5.421 8.61171 6.24721 8.61171 7.26638C8.61171 8.28556 7.78609 9.11176 6.76436 9.11176ZM2.46045 7.26638C2.46045 9.64494 4.38816 11.5723 6.76436 11.5723C9.14348 11.5723 11.0722 9.64597 11.0722 7.26638C11.0722 4.8868 9.14348 2.9605 6.76436 2.9605C4.38816 2.9605 2.46045 4.88782 2.46045 7.26638Z" fill="#292929"/>
  <path fill-rule="evenodd" clip-rule="evenodd" d="M40.5452 9.11176C41.562 9.11176 42.3886 8.28658 42.3886 7.26638C42.3886 6.24618 41.562 5.421 40.5452 5.421C39.5235 5.421 38.6979 6.24721 38.6979 7.26638C38.6979 8.28556 39.5235 9.11176 40.5452 9.11176ZM44.8491 7.26638C44.8491 9.64494 42.9214 11.5723 40.5452 11.5723C38.1661 11.5723 36.2374 9.64597 36.2374 7.26638C36.2374 4.8868 38.1661 2.9605 40.5452 2.9605C42.9214 2.9605 44.8491 4.88782 44.8491 7.26638Z" fill="#292929"/>
  <path fill-rule="evenodd" clip-rule="evenodd" d="M6.76436 29.3462C5.7476 29.3462 4.92095 30.1714 4.92095 31.1916C4.92095 32.2118 5.7476 33.037 6.76436 33.037C7.78609 33.037 8.61171 32.2108 8.61171 31.1916C8.61171 30.1725 7.78609 29.3462 6.76436 29.3462ZM2.46045 31.1916C2.46045 28.8131 4.38816 26.8857 6.76436 26.8857C9.14348 26.8857 11.0722 28.812 11.0722 31.1916C11.0722 33.5712 9.14348 35.4975 6.76436 35.4975C4.38816 35.4975 2.46045 33.5702 2.46045 31.1916Z" fill="#292929"/>
  <path fill-rule="evenodd" clip-rule="evenodd" d="M40.5442 29.3462C41.561 29.3462 42.3876 30.1714 42.3876 31.1916C42.3876 32.2118 41.561 33.037 40.5442 33.037C39.5225 33.037 38.6969 32.2108 38.6969 31.1916C38.6969 30.1725 39.5225 29.3462 40.5442 29.3462ZM44.8481 31.1916C44.8481 28.8131 42.9204 26.8857 40.5442 26.8857C38.1651 26.8857 36.2364 28.812 36.2364 31.1916C36.2364 33.5712 38.1651 35.4975 40.5442 35.4975C42.9204 35.4975 44.8481 33.5702 44.8481 31.1916Z" fill="#292929"/>
  <path fill-rule="evenodd" clip-rule="evenodd" d="M4.9209 17.7236L14.7629 17.7236L14.7629 20.1841L4.9209 20.1841L4.9209 17.7236Z" fill="#292929"/>
  <path fill-rule="evenodd" clip-rule="evenodd" d="M41.8286 20.1836L33.2168 20.1836L33.2168 17.7231L41.8286 17.7231L41.8286 20.1836Z" fill="#292929"/>
  <path fill-rule="evenodd" clip-rule="evenodd" d="M5.36914 22.6445H14.0926V25.105H5.36914V22.6445Z" fill="#292929"/>
  <path fill-rule="evenodd" clip-rule="evenodd" d="M41.9404 22.6445H33.217V25.105H41.9404V22.6445Z" fill="#292929"/>
  <path fill-rule="evenodd" clip-rule="evenodd" d="M4.92084 20.1836L4.92084 9.11132L7.38135 9.11132L7.38135 20.1836L4.92084 20.1836Z" fill="#292929"/>
  <path fill-rule="evenodd" clip-rule="evenodd" d="M39.3681 20.1836L39.3681 10.3416L41.8286 10.3416L41.8286 20.1836L39.3681 20.1836Z" fill="#292929"/>
  <path fill-rule="evenodd" clip-rule="evenodd" d="M7.82965 22.6445V28.4483H5.36914V22.6445H7.82965Z" fill="#292929"/>
  <path fill-rule="evenodd" clip-rule="evenodd" d="M39.4799 22.6445V28.4483H41.9404V22.6445H39.4799Z" fill="#292929"/>
</svg>