<svg xmlns="http://www.w3.org/2000/svg" width="40" height="49" viewBox="0 0 40 49" fill="none">
  <path fill-rule="evenodd" clip-rule="evenodd" d="M33.0081 20.276H38.3361L39.7761 22.676H36.3201L34.7832 27.6509C34.3711 27.5946 33.9503 27.5656 33.5227 27.5656C33.0764 27.5656 32.6375 27.5972 32.2082 27.6585L33.7761 22.724H33.4881L33.0081 20.276ZM29.2778 28.5977C28.0986 27.2952 26.3586 26.564 24.5601 26.564H21.2961V24.164H31.0401L29.4081 6.404L26.9601 7.652L28.3521 21.764H11.6961L13.4241 2.948H29.0721L28.8321 0.5H11.1681L9.00812 24.164H18.7521V26.564H15.4881C13.1841 26.564 10.9761 27.764 9.92012 29.828V29.876C8.96012 29.684 8.14412 28.916 7.90412 27.956L6.22412 22.724H6.51212L6.99212 20.276H1.66412L0.224121 22.724H3.68012L5.55212 28.58C6.03212 30.404 7.42412 31.748 9.20012 32.228C9.15212 32.516 9.15212 32.804 9.15212 33.092V34.292H18.8001V43.46H16.1601C13.7601 43.46 11.7441 45.14 11.2161 47.396C11.1201 47.78 11.0721 48.164 11.0721 48.548H13.4721C13.4721 47.108 14.6721 45.908 16.1121 45.908H18.7521V48.548H21.1521V45.908H23.8401C25.2801 45.908 26.4801 47.108 26.4801 48.548H28.9281C28.9281 48.116 28.8801 47.684 28.7841 47.3C28.2081 45.092 26.2401 43.508 23.8881 43.508H21.2481V34.292H24.6386C24.8845 33.4163 25.2564 32.5934 25.7335 31.844H11.7441C12.2721 29.924 14.0481 28.484 16.1601 28.484H23.8401C25.1997 28.484 26.4201 29.0808 27.2579 30.0182C27.8619 29.4593 28.5408 28.9803 29.2778 28.5977Z" fill="#292929"/>
  <path fill-rule="evenodd" clip-rule="evenodd" d="M36.5985 35.9663L32.8271 39.8683L30.4473 37.4081L31.4324 36.3886L32.8267 37.83L35.613 34.9473L36.5985 35.9663Z" fill="#292929"/>
</svg>