<svg width="40" height="40" viewBox="0 0 40 40" fill="none" xmlns="http://www.w3.org/2000/svg">
<g clip-path="url(#clip0_8_1060)">
<path d="M38.7788 7.37646H13.6249L12.3257 9.39361H37.8151L38.7788 7.37646Z" fill="#292929"/>
<path d="M3.74984 4.22006C1.88095 4.45806 0.371021 5.96799 0.133021 7.83688C-0.214225 10.5836 2.09945 12.8973 4.8462 12.5501C6.71508 12.3121 8.22502 10.8021 8.46302 8.93324C8.81026 6.18648 6.49269 3.87281 3.74984 4.22006ZM3.79666 10.5134C2.99292 10.3339 2.34915 9.68625 2.16968 8.88642C1.81463 7.29455 3.20751 5.90166 4.79938 6.25671C5.60312 6.43619 6.24689 7.08386 6.42636 7.8837C6.78141 9.47556 5.38853 10.8684 3.79666 10.5134Z" fill="#292929"/>
<path d="M39.1143 18.5508H13.6249L12.3257 20.564H37.8151L39.1143 18.5508Z" fill="#292929"/>
<path d="M3.74984 15.3943C1.88095 15.6284 0.371021 17.1384 0.133021 19.0111C-0.214225 21.754 2.09945 24.0716 4.8462 23.7243C6.71508 23.4863 8.22502 21.9764 8.46302 20.1075C8.81026 17.3608 6.49269 15.0432 3.74984 15.3943ZM3.79666 21.6877C2.99682 21.5082 2.34915 20.8605 2.16968 20.0568C1.81463 18.4649 3.20751 17.072 4.79938 17.4271C5.60312 17.6066 6.24689 18.2542 6.42636 19.0541C6.78141 20.6459 5.38853 22.0427 3.79666 21.6877Z" fill="#292929"/>
<path d="M12.3257 31.7383H37.8151L39.1143 29.7212H13.6249L12.3257 31.7383Z" fill="#292929"/>
<path d="M3.74984 26.5648C1.88095 26.8028 0.371021 28.3127 0.133021 30.1816C-0.214225 32.9284 2.09945 35.242 4.8462 34.8948C6.71508 34.6568 8.22502 33.1468 8.46302 31.278C8.81026 28.5312 6.49269 26.2175 3.74984 26.5648ZM3.79666 32.8581C2.99292 32.6786 2.34915 32.031 2.16968 31.2311C1.81463 29.6393 3.20751 28.2464 4.79938 28.6014C5.60312 28.7809 6.24689 29.4286 6.42636 30.2284C6.78141 31.8203 5.38853 33.2132 3.79666 32.8581Z" fill="#292929"/>
</g>
<defs>
<clipPath id="clip0_8_1060">
<rect width="39.0164" height="39.0164" fill="white" transform="translate(0.0981445 0.0491943)"/>
</clipPath>
</defs>
</svg>
