<svg width="40" height="40" viewBox="0 0 40 40" fill="none" xmlns="http://www.w3.org/2000/svg">
<g clip-path="url(#clip0_8_1086)">
<path d="M19.6063 12.3721C16.7581 12.3721 14.144 13.2694 11.9981 14.7521V2.34486H27.2535V9.95305L29.5164 8.58748V0.0819092H9.73511V16.7029C7.55019 19.0829 6.22363 22.2432 6.22363 25.7157C6.22363 33.0898 12.2322 39.0983 19.6063 39.0983C26.9803 39.0983 32.9889 33.0898 32.9889 25.7157C32.9889 18.3416 26.9803 12.3721 19.6063 12.3721ZM19.6063 36.8353C13.4807 36.8353 8.48658 31.8412 8.48658 25.7157C8.48658 19.5901 13.4807 14.596 19.6063 14.596C25.7318 14.596 30.7259 19.5901 30.7259 25.7157C30.7259 31.8412 25.7318 36.8353 19.6063 36.8353Z" fill="#292929"/>
<path d="M19.6064 20.2144C17.5385 20.2144 15.8608 21.8921 15.8608 23.9599C15.8608 25.6376 16.9533 27.0422 18.4749 27.5494V32.0363L20.7379 30.6707V27.5104C22.2595 27.0422 23.352 25.5986 23.352 23.9209C23.352 21.8921 21.6743 20.2144 19.6064 20.2144ZM19.6064 25.4816C18.7871 25.4816 18.1238 24.8183 18.1238 23.9989C18.1238 23.1796 18.7871 22.5163 19.6064 22.5163C20.4258 22.5163 21.089 23.1796 21.089 23.9989C21.089 24.8183 20.4258 25.4816 19.6064 25.4816Z" fill="#292929"/>
</g>
<defs>
<clipPath id="clip0_8_1086">
<rect width="39.0164" height="39.0164" fill="white" transform="translate(0.0981445 0.0819092)"/>
</clipPath>
</defs>
</svg>
