<svg width="40" height="40" viewBox="0 0 40 40" fill="none" xmlns="http://www.w3.org/2000/svg">
<g clip-path="url(#clip0_8_1046)">
<path d="M29.357 3.61443L29.3687 1.27734H27.535V7.96475H29.3336L29.3492 5.64328H37.1018V11.2109H2.14311V5.64718C2.14311 5.64718 2.14311 5.64328 2.14701 5.64328H9.4977V7.96475H11.2964L11.3315 1.27734H9.4977V3.61443H0.114258V37.8045H39.1306V3.61443H29.357ZM37.1018 35.7756H2.14311V13.2515H37.1018V35.7756Z" fill="#292929"/>
<path d="M25.0611 19.0272C25.0299 19.0701 24.1091 20.861 24.1091 20.861H29.7977L30.6093 19.0623L25.0611 19.0272Z" fill="#292929"/>
<path d="M16.8722 24.0272C16.841 24.0701 15.9202 25.861 15.9202 25.861H21.6088L22.4203 24.0623L16.8722 24.0272Z" fill="#292929"/>
<path d="M17.1407 19C17.1095 19.0429 16.1887 20.8338 16.1887 20.8338H21.8773L22.6888 19.0351L17.1407 19Z" fill="#292929"/>
<path d="M8.95176 24C8.92054 24.0429 7.99976 25.8338 7.99976 25.8338H13.6883L14.4999 24.0351L8.95176 24Z" fill="#292929"/>
<path d="M25.4164 3.81734L14.3786 3.78223C14.3123 3.82124 13.1028 5.616 13.1028 5.616H24.0898L25.4164 3.81734Z" fill="#292929"/>
</g>
<defs>
<clipPath id="clip0_8_1046">
<rect width="39.0164" height="39.0164" fill="white" transform="translate(0.114258 0.0327148)"/>
</clipPath>
</defs>
</svg>
