<svg width="40" height="40" viewBox="0 0 40 40" fill="none" xmlns="http://www.w3.org/2000/svg">
<g clip-path="url(#clip0_8_1084)">
<path d="M29.5101 32.5787H3.33008V0H29.5101V32.5787ZM5.39795 30.5108H27.4422V2.06787H5.39795V30.5108Z" fill="#292929"/>
<path d="M35.9478 39.0164H9.76782V36.0122L11.8357 34.7636V36.9486H33.8799V8.50561H31.695L32.9436 6.43774H35.9478V39.0164Z" fill="#292929"/>
<path d="M24.243 8.66162H7.77808L8.63644 6.59375H25.0623L24.243 8.66162Z" fill="#292929"/>
<path d="M13.3184 14.319H7.77808L8.63644 12.2511H14.1377L13.3184 14.319Z" fill="#292929"/>
<path d="M19.3269 25.6338H7.77808L8.63644 23.5659H20.1463L19.3269 25.6338Z" fill="#292929"/>
<path d="M24.2428 14.319H15.269L16.0884 12.2511H25.0622L24.2428 14.319Z" fill="#292929"/>
<path d="M24.243 19.9764H7.77808L8.63644 17.9086H25.0623L24.243 19.9764Z" fill="#292929"/>
</g>
<defs>
<clipPath id="clip0_8_1084">
<rect width="39.0164" height="39.0164" fill="white" transform="translate(0.130859)"/>
</clipPath>
</defs>
</svg>
