<svg width="32" height="32" viewBox="0 0 32 32" fill="none" xmlns="http://www.w3.org/2000/svg">
<g id="icons8-download_from_the_cloud 1">
<path id="Vector" d="M16 5C11.8828 5 8.64062 8.12891 8.1875 12.125C6.39453 12.4258 4.94141 13.6445 4.34375 15.3438C1.88281 16.0547 0 18.25 0 21C0 24.3242 2.67578 27 6 27H26C29.3242 27 32 24.3242 32 21C32 19.2383 31.1445 17.6641 29.9062 16.5625C29.6758 13.0469 26.8711 10.2461 23.3438 10.0625C22.1406 7.13281 19.3789 5 16 5ZM16 7C18.7617 7 20.9727 8.76953 21.75 11.2812L21.9688 12H23C25.7539 12 28 14.2461 28 17V17.5L28.4062 17.8125C29.3516 18.5195 30 19.7344 30 21C30 23.2773 28.2773 25 26 25H6C3.72266 25 2 23.2773 2 21C2 18.9805 3.44922 17.4141 5.28125 17.0938L5.9375 16.9688L6.0625 16.3125C6.36328 14.9648 7.55469 14 9 14H10V13C10 9.62891 12.6289 7 16 7ZM15 12V18.5625L12.7188 16.2812L11.2812 17.7188L15.2812 21.7188L16 22.4062L16.7188 21.7188L20.7188 17.7188L19.2812 16.2812L17 18.5625V12H15Z" fill="#292929"/>
</g>
</svg>
