<svg width="40" height="40" viewBox="0 0 40 40" fill="none" xmlns="http://www.w3.org/2000/svg">
<g clip-path="url(#clip0_8_1094)">
<path d="M39.0095 5.68396H12.1389L10.9099 7.83766H37.7805L39.0095 5.68396Z" fill="#292929"/>
<path d="M10.9099 33.4636H37.7805L39.0095 31.3099H12.1389L10.9099 33.4636Z" fill="#292929"/>
<path d="M10.9099 20.6507H37.7805L39.0095 18.4969H12.1389L10.9099 20.6507Z" fill="#292929"/>
<path d="M1.56168 23.85L4.31623 21.0954L7.07079 23.85L8.59243 22.3284L5.83787 19.5738L8.59243 16.8192L7.07079 15.2976L4.31623 18.0522L1.56168 15.2976L0.0400391 16.8192L2.7946 19.5738L0.0400391 22.3284L1.56168 23.85Z" fill="#292929"/>
<path d="M3.77391 7.59574L1.46804 5.54738L0.0400391 7.15876L3.96509 10.6468L9.52102 4.29496L7.90184 2.87866L3.77391 7.59574Z" fill="#292929"/>
<path d="M3.77391 33.2217L1.46804 31.1734L0.0400391 32.7808L3.96509 36.2689L9.52102 29.917L7.90184 28.5007L3.77391 33.2217Z" fill="#292929"/>
</g>
<defs>
<clipPath id="clip0_8_1094">
<rect width="39.0164" height="39.0164" fill="white" transform="translate(0.0166016 0.0655518)"/>
</clipPath>
</defs>
</svg>
