<svg xmlns="http://www.w3.org/2000/svg" width="24" height="24" viewBox="0 0 24 24" fill="none">
  <path d="M11.2414 10.0485C8.73195 9.47457 7.76513 6.26645 7.76513 6.26645C5.96874 7.47445 1.79162 14.9675 7.21467 19.2804C12.3437 23.3595 20.6214 19.7607 19.6141 12.9093C18.9706 8.53294 16.4699 7.66152 13.7732 3C11.0316 6.26645 11.2414 10.0485 11.2414 10.0485Z" stroke="black" stroke-linecap="round" stroke-linejoin="round"/>
  <path d="M12.428 16.3497C13.5634 16.0901 14.0818 14.3339 14.0818 14.3339C14.8946 14.8805 16.7845 18.2707 14.3308 20.2221C12.0102 22.0677 8.26487 20.4394 8.72065 17.3395C9.01179 15.3594 10.1433 14.9651 11.3634 12.856C12.6038 14.3339 12.428 16.3497 12.428 16.3497Z" stroke="black" stroke-linecap="round" stroke-linejoin="round"/>
</svg>