<svg width="40" height="40" viewBox="0 0 40 40" fill="none" xmlns="http://www.w3.org/2000/svg">
<g clip-path="url(#clip0_8_1082)">
<path d="M2.79086 38.592L13.891 31.0891L18.8227 36.0208L19.5952 35.2482C21.0817 33.7617 21.9011 31.7836 21.9011 29.6806C21.9011 28.0692 21.4173 26.532 20.5199 25.2327L28.6704 17.0822L32.7242 21.136L39.0644 14.7959L28.6197 4.35508L28.6275 7.44908L35.9782 14.7998L32.7242 18.0537L20.8593 6.18885L23.6217 3.42649L23.3447 0.61731L17.7731 6.18885L21.827 10.2427L13.6803 18.3893C12.3811 17.4958 10.8438 17.0081 9.22856 17.0081C7.12558 17.0081 5.14745 17.8274 3.66093 19.314L2.8884 20.0865L7.81227 25.0103L0.180664 35.9232L2.79086 38.592ZM2.84158 35.9232L9.37683 26.5749L12.3187 29.5167L2.84158 35.9232ZM18.7525 32.8643L6.04873 20.1606C6.98122 19.5285 8.08148 19.1891 9.22856 19.1891C10.7502 19.1891 12.1782 19.7822 13.2551 20.8551L18.0541 25.6541C19.1309 26.731 19.7201 28.159 19.7201 29.6806C19.7201 30.8355 19.3806 31.9319 18.7525 32.8643ZM19.0763 23.5941L15.319 19.8368L23.3681 11.7838L27.1254 15.5411L19.0763 23.5941Z" fill="#292929"/>
</g>
<defs>
<clipPath id="clip0_8_1082">
<rect width="39.0164" height="39.0164" fill="white" transform="translate(0.114258 0.0983887)"/>
</clipPath>
</defs>
</svg>
