<svg width="40" height="40" viewBox="0 0 40 40" fill="none" xmlns="http://www.w3.org/2000/svg">
<g clip-path="url(#clip0_8_1057)">
<path d="M36.732 5.6792H7.39171L9.65856 7.70805H33.6966L19.557 19.8304L5.41748 7.70805H5.42138L3.13502 5.6792H2.38201H0.0488281V33.4394H33.4586L31.1917 31.4105H3.51348L15.71 19.214L17.8481 21.0478C18.3475 21.4613 19.557 22.3353 19.557 22.3353C19.557 22.3353 20.7704 21.4652 21.2659 21.0399L23.404 19.2062L37.6333 33.4355C37.6333 33.4355 37.7582 33.4355 38.0157 33.4355H39.0691V5.6792H36.732ZM2.07768 29.9708V7.70805H2.29617L14.165 17.8835L2.07768 29.9708ZM36.8179 7.70805H37.0364V29.9708L24.9491 17.8835L36.8179 7.70805Z" fill="#292929"/>
</g>
<defs>
<clipPath id="clip0_8_1057">
<rect width="39.0164" height="39.0164" fill="white" transform="translate(0.0488281 0.0491943)"/>
</clipPath>
</defs>
</svg>
