<svg xmlns="http://www.w3.org/2000/svg" width="20" height="20" viewBox="0 0 20 20" fill="none">
  <path fill-rule="evenodd" clip-rule="evenodd" d="M14.334 0H5.665C2.26743 0 0 2.4326 0 5.916V14.084C0 17.5707 2.26137 20 5.665 20H14.333C17.7376 20 20 17.5707 20 14.084V5.916C20 2.4295 17.7378 0 14.334 0ZM5.665 1.5H14.334C16.8845 1.5 18.5 3.23496 18.5 5.916V14.084C18.5 16.7652 16.8844 18.5 14.333 18.5H5.665C3.11476 18.5 1.5 16.7653 1.5 14.084V5.916C1.5 3.23837 3.12034 1.5 5.665 1.5ZM14.0898 7.09667C13.7969 6.80378 13.3221 6.80378 13.0292 7.09667L8.8126 11.3118L6.96972 9.46956L6.88558 9.39696C6.59193 9.17916 6.17527 9.20346 5.90906 9.46978C5.61623 9.76274 5.61633 10.2376 5.90928 10.5304L8.28328 12.9034L8.3674 12.976C8.66101 13.1938 9.0776 13.1696 9.34383 12.9033L14.0898 8.15733L14.1624 8.07321C14.3803 7.7796 14.3561 7.36294 14.0898 7.09667Z" fill="#3AAA35"/>
</svg>