<svg width="40" height="40" viewBox="0 0 40 40" fill="none" xmlns="http://www.w3.org/2000/svg">
<g clip-path="url(#clip0_1677_35810)">
<path d="M0 0V39.0164H0.413574H2.06787H39.0164V0H0ZM36.9485 36.9485H2.06787V2.06787H36.9485V36.9485Z" fill="#292929"/>
<path fill-rule="evenodd" clip-rule="evenodd" d="M24.1081 5.77734L13.9122 12.2521L6.63767 6.22968L5.36227 7.77025L13.7569 14.72L23.9884 8.22258L32.384 14.7877L33.616 13.2122L24.1081 5.77734Z" fill="#292929"/>
<path fill-rule="evenodd" clip-rule="evenodd" d="M13 33V22H15V33H13Z" fill="#292929"/>
<path fill-rule="evenodd" clip-rule="evenodd" d="M26 33V16H28V33H26Z" fill="#292929"/>
<path fill-rule="evenodd" clip-rule="evenodd" d="M6 33L6 30L8 30L8 33L6 33Z" fill="#292929"/>
<path fill-rule="evenodd" clip-rule="evenodd" d="M32 33L32 27L34 27L34 33L32 33Z" fill="#292929"/>
<path fill-rule="evenodd" clip-rule="evenodd" d="M19 33L19 25L21 25L21 33L19 33Z" fill="#292929"/>
</g>
<defs>
<clipPath id="clip0_1677_35810">
<rect width="39.0164" height="39.0164" fill="white"/>
</clipPath>
</defs>
</svg>
