<svg width="40" height="40" viewBox="0 0 40 40" fill="none" xmlns="http://www.w3.org/2000/svg">
<g clip-path="url(#clip0_8_1076)">
<path d="M27.7961 6.96527H11.2532V0.0983887H27.7961V6.96527ZM13.321 4.93642H25.7283V2.16626H13.321V4.93642Z" fill="#292929"/>
<path d="M34.1948 39.1148H4.85449V3.29773H9.06826V5.3656H6.88334V37.0469H32.166V5.3656H29.981V3.29773H34.1948V39.1148Z" fill="#292929"/>
<path d="M12.3066 20.2698L8.36597 16.3292H11.2922L12.3066 17.3436L14.9207 14.7295H17.8469L12.3066 20.2698Z" fill="#292929"/>
<path d="M28.3423 18.241H21.9436L22.7629 16.1731H29.2007L28.3423 18.241Z" fill="#292929"/>
<path d="M12.3066 29.9069L8.36597 25.9662H11.2922L12.3066 26.9807L14.9207 24.3666H17.8469L12.3066 29.9069Z" fill="#292929"/>
<path d="M28.3423 27.878H21.9436L22.7629 25.8102H29.2007L28.3423 27.878Z" fill="#292929"/>
</g>
<defs>
<clipPath id="clip0_8_1076">
<rect width="39.0164" height="39.0164" fill="white" transform="translate(0.0166016 0.0983887)"/>
</clipPath>
</defs>
</svg>
