<svg width="40" height="40" viewBox="0 0 40 40" fill="none" xmlns="http://www.w3.org/2000/svg">
<path d="M20.183 24.7484C19.8541 24.7482 19.5387 24.6172 19.3063 24.3845L13.5664 18.628C13.3472 18.3928 13.2279 18.0817 13.2336 17.7603C13.2393 17.4389 13.3696 17.1323 13.5969 16.905C13.8242 16.6777 14.1308 16.5475 14.4522 16.5418C14.7736 16.5361 15.0847 16.6554 15.3199 16.8746L20.183 21.8371L25.0462 16.8746C25.2814 16.6554 25.5924 16.5361 25.9139 16.5418C26.2353 16.5475 26.5419 16.6777 26.7692 16.905C26.9965 17.1323 27.1268 17.4389 27.1325 17.7603C27.1381 18.0817 27.0188 18.3928 26.7997 18.628L21.0598 24.401C20.8247 24.6277 20.5096 24.7526 20.183 24.7484V24.7484Z" fill="#292929"/>
</svg>
