<svg width="40" height="40" viewBox="0 0 40 40" fill="none" xmlns="http://www.w3.org/2000/svg">
<g clip-path="url(#clip0_8_1090)">
<path d="M15.6784 19.8241C10.7623 19.8241 7.56299 16.0786 7.56299 10.3041C7.56299 4.52971 10.7623 0.745117 15.6784 0.745117C20.5945 0.745117 23.7938 4.49069 23.7938 10.2651C23.7938 16.0395 20.5945 19.8241 15.6784 19.8241ZM15.6784 2.65692C11.0745 2.65692 9.47479 6.59757 9.47479 10.3041C9.47479 14.0107 11.1135 17.9513 15.6784 17.9513C20.2823 17.9513 21.882 14.0107 21.882 10.3041C21.882 6.59757 20.2823 2.65692 15.6784 2.65692Z" fill="#292929"/>
<path d="M34.7184 11.2795L32.7285 12.0989V2.34478L34.7184 1.56445V11.2795Z" fill="#292929"/>
<path d="M39.0103 7.8071H29.2562L28.4758 5.81726H38.1909L39.0103 7.8071Z" fill="#292929"/>
<path d="M18.9167 25.0913H12.44C5.6121 25.0913 0.0717773 30.6316 0.0717773 37.4595V38.4739H23.8328L21.8429 36.4841H2.13965C2.64686 31.2559 7.05571 27.1202 12.44 27.1202H18.9167C24.301 27.1202 28.7098 31.2169 29.217 36.4841L29.3341 38.4739H31.2849V37.4595C31.2849 30.6316 25.7446 25.0913 18.9167 25.0913Z" fill="#292929"/>
</g>
<defs>
<clipPath id="clip0_8_1090">
<rect width="39.0164" height="39.0164" fill="white" transform="translate(0.0327148 0.0819092)"/>
</clipPath>
</defs>
</svg>
