<svg xmlns="http://www.w3.org/2000/svg" width="250" height="112" viewBox="0 0 250 112" fill="none">
  <path d="M175.39 24.51C174.73 22.34 173.58 20.44 171.94 18.79C170.29 17.14 168.03 15.83 165.15 14.84C162.27 13.85 158.61 13.36 154.17 13.36H133.85H130.39V13.7C130.39 13.7 133.85 16.1 133.85 22.47V68.8H143.64V21.59H154C156.47 21.59 158.51 21.81 160.13 22.25C161.75 22.69 163.04 23.32 164 24.14C164.96 24.96 165.63 25.99 166.02 27.22C166.4 28.45 166.6 29.89 166.6 31.54C166.6 33.13 166.42 34.56 166.06 35.82C165.7 37.08 165.06 38.16 164.13 39.07C163.2 39.98 161.92 40.67 160.3 41.17C158.68 41.66 156.61 41.91 154.09 41.91H150.39L146.93 50.22H154.34C158.67 50.22 162.26 49.71 165.12 48.7C167.97 47.69 170.23 46.31 171.91 44.59C173.58 42.86 174.75 40.85 175.41 38.54C176.07 36.24 176.4 33.82 176.4 31.3C176.37 28.94 176.04 26.68 175.39 24.51Z" fill="white"/>
  <path d="M183.95 13.36V13.7C183.95 13.7 187.41 16.1 187.41 22.47V23.6V68.8H197.36V13.33L187.41 13.36H183.95Z" fill="white"/>
  <path d="M246.54 21.92L250 13.37H212.49H209.03V13.71C209.03 13.71 212.49 16.11 212.49 22.48V23.61V68.8H222.44V47.17H241.95L245.41 38.62H222.44V21.92H246.54Z" fill="white"/>
  <path d="M197.371 80.33H133.791V81.25H197.371V80.33Z" fill="#CC963F"/>
  <path d="M204.89 80.54C204.89 82.08 206.08 83.02 207.55 83.02H208.82C208.48 83.89 207.53 84.33 206.51 84.33C205.17 84.33 203.84 83.66 203.84 82.24V81.12L202.34 81.42V82.06C202.34 84.35 204.32 85.34 206.42 85.34C208.64 85.34 210.51 84.33 210.51 81.93V77.94H207.93C206.39 77.94 204.89 78.75 204.89 80.54ZM209.01 81.84C209.01 81.88 209.01 81.96 209 82.01H207.86C207.03 82.01 206.38 81.46 206.38 80.5C206.38 79.48 207.1 78.95 207.9 78.95H209.01V81.84Z" fill="#CC963F"/>
  <path d="M207.18 76.74C207.56 76.74 207.88 76.43 207.88 76.06C207.88 75.68 207.57 75.37 207.18 75.37C206.81 75.37 206.5 75.68 206.5 76.06C206.49 76.42 206.81 76.74 207.18 76.74Z" fill="#CC963F"/>
  <path d="M209.04 76.74C209.42 76.74 209.72 76.43 209.72 76.06C209.72 75.68 209.42 75.37 209.04 75.37C208.66 75.37 208.36 75.68 208.36 76.06C208.35 76.42 208.65 76.74 209.04 76.74Z" fill="#CC963F"/>
  <path d="M211.811 80.55C211.811 82.09 213.001 83.02 214.471 83.02H215.921C215.811 84.07 215.241 84.48 214.081 84.48H213.231V85.42H214.331C216.311 85.42 217.431 84.67 217.431 82.42V77.95H214.851C213.321 77.94 211.811 78.75 211.811 80.55ZM215.931 82H214.781C213.961 82 213.301 81.46 213.301 80.5C213.301 79.48 214.021 78.94 214.841 78.94H215.941V82H215.931Z" fill="#CC963F"/>
  <path d="M232.06 77.15C232.48 77.15 232.82 76.81 232.82 76.39C232.82 75.98 232.47 75.63 232.06 75.63C231.63 75.63 231.3 75.98 231.3 76.39C231.3 76.81 231.63 77.15 232.06 77.15Z" fill="#CC963F"/>
  <path d="M245.29 78.57H241.911L241.601 79.24V78.12L240.111 78.4V82H237.061H233.631H232.751V78.29L231.26 78.58V82H227.84H223.891H223.241V80.43C223.241 78.68 222.281 77.92 220.521 77.92H219.15V78.92H220.15C221.23 78.92 221.751 79.29 221.751 80.24V82H218.521V83.01H223.891H227.84H231.251C231.751 83.01 232.17 82.82 232.43 82.49L232.79 83.01H233.631H237.061H248.161V81.07C248.151 79.28 246.79 78.57 245.29 78.57ZM246.661 82H241.59V79.57H245.15C246.07 79.57 246.65 80.09 246.65 80.88V82H246.661Z" fill="#CC963F"/>
  <path d="M135.5 91.62C135.88 91.62 136.19 91.31 136.19 90.94C136.19 90.56 135.88 90.24 135.5 90.24C135.13 90.24 134.82 90.55 134.82 90.94C134.82 91.3 135.13 91.62 135.5 91.62Z" fill="#CC963F"/>
  <path d="M137.36 91.62C137.74 91.62 138.04 91.31 138.04 90.94C138.04 90.56 137.74 90.24 137.36 90.24C136.98 90.24 136.68 90.55 136.68 90.94C136.68 91.3 136.98 91.62 137.36 91.62Z" fill="#CC963F"/>
  <path d="M144.51 92.69H142.6L141.96 95.05C141.69 96.13 141.39 96.72 140.39 96.72H140.15H139.28V92.37L137.79 92.67V93.02H136.08C134.68 93.02 133.63 93.95 133.63 95.37C133.63 96.79 134.68 97.72 136.08 97.72H137.54L138.02 96.98C138.29 97.44 138.79 97.72 139.42 97.72H140.16H140.49C142.19 97.72 143.07 96.87 143.47 95.23L143.84 93.68H144.52C145.32 93.68 146.03 94.23 146.03 95.22V96.71H142.85L143.56 97.72H147.53V95.31C147.52 93.54 146.05 92.69 144.51 92.69ZM136.42 96.73C135.62 96.73 135.1 96.19 135.1 95.39C135.1 94.59 135.63 94.05 136.42 94.05H137.79V96.12C137.79 96.34 137.82 96.55 137.89 96.74H136.42V96.73Z" fill="#CC963F"/>
  <path d="M166.67 96.73H162.19H160.59C161.34 96.18 161.76 95.42 161.76 94.7C161.76 93.61 160.82 92.65 158.99 92.65C158 92.65 157.02 92.93 156.23 93.21L155.73 93.93L155.81 93.99L155.72 94L155.94 94.5C156.57 95.56 156.95 96.25 157.44 96.72H154.26H151.28H151.23H150.4V89.36L148.91 89.65V96.23C148.91 97.13 149.5 97.73 150.41 97.73H151.22H151.27H154.25H157.15C157.83 97.73 158.31 97.52 158.81 97.36C159.18 97.51 159.57 97.73 160.21 97.73H162.17H168.14V89.36L166.65 89.64V96.73H166.67ZM159.06 96.54C158.4 96.12 157.79 95.2 157.33 94.42C157.29 94.35 157.13 94.15 156.99 93.98C157.52 93.81 158.16 93.66 158.67 93.66C159.61 93.66 160.26 94.19 160.26 94.98C160.27 95.58 159.89 96.23 159.06 96.54Z" fill="#CC963F"/>
  <path d="M169.91 97.74H171.4V89.36L169.91 89.66V97.74Z" fill="#CC963F"/>
  <path d="M180.981 93.37C181.361 93.37 181.661 93.06 181.661 92.69C181.661 92.31 181.361 92 180.981 92C180.601 92 180.301 92.31 180.301 92.69C180.291 93.05 180.601 93.37 180.981 93.37Z" fill="#CC963F"/>
  <path d="M179.12 93.37C179.5 93.37 179.81 93.06 179.81 92.69C179.81 92.31 179.5 92 179.12 92C178.75 92 178.44 92.31 178.44 92.69C178.43 93.05 178.75 93.37 179.12 93.37Z" fill="#CC963F"/>
  <path d="M183.04 96.73H178.02C176.98 96.73 176.66 96.35 176.66 95.27V94.23L175.17 94.52V94.97C175.17 96.94 176.11 97.74 177.84 97.74H184.53V93.02L183.04 93.31V96.73Z" fill="#CC963F"/>
  <path d="M186.271 97.74H187.76V89.36L186.271 89.66V97.74Z" fill="#CC963F"/>
  <path d="M189.52 98.14C189.52 99.09 189.08 99.51 188.19 99.65L188.53 100.58C190.28 100.36 191.02 99.4 191.02 97.81V93.02L189.53 93.31V98.14H189.52Z" fill="#CC963F"/>
  <path d="M211.78 91.87C212.16 91.87 212.47 91.56 212.47 91.19C212.47 90.81 212.16 90.5 211.78 90.5C211.41 90.5 211.1 90.81 211.1 91.19C211.09 91.56 211.41 91.87 211.78 91.87Z" fill="#CC963F"/>
  <path d="M212.67 90.29C213.05 90.29 213.35 89.98 213.35 89.61C213.35 89.23 213.05 88.92 212.67 88.92C212.29 88.92 211.99 89.23 211.99 89.61C211.99 89.98 212.29 90.29 212.67 90.29Z" fill="#CC963F"/>
  <path d="M212.96 91.19C212.96 91.56 213.26 91.87 213.64 91.87C214.02 91.87 214.32 91.56 214.32 91.19C214.32 90.81 214.02 90.5 213.64 90.5C213.26 90.5 212.96 90.81 212.96 91.19Z" fill="#CC963F"/>
  <path d="M219.86 91.87C220.24 91.87 220.56 91.56 220.56 91.19C220.56 90.81 220.25 90.5 219.86 90.5C219.49 90.5 219.18 90.81 219.18 91.19C219.18 91.56 219.49 91.87 219.86 91.87Z" fill="#CC963F"/>
  <path d="M221.721 91.87C222.101 91.87 222.401 91.56 222.401 91.19C222.401 90.81 222.101 90.5 221.721 90.5C221.341 90.5 221.041 90.81 221.041 91.19C221.041 91.56 221.341 91.87 221.721 91.87Z" fill="#CC963F"/>
  <path d="M235.85 96.73H233.98C234.02 96.58 234.05 96.42 234.05 96.24V93.36L232.56 93.65V96.73H230.48V93.38L228.98 93.66V96.73H225.67H225.55H223.29H223.27H222.41V93.02L220.92 93.31V96.73H219.2H219.19H215.18H215.17H214.31V93.02L212.82 93.31V96.73H211.16H211.1H206.66H206.64H206V95.33C206 93.55 204.52 92.7 202.99 92.7H201.08L200.44 95.06C200.17 96.14 199.87 96.73 198.87 96.73H198.62C198.6 96.73 198.6 96.76 198.59 96.76C198.58 96.75 198.58 96.73 198.56 96.73H194.91H194.89H194.04V89.37L192.55 89.66V96.24C192.55 97.14 193.14 97.74 194.05 97.74H194.89H194.91H198.56C198.58 97.74 198.57 97.71 198.59 97.71C198.61 97.72 198.6 97.74 198.62 97.74H198.96C200.67 97.74 201.54 96.89 201.94 95.25L202.31 93.7H203C203.8 93.7 204.51 94.25 204.51 95.24V96.73H201.33L202.04 97.74H206.63H206.65H211.09H211.15H212.8C213.3 97.74 213.72 97.55 213.98 97.22L214.34 97.74H215.17H215.18H219.19H219.2H220.91C221.41 97.74 221.83 97.55 222.09 97.22L222.45 97.74H223.28H223.3H225.56H225.68H232.57C233.09 97.74 233.5 97.54 233.77 97.2L234.14 97.74H237.37V93.02L235.88 93.31V96.73H235.85Z" fill="#CC963F"/>
  <path d="M243.39 96.73H241.35V90.74L239.86 91.04V96.73H238.42V97.74H244.88V89.36L243.39 89.64V96.73Z" fill="#CC963F"/>
  <path d="M246.62 89.66V97.74H248.11V89.36L246.62 89.66Z" fill="#CC963F"/>
  <path d="M111.57 55.79C111.57 86.6 86.59 111.58 55.78 111.58C24.97 111.58 0 86.6 0 55.79C0 24.98 24.98 0 55.79 0C86.6 0 111.57 24.98 111.57 55.79ZM55.79 4.18C27.29 4.18 4.19 27.28 4.19 55.78C4.19 84.28 27.29 107.38 55.79 107.38C84.29 107.38 107.39 84.28 107.39 55.78C107.39 27.28 84.28 4.18 55.79 4.18Z" fill="#CC963F"/>
  <path d="M55.7902 16.9C34.3202 16.9 16.9102 34.31 16.9102 55.78C16.9102 77.25 34.3202 94.66 55.7902 94.66C77.2602 94.66 94.6702 77.25 94.6702 55.78C94.6702 34.31 77.2602 16.9 55.7902 16.9ZM55.7902 92.99C35.2402 92.99 18.5802 76.33 18.5802 55.78C18.5802 35.23 35.2402 18.57 55.7902 18.57C76.3402 18.57 93.0002 35.23 93.0002 55.78C92.9902 76.34 76.3402 92.99 55.7902 92.99Z" fill="#CC963F"/>
  <path d="M103.64 48.64L97.73 49.75L97.5 48.4L103.4 47.29L103.64 48.64Z" fill="#CC963F"/>
  <path d="M103.33 64.89L97.3901 63.88L97.6401 62.54L103.56 63.54L103.33 64.89Z" fill="#CC963F"/>
  <path d="M97.8403 61.38L97.9803 60.03L100.15 60.26L100.28 59.08C100.39 58.09 101.09 57.32 102.31 57.45C103.45 57.57 104.24 58.39 104.08 59.86C103.91 61.46 102.84 61.91 101.63 61.78L97.8403 61.38ZM102.02 60.45C102.65 60.52 103.11 60.27 103.16 59.74C103.21 59.27 102.91 58.9 102.23 58.82C101.6 58.75 101.19 59.04 101.14 59.5L101.05 60.34L102.02 60.45Z" fill="#CC963F"/>
  <path d="M101.97 51.74L102.03 52.74L104.1 52.62L104.18 53.98L102.11 54.1L102.17 55.07L104.17 54.95L104.25 56.3L101.34 56.47L101.07 51.79L97.9799 51.97L97.8999 50.61L103.91 50.26L103.99 51.62L101.97 51.74Z" fill="#CC963F"/>
  <path d="M13.72 50.46L8 49.59L8.2 48.25L11.91 48.81L12.07 47.77L13.06 47.92L13.04 48.07C12.99 48.38 13.05 48.64 13.23 48.86C13.4 49.08 13.62 49.24 13.9 49.33L13.72 50.46Z" fill="#CC963F"/>
  <path d="M9.92996 52.06C10.09 51.8 10.32 51.59 10.61 51.43C10.9 51.27 11.24 51.21 11.64 51.23C12.11 51.26 12.49 51.38 12.78 51.6C13.07 51.82 13.28 52.09 13.41 52.41C13.54 52.73 13.59 53.05 13.57 53.39C13.53 54.16 13.24 54.7 12.7 55.02C12.16 55.33 11.41 55.46 10.44 55.41C9.33996 55.35 8.57996 55.11 8.15996 54.7C7.72996 54.28 7.53996 53.74 7.56996 53.07C7.59996 52.56 7.74996 52.15 8.03996 51.82C8.32996 51.49 8.70996 51.29 9.18996 51.2L9.29996 52.49C8.84996 52.56 8.61996 52.77 8.59996 53.12C8.57996 53.44 8.70996 53.67 8.97996 53.81C9.24996 53.96 9.60996 54.04 10.05 54.07V54.04C9.89996 53.89 9.79996 53.71 9.72996 53.52C9.65996 53.32 9.63996 53.11 9.64996 52.89C9.67996 52.6 9.76996 52.32 9.92996 52.06ZM10.92 52.72C10.75 52.86 10.65 53.04 10.64 53.27C10.63 53.49 10.7 53.68 10.87 53.85C11.03 54.02 11.26 54.11 11.55 54.13C11.85 54.15 12.08 54.08 12.26 53.93C12.44 53.78 12.53 53.6 12.54 53.38C12.55 53.16 12.48 52.97 12.33 52.81C12.18 52.65 11.94 52.56 11.64 52.55C11.33 52.52 11.09 52.58 10.92 52.72Z" fill="#CC963F"/>
  <path d="M13.3498 56.04L13.5798 60.24L12.3298 60.31L7.67984 58.2L7.58984 56.62L12.2498 58.81L12.0998 56.12L13.3498 56.04Z" fill="#CC963F"/>
  <path d="M14.0401 63.22L8.32012 64.08L8.12012 62.74L11.8301 62.18L11.6701 61.14L12.6601 61L12.6801 61.15C12.7301 61.46 12.8601 61.69 13.0901 61.85C13.3201 62.01 13.5801 62.09 13.8701 62.11L14.0401 63.22Z" fill="#CC963F"/>
  <path d="M95.53 29.4C95.84 29.18 95.92 28.75 95.69 28.44C95.47 28.13 95.04 28.05 94.72 28.27C94.41 28.49 94.33 28.93 94.55 29.24C94.78 29.56 95.21 29.62 95.53 29.4Z" fill="#CC963F"/>
  <path d="M97.1997 36.11L96.0197 33.65L95.2997 33.73L96.1597 33.19L95.3997 31.96L92.9497 33.43C92.6397 32.92 92.3297 32.42 91.9997 31.93L94.3797 30.25L93.5297 29.04L91.1797 30.71C90.8497 30.25 90.5197 29.79 90.1697 29.34L90.8897 28.74C91.9697 27.84 92.0597 26.83 91.0497 25.62L90.3997 24.83L89.6597 25.49L90.0597 25.97C90.6197 26.65 90.5897 27.08 90.0997 27.48L89.2397 28.19C88.7297 27.57 88.2097 26.97 87.6697 26.38L86.9497 27.05C88.1797 28.38 89.3197 29.8 90.3697 31.28H90.3797C90.6697 31.68 91.0097 31.91 91.4197 31.95L91.2297 32.54C92.7397 34.84 94.0297 37.28 95.0797 39.86L96.4597 39.16C97.8497 38.49 97.7497 37.2 97.1997 36.11ZM95.9997 37.78L95.3897 38.09C94.8797 36.94 94.3097 35.82 93.6997 34.73L95.0297 33.9L96.2697 36.46C96.5697 37.03 96.4497 37.54 95.9997 37.78Z" fill="#CC963F"/>
  <path d="M85.2499 19.83L83.3699 22.32C82.1799 23.89 80.4199 23.55 79.0199 22.49C77.6599 21.47 76.7899 19.83 77.9399 18.3L78.4099 17.7L79.5899 18.59L79.0299 19.33C78.3799 20.19 78.9199 21.17 79.6799 21.74C80.2299 22.16 80.9199 22.34 81.4899 22.05L80.8199 21.55C79.8499 20.82 79.5899 19.65 80.2999 18.71C81.1699 17.56 82.5399 17.78 83.5399 18.53L85.2499 19.83ZM82.9299 19.32C82.4899 18.99 81.8999 19.02 81.4999 19.55C81.1199 20.06 81.2199 20.64 81.6799 20.99L82.2199 21.4C82.2399 21.38 82.2799 21.33 82.2899 21.31L83.4799 19.74L82.9299 19.32ZM83.5299 17.42C83.2599 17.22 83.1999 16.83 83.4099 16.55C83.6199 16.27 84.0099 16.22 84.2799 16.42C84.5599 16.63 84.6099 17.02 84.3999 17.3C84.1999 17.57 83.8099 17.63 83.5299 17.42ZM84.7999 18.38C84.5299 18.17 84.4699 17.79 84.6799 17.52C84.8899 17.24 85.2799 17.19 85.5499 17.39C85.8299 17.6 85.8799 17.99 85.6699 18.27C85.4699 18.53 85.0799 18.59 84.7999 18.38Z" fill="#CC963F"/>
  <path d="M89.4501 23.75L87.0401 26.25C85.7001 27.64 84.5901 27.34 83.4201 26.21L82.8501 25.66L83.4901 25L83.9001 25.39C84.5001 25.97 84.9801 26.09 85.5701 25.61L84.8501 24.92C83.9801 24.08 83.8601 22.9 84.6901 22.04C85.6901 21.01 87.0201 21.39 87.9201 22.26L89.4501 23.75ZM86.2701 24.93L87.7101 23.44L87.2201 22.97C86.8301 22.59 86.2401 22.54 85.7801 23.02C85.3401 23.48 85.3701 24.06 85.7901 24.47L86.2701 24.93Z" fill="#CC963F"/>
  <path d="M35.5803 14.71C35.8903 14.55 36.0103 14.18 35.8503 13.88C35.6903 13.57 35.3203 13.45 35.0103 13.61C34.7103 13.77 34.5903 14.14 34.7503 14.45C34.9003 14.75 35.2803 14.87 35.5803 14.71Z" fill="#CC963F"/>
  <path d="M34.1701 15.44C34.4801 15.28 34.6001 14.91 34.4401 14.61C34.2801 14.3 33.9101 14.18 33.6001 14.34C33.3001 14.5 33.1801 14.87 33.3401 15.18C33.4901 15.48 33.8701 15.6 34.1701 15.44Z" fill="#CC963F"/>
  <path d="M54.77 8.12999C54.78 8.46999 55.06 8.73999 55.4 8.73999C55.75 8.72999 56.02 8.44999 56.02 8.10999C56.01 7.75999 55.73 7.48999 55.38 7.48999C55.04 7.49999 54.77 7.77999 54.77 8.12999Z" fill="#CC963F"/>
  <path d="M53.8102 8.76001C54.1602 8.75001 54.4302 8.47001 54.4302 8.13001C54.4202 7.78001 54.1402 7.51001 53.8002 7.51001C53.4602 7.52001 53.1902 7.80001 53.1902 8.14001C53.1802 8.50001 53.4702 8.77001 53.8102 8.76001Z" fill="#CC963F"/>
  <path d="M54.5504 7.41C54.9004 7.4 55.1704 7.12 55.1704 6.78C55.1604 6.43 54.8804 6.16 54.5304 6.16C54.1904 6.17 53.9204 6.45 53.9204 6.8C53.9304 7.14 54.2104 7.42 54.5504 7.41Z" fill="#CC963F"/>
  <path d="M58.9799 8.85C59.3299 8.87 59.6199 8.61 59.6399 8.27C59.6599 7.92 59.3999 7.63 59.0499 7.61C58.7099 7.59 58.4199 7.85 58.3899 8.2C58.3799 8.53 58.6399 8.83 58.9799 8.85Z" fill="#CC963F"/>
  <path d="M57.3998 8.74999C57.7498 8.76999 58.0398 8.50999 58.0598 8.16999C58.0798 7.81999 57.8198 7.52999 57.4698 7.50999C57.1298 7.48999 56.8398 7.74999 56.8098 8.09999C56.7998 8.42999 57.0598 8.72999 57.3998 8.74999Z" fill="#CC963F"/>
  <path d="M39.87 16.48L38.41 12.88L37.26 13.35L38.37 16.09C36.87 16.74 35.29 17.59 34.51 18.03C33.91 18.37 33.59 18.27 33.27 17.68L32.83 16.86L31.54 17.56L31.83 18.1C32.59 19.5 33.56 19.58 34.79 18.96C36.42 18.02 38.12 17.19 39.87 16.48Z" fill="#CC963F"/>
  <path d="M63.8301 14.16C64.3201 14.25 64.7501 14.15 65.0601 13.88L65.3201 14.48C66.1501 14.67 66.9601 14.88 67.7701 15.12L68.7501 11.36L67.3201 10.99L66.5901 13.78C66.1901 13.68 65.7801 13.58 65.3701 13.49C65.4401 13.36 65.5001 13.19 65.5301 13.03L65.9401 11.03L64.4901 10.73L64.0001 13.19C63.5101 13.1 63.0201 13.01 62.5201 12.93L62.8701 10.5L61.4101 10.29L61.0601 12.73C60.5201 12.66 59.8401 12.6 59.3001 12.55L59.5401 9.66L58.0701 9.54L57.8301 12.46C57.2301 12.43 56.6201 12.41 56.0101 12.41L56.0201 9.51L54.5501 9.5L54.5201 12.42C53.9801 12.44 53.4401 12.46 52.9001 12.5L52.7801 11.52C52.5901 10.08 51.3201 9.55 50.0601 9.71L48.3401 9.98L48.2001 11.91C48.0901 12.68 47.8901 13.15 47.2701 13.26L46.5601 13.41L45.2601 8.22L43.8301 8.56L45.0301 13.29C45.2301 14.14 45.9201 14.55 46.7701 14.37C47.0201 14.32 47.2601 14.27 47.5101 14.22C48.3701 14.05 48.9701 13.7 49.3001 13.09L49.9901 13.8C51.5101 13.59 53.0601 13.47 54.6301 13.42C55.1201 13.41 55.4401 13.21 55.7001 12.9L56.1301 13.4V13.41C56.7101 13.41 57.2801 13.43 57.8501 13.46C58.3401 13.48 58.7401 13.32 59.0201 13.03L59.3401 13.56C60.8501 13.67 62.3501 13.88 63.8301 14.16ZM49.3701 12.89C49.4901 12.61 49.6201 12.26 49.6701 11.9L49.8001 10.75L50.1801 10.7C50.7101 10.63 51.2101 10.95 51.3001 11.63L51.4301 12.64C50.7401 12.7 50.0501 12.79 49.3701 12.89Z" fill="#CC963F"/>
  <path d="M75.8102 11.37L74.4602 10.78L72.4102 15.71C71.9802 15.53 71.5502 15.36 71.1102 15.2L72.5102 11.07L71.1202 10.57L69.7202 14.7C69.3802 14.58 69.0302 14.47 68.6802 14.36L68.4102 15.31C70.1102 15.84 71.7701 16.48 73.3801 17.21L75.8102 11.37Z" fill="#CC963F"/>
  <path d="M39.85 9.73999L42.1 15.66L40.71 16.16L38.46 10.25L39.85 9.73999Z" fill="#CC963F"/>
  <path d="M44.4502 14.76C44.8202 16.01 44.4302 16.99 43.0702 17.62L42.4802 16.85C43.0602 16.53 43.3302 16.18 43.1402 15.51L41.9902 11.61L43.4002 11.19L44.4502 14.76Z" fill="#CC963F"/>
  <path d="M78.37 12.61L75.61 18.3L74.29 17.63L77.04 11.95L78.37 12.61Z" fill="#CC963F"/>
  <path d="M12.2701 35.81C11.9501 35.67 11.5901 35.8 11.4401 36.12C11.3001 36.43 11.4401 36.8 11.7501 36.94C12.0601 37.08 12.4301 36.94 12.5701 36.63C12.7101 36.32 12.5801 35.95 12.2701 35.81Z" fill="#CC963F"/>
  <path d="M12.9303 34.36C12.6103 34.21 12.2403 34.35 12.1003 34.67C11.9603 34.98 12.1003 35.35 12.4103 35.49C12.7203 35.63 13.0903 35.49 13.2303 35.19C13.3803 34.87 13.2403 34.5 12.9303 34.36Z" fill="#CC963F"/>
  <path d="M21.5101 30.84C21.3701 30.76 20.7901 30.42 19.7701 29.76C18.5801 28.99 17.3101 29.63 16.6301 30.71L15.7901 32.04L17.1301 33.55C17.6601 34.12 17.9501 34.58 17.6601 35.14L17.6301 35.19L17.5501 35.34L17.3001 35.82L14.3201 34.28L13.6401 35.59L14.1501 35.85L13.6201 36.87C13.1201 37.87 13.3801 38.99 14.3901 39.5C15.4001 40.01 16.5101 39.57 17.0101 38.58L17.0701 38.46C17.1401 38.3 17.2101 38.14 17.2901 37.99L17.4501 37.65L17.1401 37.05C17.5301 36.98 17.8601 36.73 18.1001 36.35C18.2001 36.15 18.5301 35.53 18.5301 35.53C18.9401 34.76 19.0201 34.19 18.7901 33.54L19.7901 33.37L19.8001 33.36C20.3501 32.5 20.9201 31.66 21.5101 30.84ZM16.3201 37.85C16.1001 38.33 15.6301 38.5 15.1601 38.27C14.6601 38.04 14.5001 37.58 14.7201 37.1L15.0801 36.34L16.1901 36.92C16.3601 37.01 16.5201 37.06 16.6801 37.1L16.3201 37.85ZM18.7901 33.24L18.7201 33.35C18.5901 33.07 18.2901 32.68 18.0901 32.46C17.8901 32.24 17.2801 31.57 17.2801 31.57L17.4901 31.24C17.7801 30.79 18.3401 30.6 18.9201 30.97L19.8701 31.57C19.4901 32.11 19.1301 32.67 18.7901 33.24Z" fill="#CC963F"/>
  <path d="M24.3702 27.33C24.7902 26.87 24.9602 26.44 25.1502 26.02C25.4902 25.91 25.8902 25.77 26.2802 25.36C27.2102 24.38 28.2602 23.52 29.3102 22.68L25.3802 17.73L24.2402 18.67L27.6002 22.91C26.9902 23.43 26.4002 23.97 25.8202 24.53C25.9102 23.83 25.6902 23.17 25.3102 22.81C24.7102 22.23 23.6502 22.24 22.6102 23.33C22.0702 23.9 21.6802 24.61 21.3902 25.21C21.3902 25.21 21.5502 25.92 21.5602 25.97C21.5802 26.06 21.7602 26.14 21.9002 26.17C22.0402 26.21 23.3902 26.46 23.9002 26.51C23.2602 27.21 22.6402 27.93 22.0502 28.66L22.0402 28.67L17.8302 25.29L16.9302 26.45L20.7002 29.49C21.3802 30.04 22.2202 29.95 22.7602 29.26C23.2602 28.59 23.8002 27.95 24.3702 27.33ZM22.5202 25.09C22.6802 24.78 22.8902 24.44 23.1102 24.21C23.5502 23.74 24.1002 23.65 24.5102 24.04C24.7902 24.31 24.9302 24.76 24.7502 25.26C24.1702 25.34 22.7102 25.12 22.5202 25.09Z" fill="#CC963F"/>
  <path d="M27.5601 16.08L31.2201 21.23L30.0301 22.1L26.3701 16.95L27.5601 16.08Z" fill="#CC963F"/>
  <path d="M17.4602 75.07C17.2802 75.52 16.9002 75.87 16.3402 76.13C15.7702 76.39 15.2602 76.44 14.8102 76.28C14.3502 76.12 14.0002 75.77 13.7602 75.23L13.2402 74.08L11.4802 74.88L10.9302 73.66L16.3102 71.23L17.3802 73.59C17.6102 74.12 17.6502 74.62 17.4602 75.07ZM14.7502 74.51C14.8502 74.74 14.9902 74.88 15.1702 74.95C15.3502 75.01 15.5502 75 15.7802 74.89C16.0102 74.79 16.1502 74.65 16.2202 74.47C16.2902 74.29 16.2702 74.09 16.1702 73.86L15.7502 72.93L14.3202 73.58L14.7502 74.51Z" fill="#CC963F"/>
  <path d="M16.4502 82.19C16.0502 82.2 15.6902 82.1 15.3602 81.89C15.0302 81.68 14.7502 81.38 14.5102 80.99C14.1502 80.39 14.0202 79.81 14.1302 79.25C14.2402 78.68 14.6202 78.2 15.2602 77.81L18.4402 75.86L19.1402 77L16.0902 78.87C15.4002 79.29 15.2302 79.78 15.5802 80.34C15.9302 80.91 16.4402 80.98 17.1302 80.56L20.1802 78.69L20.8802 79.83L17.7002 81.78C17.2602 82.05 16.8502 82.18 16.4502 82.19Z" fill="#CC963F"/>
  <path d="M23.59 83.98C23.55 84.39 23.34 84.74 22.97 85.04C22.76 85.21 22.54 85.32 22.31 85.35C22.09 85.38 21.87 85.36 21.66 85.27L21.63 85.29C21.69 85.56 21.68 85.82 21.59 86.08C21.5 86.34 21.33 86.57 21.07 86.78C20.64 87.13 20.21 87.29 19.78 87.25C19.35 87.21 18.97 86.99 18.64 86.57L16.77 84.24L21.37 80.54L23.18 82.78C23.49 83.18 23.63 83.58 23.59 83.98ZM19.37 85.58C19.5 85.74 19.65 85.83 19.81 85.85C19.97 85.86 20.13 85.81 20.29 85.68C20.45 85.55 20.55 85.4 20.57 85.25C20.59 85.09 20.54 84.93 20.4 84.77L19.56 83.73L18.54 84.55L19.37 85.58ZM21.14 84.04C21.26 84.19 21.4 84.28 21.55 84.29C21.7 84.3 21.85 84.25 22 84.13C22.15 84.01 22.24 83.87 22.25 83.72C22.27 83.57 22.22 83.42 22.1 83.27L21.32 82.3L20.36 83.07L21.14 84.04Z" fill="#CC963F"/>
  <path d="M20.6802 88.92L24.8102 84.7L25.7602 85.63L22.5402 88.92L24.4502 90.79L23.5402 91.72L20.6802 88.92Z" fill="#CC963F"/>
  <path d="M24.29 92.32L28.08 87.8L29.1 88.66L25.31 93.18L24.29 92.32Z" fill="#CC963F"/>
  <path d="M30.7603 95.94C30.3903 96.1 30.0003 96.16 29.5903 96.11C29.1803 96.07 28.7903 95.92 28.4203 95.66C27.9903 95.36 27.6803 95 27.4803 94.57C27.2803 94.14 27.2203 93.66 27.2903 93.15C27.3603 92.63 27.5803 92.11 27.9403 91.59C28.3003 91.06 28.7103 90.68 29.1703 90.43C29.6303 90.18 30.0903 90.07 30.5703 90.11C31.0503 90.14 31.5003 90.31 31.9203 90.6C32.2903 90.86 32.5703 91.16 32.7503 91.53C32.9303 91.89 33.0203 92.26 33.0203 92.65C33.0203 93.03 32.9403 93.39 32.7803 93.73L31.5703 93.13C31.6903 92.85 31.7303 92.58 31.6703 92.3C31.6103 92.02 31.4603 91.8 31.2103 91.63C31.0203 91.5 30.8003 91.43 30.5503 91.42C30.3103 91.41 30.0503 91.49 29.7903 91.64C29.5303 91.8 29.2803 92.04 29.0503 92.38C28.8203 92.72 28.6703 93.03 28.6203 93.33C28.5703 93.63 28.5903 93.89 28.6803 94.12C28.7703 94.35 28.9203 94.53 29.1103 94.66C29.3703 94.84 29.6403 94.9 29.9203 94.84C30.2003 94.78 30.4703 94.62 30.7203 94.36L31.7503 95.24C31.4603 95.55 31.1303 95.78 30.7603 95.94Z" fill="#CC963F"/>
  <path d="M33.23 98.44L35.92 93.19L37.11 93.8L34.42 99.05L33.23 98.44Z" fill="#CC963F"/>
  <path d="M40.14 101.49L38.75 100.94L38.33 96.64L38.3 96.63L36.88 100.2L35.75 99.75L37.94 94.27L39.36 94.83L39.78 99.05L39.81 99.06L41.2 95.57L42.33 96.02L40.14 101.49Z" fill="#CC963F"/>
  <path d="M47.9203 97.48L44.7103 102.75L43.1403 102.35L42.8403 96.19L44.2303 96.54L44.3203 101L44.3503 101.01L46.5503 97.13L47.9203 97.48Z" fill="#CC963F"/>
  <path d="M49.52 99.99L52 100.3L51.85 101.45L49.37 101.13L49.22 102.33L51.83 102.66L51.67 103.89L47.73 103.39L48.47 97.54L52.41 98.04L52.26 99.23L49.65 98.9L49.52 99.99Z" fill="#CC963F"/>
  <path d="M55.7303 99.34C55.5803 99.2 55.3703 99.13 55.1103 99.12C54.8803 99.12 54.6903 99.17 54.5503 99.27C54.4103 99.38 54.3403 99.51 54.3403 99.68C54.3403 99.82 54.3903 99.93 54.4903 100.01C54.5903 100.09 54.7503 100.16 54.9603 100.22L55.7703 100.46C56.1303 100.57 56.4203 100.68 56.6403 100.8C56.8603 100.91 57.0503 101.1 57.2003 101.35C57.3503 101.6 57.4203 101.94 57.4203 102.37C57.4103 102.98 57.1903 103.44 56.7703 103.73C56.3503 104.03 55.8103 104.17 55.1703 104.16C54.5203 104.15 53.9803 103.97 53.5503 103.62C53.1203 103.27 52.8903 102.78 52.8403 102.15L54.1603 102.01C54.1803 102.34 54.2903 102.58 54.4803 102.74C54.6703 102.9 54.9103 102.99 55.2003 102.99C55.4503 102.99 55.6503 102.94 55.8103 102.84C55.9703 102.74 56.0503 102.59 56.0503 102.39C56.0503 102.21 56.0003 102.07 55.8803 101.99C55.7703 101.9 55.5703 101.82 55.2803 101.73L54.5503 101.49C54.2203 101.39 53.9603 101.28 53.7503 101.17C53.5403 101.06 53.3703 100.89 53.2303 100.66C53.0903 100.43 53.0203 100.13 53.0303 99.75C53.0403 99.17 53.2403 98.73 53.6403 98.43C54.0403 98.13 54.5503 97.98 55.1803 97.99C55.7603 98 56.2403 98.17 56.6203 98.49C57.0003 98.81 57.2203 99.27 57.3003 99.85L56.0003 99.93C55.9803 99.68 55.8803 99.48 55.7303 99.34Z" fill="#CC963F"/>
  <path d="M62.3004 99.01L60.6804 99.16L61.1203 103.74L59.7904 103.87L59.3503 99.29L57.7304 99.44L57.6104 98.15L62.1804 97.71L62.3004 99.01Z" fill="#CC963F"/>
  <path d="M68.1603 96.4L69.5003 102.15L68.2903 102.43L67.3503 98.4L67.3203 98.41L67.2403 102.67L66.3303 102.88L64.3703 99.09L64.3403 99.1L65.2803 103.13L64.1003 103.41L62.7603 97.66L64.6703 97.22L66.2603 100.51L66.2903 100.5L66.2703 96.85L68.1603 96.4Z" fill="#CC963F"/>
  <path d="M71.1003 97.75L73.4403 96.86L73.8503 97.94L71.5103 98.83L71.9403 99.96L74.4003 99.02L74.8403 100.18L71.1303 101.59L69.0303 96.07L72.7403 94.66L73.1703 95.78L70.7103 96.72L71.1003 97.75Z" fill="#CC963F"/>
  <path d="M80.47 97.33L79.15 98.03L75.6 95.56L75.58 95.57L77.38 98.97L76.31 99.54L73.54 94.33L74.89 93.62L78.38 96.03L78.4 96L76.64 92.68L77.71 92.11L80.47 97.33Z" fill="#CC963F"/>
  <path d="M82.7402 90.2L81.4102 91.14L84.0602 94.91L82.9702 95.68L80.3202 91.91L78.9902 92.85L78.2402 91.79L82.0002 89.14L82.7402 90.2Z" fill="#CC963F"/>
  <path d="M85.49 87.65L86.38 88.58L88.19 86.85L88.99 87.69L87.18 89.42L88.75 91.06L87.79 91.98L83.71 87.72L86.58 84.97L87.41 85.84L85.49 87.65Z" fill="#CC963F"/>
  <path d="M93.6803 84.28C93.8203 84.65 93.8403 85.03 93.7503 85.41C93.6603 85.79 93.4703 86.16 93.1803 86.51C92.7403 87.05 92.2303 87.36 91.6603 87.44C91.0903 87.52 90.5103 87.32 89.9303 86.84L87.0503 84.47L87.9003 83.44L90.6603 85.71C91.2803 86.22 91.8003 86.22 92.2203 85.71C92.6403 85.2 92.5403 84.68 91.9203 84.17L89.1603 81.9L90.0103 80.87L92.8903 83.24C93.2803 83.56 93.5403 83.91 93.6803 84.28Z" fill="#CC963F"/>
  <path d="M98.02 79.3L97.23 80.57L92.92 80.22L92.91 80.24L96.17 82.28L95.53 83.31L90.52 80.19L91.33 78.9L95.55 79.23L95.56 79.21L92.37 77.22L93.01 76.19L98.02 79.3Z" fill="#CC963F"/>
  <path d="M95.8402 71.84C96.4802 71.61 97.2502 71.7 98.1502 72.11C99.0502 72.52 99.6302 73.04 99.8802 73.67C100.13 74.3 100.09 74.98 99.7602 75.72L98.8102 77.83L93.4302 75.4L94.3802 73.29C94.7102 72.55 95.2002 72.07 95.8402 71.84ZM98.5802 75.42C98.7802 74.97 98.8202 74.58 98.6802 74.25C98.5402 73.92 98.1802 73.62 97.5902 73.35C97.0002 73.08 96.5402 73.01 96.2002 73.13C95.8602 73.25 95.5902 73.53 95.3902 73.98L95.0702 74.68L98.2602 76.12L98.5802 75.42Z" fill="#CC963F"/>
  <path fill-rule="evenodd" clip-rule="evenodd" d="M88.7998 56.18V56.11C76.6898 54.42 65.6498 58.61 55.7898 67.48C45.9198 58.61 34.8898 54.42 22.7798 56.11V56.18C35.4098 56.73 45.9998 63.26 54.4698 71.21C56.1298 72.77 58.7398 75.39 59.9898 76.92L59.3398 77.47C58.7698 77.95 58.6998 78.8 59.1798 79.37C59.6598 79.94 60.5098 80.01 61.0798 79.53L61.7198 78.99C62.1398 79.5 62.5198 79.97 62.6798 80.19C62.6798 80.19 64.0198 82.2 65.3898 84.12C68.7398 88.81 73.0498 87 73.4498 84.66C73.8698 82.22 71.6498 81.2 69.8398 81.47C69.8298 81.47 69.4798 81.48 69.0798 81.35C67.7898 80.81 65.7298 78.48 64.3298 76.76L65.5898 75.69C66.1598 75.21 66.2298 74.36 65.7498 73.79C65.2698 73.22 64.4198 73.15 63.8498 73.63L62.6498 74.65C61.2598 72.99 59.8398 71.43 58.3998 69.98C65.7198 63.44 76.1598 56.73 88.7998 56.18Z" fill="white"/>
  <path d="M62.4096 32.01L69.9397 32.73C69.1997 29.87 65.9296 28.73 62.6297 29.14C63.6297 28.14 66.2396 27.41 68.5896 27.58C66.3596 25.09 63.5696 24.99 60.1796 26.51L63.1497 23.51C60.7297 22.53 58.3296 23.88 57.1696 25.56C57.1696 24.8 56.4796 21.58 55.7896 21.03C55.1096 21.58 54.4096 24.8 54.4096 25.56C53.2496 23.88 50.8496 22.53 48.4296 23.51L51.3997 26.51C48.0097 24.99 45.2197 25.09 42.9897 27.58C45.3397 27.42 47.9496 28.14 48.9496 29.14C45.6496 28.73 42.3796 29.87 41.6396 32.73L49.1696 32.01C46.3796 32.85 44.0596 33.63 43.2596 38.44L50.9596 34.49C48.6296 36.11 47.5997 41.01 49.3097 43C49.8897 41.71 52.7496 36.79 53.9196 35.8C54.8296 42.92 54.1896 54.49 53.6996 56.86L53.0496 57.73C51.5996 57.76 48.9497 57.87 47.4697 58.13V58.15C48.3997 58.66 49.3296 59.22 50.2096 59.8C53.1496 59.46 56.9996 59.39 58.7496 60.13C56.6496 60.11 54.2196 60.54 52.0696 61.07H52.0597C53.2697 61.93 54.2496 62.68 54.7596 63.09C55.0496 63.33 55.4396 63.44 55.7996 63.44C56.1596 63.44 56.5396 63.33 56.8396 63.09C57.9096 62.22 61.0596 59.84 64.1296 58.16V58.14C62.6496 57.87 59.9996 57.77 58.5496 57.74L57.8997 56.87C57.4097 54.5 56.7696 42.93 57.6796 35.81C58.8496 36.8 61.7097 41.72 62.2896 43.01C63.9996 41.02 62.9696 36.13 60.6396 34.5L68.3396 38.45C67.5196 33.64 65.1996 32.85 62.4096 32.01Z" fill="white"/>
  <path fill-rule="evenodd" clip-rule="evenodd" d="M51.59 76.92C52.27 76.08 53.36 74.92 54.48 73.78C54.02 73.33 53.58 72.9 53.2 72.55C52.76 72.13 52.31 71.72 51.85 71.32C50.85 72.38 49.87 73.49 48.9 74.65L47.7 73.63C47.13 73.15 46.28 73.22 45.8 73.79C45.32 74.36 45.39 75.21 45.96 75.69L47.22 76.76C45.82 78.48 43.77 80.81 42.47 81.35C42.07 81.48 41.72 81.47 41.71 81.47C39.9 81.2 37.69 82.22 38.1 84.66C38.51 86.99 42.81 88.81 46.16 84.12C47.53 82.2 48.87 80.19 48.87 80.19C49.03 79.97 49.42 79.5 49.83 78.99L50.47 79.53C51.04 80.01 51.89 79.94 52.37 79.37C52.85 78.8 52.78 77.95 52.21 77.47L51.59 76.92Z" fill="white"/>
</svg>