<svg width="250" height="112" viewBox="0 0 250 112" fill="none" xmlns="http://www.w3.org/2000/svg">
<g id="Group">
<g id="Group_2">
<g id="Group_3">
<path id="Vector" d="M175.39 24.5099C174.73 22.3399 173.58 20.4399 171.94 18.7899C170.29 17.1399 168.03 15.8299 165.15 14.8399C162.27 13.8499 158.61 13.3599 154.17 13.3599H133.85H130.39V13.6999C130.39 13.6999 133.85 16.0999 133.85 22.4699V68.7999H143.64V21.5899H154C156.47 21.5899 158.51 21.8099 160.13 22.2499C161.75 22.6899 163.04 23.3199 164 24.1399C164.96 24.9599 165.63 25.9899 166.02 27.2199C166.4 28.4499 166.6 29.8899 166.6 31.5399C166.6 33.1299 166.42 34.5599 166.06 35.8199C165.7 37.0799 165.06 38.1599 164.13 39.0699C163.2 39.9799 161.92 40.6699 160.3 41.1699C158.68 41.6599 156.61 41.9099 154.09 41.9099H150.39L146.93 50.2199H154.34C158.67 50.2199 162.26 49.7099 165.12 48.6999C167.97 47.6899 170.23 46.3099 171.91 44.5899C173.58 42.8599 174.75 40.8499 175.41 38.5399C176.07 36.2399 176.4 33.8199 176.4 31.2999C176.37 28.9399 176.04 26.6799 175.39 24.5099Z" fill="#005C4D"/>
<path id="Vector_2" d="M183.95 13.3601V13.7001C183.95 13.7001 187.41 16.1001 187.41 22.4701V23.6001V68.8001H197.36V13.3301L187.41 13.3601H183.95Z" fill="#005C4D"/>
<path id="Vector_3" d="M246.54 21.9201L250 13.3701H212.49H209.03V13.7101C209.03 13.7101 212.49 16.1101 212.49 22.4801V23.6101V68.8001H222.44V47.1701H241.95L245.41 38.6201H222.44V21.9201H246.54Z" fill="#005C4D"/>
</g>
<g id="Group_4">
<path id="Vector_4" d="M197.371 80.3301H133.791V81.2501H197.371V80.3301Z" fill="#CC963F"/>
<g id="Group_5">
<path id="Vector_5" d="M204.89 80.5399C204.89 82.0799 206.08 83.0199 207.55 83.0199H208.82C208.48 83.8899 207.53 84.3299 206.51 84.3299C205.17 84.3299 203.84 83.6599 203.84 82.2399V81.1199L202.34 81.4199V82.0599C202.34 84.3499 204.32 85.3399 206.42 85.3399C208.64 85.3399 210.51 84.3299 210.51 81.9299V77.9399H207.93C206.39 77.9399 204.89 78.7499 204.89 80.5399ZM209.01 81.8399C209.01 81.8799 209.01 81.9599 209 82.0099H207.86C207.03 82.0099 206.38 81.4599 206.38 80.4999C206.38 79.4799 207.1 78.9499 207.9 78.9499H209.01V81.8399Z" fill="#CC963F"/>
<path id="Vector_6" d="M207.18 76.7401C207.56 76.7401 207.88 76.4301 207.88 76.0601C207.88 75.6801 207.57 75.3701 207.18 75.3701C206.81 75.3701 206.5 75.6801 206.5 76.0601C206.49 76.4201 206.81 76.7401 207.18 76.7401Z" fill="#CC963F"/>
<path id="Vector_7" d="M209.04 76.7401C209.42 76.7401 209.72 76.4301 209.72 76.0601C209.72 75.6801 209.42 75.3701 209.04 75.3701C208.66 75.3701 208.36 75.6801 208.36 76.0601C208.35 76.4201 208.65 76.7401 209.04 76.7401Z" fill="#CC963F"/>
<path id="Vector_8" d="M211.811 80.5503C211.811 82.0903 213.001 83.0203 214.471 83.0203H215.921C215.811 84.0703 215.241 84.4803 214.081 84.4803H213.231V85.4203H214.331C216.311 85.4203 217.431 84.6703 217.431 82.4203V77.9503H214.851C213.321 77.9403 211.811 78.7503 211.811 80.5503ZM215.931 82.0003H214.781C213.961 82.0003 213.301 81.4603 213.301 80.5003C213.301 79.4803 214.021 78.9403 214.841 78.9403H215.941V82.0003H215.931Z" fill="#CC963F"/>
<path id="Vector_9" d="M232.06 77.1499C232.48 77.1499 232.82 76.8099 232.82 76.3899C232.82 75.9799 232.47 75.6299 232.06 75.6299C231.63 75.6299 231.3 75.9799 231.3 76.3899C231.3 76.8099 231.63 77.1499 232.06 77.1499Z" fill="#CC963F"/>
<path id="Vector_10" d="M245.29 78.5699H241.911L241.601 79.2399V78.1199L240.111 78.3999V81.9999H237.061H233.631H232.751V78.2899L231.26 78.5799V81.9999H227.84H223.891H223.241V80.4299C223.241 78.6799 222.281 77.9199 220.521 77.9199H219.15V78.9199H220.15C221.23 78.9199 221.751 79.2899 221.751 80.2399V81.9999H218.521V83.0099H223.891H227.84H231.251C231.751 83.0099 232.17 82.8199 232.43 82.4899L232.79 83.0099H233.631H237.061H248.161V81.0699C248.151 79.2799 246.79 78.5699 245.29 78.5699ZM246.661 81.9999H241.59V79.5699H245.15C246.07 79.5699 246.65 80.0899 246.65 80.8799V81.9999H246.661Z" fill="#CC963F"/>
</g>
<g id="Group_6">
<path id="Vector_11" d="M135.5 91.6198C135.88 91.6198 136.19 91.3098 136.19 90.9398C136.19 90.5598 135.88 90.2397 135.5 90.2397C135.13 90.2397 134.82 90.5498 134.82 90.9398C134.82 91.2998 135.13 91.6198 135.5 91.6198Z" fill="#CC963F"/>
<path id="Vector_12" d="M137.36 91.6198C137.74 91.6198 138.04 91.3098 138.04 90.9398C138.04 90.5598 137.74 90.2397 137.36 90.2397C136.98 90.2397 136.68 90.5498 136.68 90.9398C136.68 91.2998 136.98 91.6198 137.36 91.6198Z" fill="#CC963F"/>
<path id="Vector_13" d="M144.51 92.6901H142.6L141.96 95.0501C141.69 96.1301 141.39 96.7201 140.39 96.7201H140.15H139.28V92.3701L137.79 92.6701V93.0201H136.08C134.68 93.0201 133.63 93.9501 133.63 95.3701C133.63 96.7901 134.68 97.7201 136.08 97.7201H137.54L138.02 96.9801C138.29 97.4401 138.79 97.7201 139.42 97.7201H140.16H140.49C142.19 97.7201 143.07 96.8701 143.47 95.2301L143.84 93.6801H144.52C145.32 93.6801 146.03 94.2301 146.03 95.2201V96.7101H142.85L143.56 97.7201H147.53V95.3101C147.52 93.5401 146.05 92.6901 144.51 92.6901ZM136.42 96.7301C135.62 96.7301 135.1 96.1901 135.1 95.3901C135.1 94.5901 135.63 94.0501 136.42 94.0501H137.79V96.1201C137.79 96.3401 137.82 96.5501 137.89 96.7401H136.42V96.7301Z" fill="#CC963F"/>
<path id="Vector_14" d="M166.67 96.7299H162.19H160.59C161.34 96.1799 161.76 95.4199 161.76 94.6999C161.76 93.6099 160.82 92.6499 158.99 92.6499C158 92.6499 157.02 92.9299 156.23 93.2099L155.73 93.9299L155.81 93.9899L155.72 93.9999L155.94 94.4999C156.57 95.5599 156.95 96.2499 157.44 96.7199H154.26H151.28H151.23H150.4V89.3599L148.91 89.6499V96.2299C148.91 97.1299 149.5 97.7299 150.41 97.7299H151.22H151.27H154.25H157.15C157.83 97.7299 158.31 97.5199 158.81 97.3599C159.18 97.5099 159.57 97.7299 160.21 97.7299H162.17H168.14V89.3599L166.65 89.6399V96.7299H166.67ZM159.06 96.5399C158.4 96.1199 157.79 95.1999 157.33 94.4199C157.29 94.3499 157.13 94.1499 156.99 93.9799C157.52 93.8099 158.16 93.6599 158.67 93.6599C159.61 93.6599 160.26 94.1899 160.26 94.9799C160.27 95.5799 159.89 96.2299 159.06 96.5399Z" fill="#CC963F"/>
<path id="Vector_15" d="M169.91 97.7399H171.4V89.3599L169.91 89.6599V97.7399Z" fill="#CC963F"/>
<path id="Vector_16" d="M180.981 93.37C181.361 93.37 181.661 93.06 181.661 92.69C181.661 92.31 181.361 92 180.981 92C180.601 92 180.301 92.31 180.301 92.69C180.291 93.05 180.601 93.37 180.981 93.37Z" fill="#CC963F"/>
<path id="Vector_17" d="M179.12 93.37C179.5 93.37 179.81 93.06 179.81 92.69C179.81 92.31 179.5 92 179.12 92C178.75 92 178.44 92.31 178.44 92.69C178.43 93.05 178.75 93.37 179.12 93.37Z" fill="#CC963F"/>
<path id="Vector_18" d="M183.04 96.73H178.02C176.98 96.73 176.66 96.35 176.66 95.27V94.23L175.17 94.52V94.97C175.17 96.94 176.11 97.74 177.84 97.74H184.53V93.02L183.04 93.31V96.73Z" fill="#CC963F"/>
<path id="Vector_19" d="M186.271 97.7399H187.76V89.3599L186.271 89.6599V97.7399Z" fill="#CC963F"/>
<path id="Vector_20" d="M189.52 98.14C189.52 99.09 189.08 99.51 188.19 99.65L188.53 100.58C190.28 100.36 191.02 99.4 191.02 97.81V93.02L189.53 93.31V98.14H189.52Z" fill="#CC963F"/>
<path id="Vector_21" d="M211.78 91.87C212.16 91.87 212.47 91.56 212.47 91.19C212.47 90.81 212.16 90.5 211.78 90.5C211.41 90.5 211.1 90.81 211.1 91.19C211.09 91.56 211.41 91.87 211.78 91.87Z" fill="#CC963F"/>
<path id="Vector_22" d="M212.67 90.2899C213.05 90.2899 213.35 89.9799 213.35 89.6099C213.35 89.2299 213.05 88.9199 212.67 88.9199C212.29 88.9199 211.99 89.2299 211.99 89.6099C211.99 89.9799 212.29 90.2899 212.67 90.2899Z" fill="#CC963F"/>
<path id="Vector_23" d="M212.96 91.19C212.96 91.56 213.26 91.87 213.64 91.87C214.02 91.87 214.32 91.56 214.32 91.19C214.32 90.81 214.02 90.5 213.64 90.5C213.26 90.5 212.96 90.81 212.96 91.19Z" fill="#CC963F"/>
<path id="Vector_24" d="M219.86 91.87C220.24 91.87 220.56 91.56 220.56 91.19C220.56 90.81 220.25 90.5 219.86 90.5C219.49 90.5 219.18 90.81 219.18 91.19C219.18 91.56 219.49 91.87 219.86 91.87Z" fill="#CC963F"/>
<path id="Vector_25" d="M221.721 91.87C222.101 91.87 222.401 91.56 222.401 91.19C222.401 90.81 222.101 90.5 221.721 90.5C221.341 90.5 221.041 90.81 221.041 91.19C221.041 91.56 221.341 91.87 221.721 91.87Z" fill="#CC963F"/>
<path id="Vector_26" d="M235.85 96.7301H233.98C234.02 96.5801 234.05 96.4201 234.05 96.2401V93.3601L232.56 93.6501V96.7301H230.48V93.3801L228.98 93.6601V96.7301H225.67H225.55H223.29H223.27H222.41V93.0201L220.92 93.3101V96.7301H219.2H219.19H215.18H215.17H214.31V93.0201L212.82 93.3101V96.7301H211.16H211.1H206.66H206.64H206V95.3301C206 93.5501 204.52 92.7001 202.99 92.7001H201.08L200.44 95.0601C200.17 96.1401 199.87 96.7301 198.87 96.7301H198.62C198.6 96.7301 198.6 96.7601 198.59 96.7601C198.58 96.7501 198.58 96.7301 198.56 96.7301H194.91H194.89H194.04V89.3701L192.55 89.6601V96.2401C192.55 97.1401 193.14 97.7401 194.05 97.7401H194.89H194.91H198.56C198.58 97.7401 198.57 97.7101 198.59 97.7101C198.61 97.7201 198.6 97.7401 198.62 97.7401H198.96C200.67 97.7401 201.54 96.8901 201.94 95.2501L202.31 93.7001H203C203.8 93.7001 204.51 94.2501 204.51 95.2401V96.7301H201.33L202.04 97.7401H206.63H206.65H211.09H211.15H212.8C213.3 97.7401 213.72 97.5501 213.98 97.2201L214.34 97.7401H215.17H215.18H219.19H219.2H220.91C221.41 97.7401 221.83 97.5501 222.09 97.2201L222.45 97.7401H223.28H223.3H225.56H225.68H232.57C233.09 97.7401 233.5 97.5401 233.77 97.2001L234.14 97.7401H237.37V93.0201L235.88 93.3101V96.7301H235.85Z" fill="#CC963F"/>
<path id="Vector_27" d="M243.39 96.7299H241.35V90.7399L239.86 91.0399V96.7299H238.42V97.7399H244.88V89.3599L243.39 89.6399V96.7299Z" fill="#CC963F"/>
<path id="Vector_28" d="M246.62 89.6599V97.7399H248.11V89.3599L246.62 89.6599Z" fill="#CC963F"/>
</g>
</g>
</g>
<g id="Group_7">
<g id="Group_8">
<g id="Group_9">
<path id="Vector_29" d="M111.57 55.79C111.57 86.6 86.59 111.58 55.78 111.58C24.97 111.58 0 86.6 0 55.79C0 24.98 24.98 0 55.79 0C86.6 0 111.57 24.98 111.57 55.79ZM55.79 4.18C27.29 4.18 4.19 27.28 4.19 55.78C4.19 84.28 27.29 107.38 55.79 107.38C84.29 107.38 107.39 84.28 107.39 55.78C107.39 27.28 84.28 4.18 55.79 4.18Z" fill="#005C4D"/>
<g id="Group_10">
<path id="Vector_30" d="M55.7902 16.8999C34.3202 16.8999 16.9102 34.3099 16.9102 55.7799C16.9102 77.2499 34.3202 94.6599 55.7902 94.6599C77.2602 94.6599 94.6702 77.2499 94.6702 55.7799C94.6702 34.3099 77.2602 16.8999 55.7902 16.8999ZM55.7902 92.9899C35.2402 92.9899 18.5802 76.3299 18.5802 55.7799C18.5802 35.2299 35.2402 18.5699 55.7902 18.5699C76.3402 18.5699 93.0002 35.2299 93.0002 55.7799C92.9902 76.3399 76.3402 92.9899 55.7902 92.9899Z" fill="#005C4D"/>
</g>
<g id="Group_11">
<path id="Vector_31" d="M103.64 48.64L97.73 49.75L97.5 48.4L103.4 47.29L103.64 48.64Z" fill="#005C4D"/>
<path id="Vector_32" d="M103.33 64.89L97.3901 63.88L97.6401 62.54L103.56 63.54L103.33 64.89Z" fill="#005C4D"/>
<path id="Vector_33" d="M97.8403 61.3799L97.9803 60.0299L100.15 60.2599L100.28 59.0799C100.39 58.0899 101.09 57.3199 102.31 57.4499C103.45 57.5699 104.24 58.3899 104.08 59.8599C103.91 61.4599 102.84 61.9099 101.63 61.7799L97.8403 61.3799ZM102.02 60.4499C102.65 60.5199 103.11 60.2699 103.16 59.7399C103.21 59.2699 102.91 58.8999 102.23 58.8199C101.6 58.7499 101.19 59.0399 101.14 59.4999L101.05 60.3399L102.02 60.4499Z" fill="#005C4D"/>
<path id="Vector_34" d="M101.97 51.7403L102.03 52.7403L104.1 52.6203L104.18 53.9803L102.11 54.1003L102.17 55.0703L104.17 54.9503L104.25 56.3003L101.34 56.4703L101.07 51.7903L97.9799 51.9703L97.8999 50.6103L103.91 50.2603L103.99 51.6203L101.97 51.7403Z" fill="#005C4D"/>
</g>
<g id="Group_12">
<path id="Vector_35" d="M13.72 50.46L8 49.59L8.2 48.25L11.91 48.81L12.07 47.77L13.06 47.92L13.04 48.07C12.99 48.38 13.05 48.64 13.23 48.86C13.4 49.08 13.62 49.24 13.9 49.33L13.72 50.46Z" fill="#005C4D"/>
<path id="Vector_36" d="M9.92996 52.0602C10.09 51.8002 10.32 51.5902 10.61 51.4302C10.9 51.2702 11.24 51.2102 11.64 51.2302C12.11 51.2602 12.49 51.3802 12.78 51.6002C13.07 51.8202 13.28 52.0902 13.41 52.4102C13.54 52.7302 13.59 53.0502 13.57 53.3902C13.53 54.1602 13.24 54.7002 12.7 55.0202C12.16 55.3302 11.41 55.4602 10.44 55.4102C9.33996 55.3502 8.57996 55.1102 8.15996 54.7002C7.72996 54.2802 7.53996 53.7402 7.56996 53.0702C7.59996 52.5602 7.74996 52.1502 8.03996 51.8202C8.32996 51.4902 8.70996 51.2902 9.18996 51.2002L9.29996 52.4902C8.84996 52.5602 8.61996 52.7702 8.59996 53.1202C8.57996 53.4402 8.70996 53.6702 8.97996 53.8102C9.24996 53.9602 9.60996 54.0402 10.05 54.0702V54.0402C9.89996 53.8902 9.79996 53.7102 9.72996 53.5202C9.65996 53.3202 9.63996 53.1102 9.64996 52.8902C9.67996 52.6002 9.76996 52.3202 9.92996 52.0602ZM10.92 52.7202C10.75 52.8602 10.65 53.0402 10.64 53.2702C10.63 53.4902 10.7 53.6802 10.87 53.8502C11.03 54.0202 11.26 54.1102 11.55 54.1302C11.85 54.1502 12.08 54.0802 12.26 53.9302C12.44 53.7802 12.53 53.6002 12.54 53.3802C12.55 53.1602 12.48 52.9702 12.33 52.8102C12.18 52.6502 11.94 52.5602 11.64 52.5502C11.33 52.5202 11.09 52.5802 10.92 52.7202Z" fill="#005C4D"/>
<path id="Vector_37" d="M13.3498 56.04L13.5798 60.24L12.3298 60.31L7.67984 58.2L7.58984 56.62L12.2498 58.81L12.0998 56.12L13.3498 56.04Z" fill="#005C4D"/>
<path id="Vector_38" d="M14.0401 63.22L8.32012 64.08L8.12012 62.74L11.8301 62.18L11.6701 61.14L12.6601 61L12.6801 61.15C12.7301 61.46 12.8601 61.69 13.0901 61.85C13.3201 62.01 13.5801 62.09 13.8701 62.11L14.0401 63.22Z" fill="#005C4D"/>
</g>
<g id="Group_13">
<g id="Group_14">
<path id="Vector_39" d="M95.53 29.4002C95.84 29.1802 95.92 28.7502 95.69 28.4402C95.47 28.1302 95.04 28.0502 94.72 28.2702C94.41 28.4902 94.33 28.9302 94.55 29.2402C94.78 29.5602 95.21 29.6202 95.53 29.4002Z" fill="#005C4D"/>
<path id="Vector_40" d="M97.1997 36.1101L96.0197 33.6501L95.2997 33.7301L96.1597 33.1901L95.3997 31.9601L92.9497 33.4301C92.6397 32.9201 92.3297 32.4201 91.9997 31.9301L94.3797 30.2501L93.5297 29.0401L91.1797 30.7101C90.8497 30.2501 90.5197 29.7901 90.1697 29.3401L90.8897 28.7401C91.9697 27.8401 92.0597 26.8301 91.0497 25.6201L90.3997 24.8301L89.6597 25.4901L90.0597 25.9701C90.6197 26.6501 90.5897 27.0801 90.0997 27.4801L89.2397 28.1901C88.7297 27.5701 88.2097 26.9701 87.6697 26.3801L86.9497 27.0501C88.1797 28.3801 89.3197 29.8001 90.3697 31.2801H90.3797C90.6697 31.6801 91.0097 31.9101 91.4197 31.9501L91.2297 32.5401C92.7397 34.8401 94.0297 37.2801 95.0797 39.8601L96.4597 39.1601C97.8497 38.4901 97.7497 37.2001 97.1997 36.1101ZM95.9997 37.7801L95.3897 38.0901C94.8797 36.9401 94.3097 35.8201 93.6997 34.7301L95.0297 33.9001L96.2697 36.4601C96.5697 37.0301 96.4497 37.5401 95.9997 37.7801Z" fill="#005C4D"/>
<path id="Vector_41" d="M85.2499 19.8301L83.3699 22.3201C82.1799 23.8901 80.4199 23.5501 79.0199 22.4901C77.6599 21.4701 76.7899 19.8301 77.9399 18.3001L78.4099 17.7001L79.5899 18.5901L79.0299 19.3301C78.3799 20.1901 78.9199 21.1701 79.6799 21.7401C80.2299 22.1601 80.9199 22.3401 81.4899 22.0501L80.8199 21.5501C79.8499 20.8201 79.5899 19.6501 80.2999 18.7101C81.1699 17.5601 82.5399 17.7801 83.5399 18.5301L85.2499 19.8301ZM82.9299 19.3201C82.4899 18.9901 81.8999 19.0201 81.4999 19.5501C81.1199 20.0601 81.2199 20.6401 81.6799 20.9901L82.2199 21.4001C82.2399 21.3801 82.2799 21.3301 82.2899 21.3101L83.4799 19.7401L82.9299 19.3201ZM83.5299 17.4201C83.2599 17.2201 83.1999 16.8301 83.4099 16.5501C83.6199 16.2701 84.0099 16.2201 84.2799 16.4201C84.5599 16.6301 84.6099 17.0201 84.3999 17.3001C84.1999 17.5701 83.8099 17.6301 83.5299 17.4201ZM84.7999 18.3801C84.5299 18.1701 84.4699 17.7901 84.6799 17.5201C84.8899 17.2401 85.2799 17.1901 85.5499 17.3901C85.8299 17.6001 85.8799 17.9901 85.6699 18.2701C85.4699 18.5301 85.0799 18.5901 84.7999 18.3801Z" fill="#005C4D"/>
<path id="Vector_42" d="M89.4501 23.7502L87.0401 26.2502C85.7001 27.6402 84.5901 27.3402 83.4201 26.2102L82.8501 25.6602L83.4901 25.0002L83.9001 25.3902C84.5001 25.9702 84.9801 26.0902 85.5701 25.6102L84.8501 24.9202C83.9801 24.0802 83.8601 22.9002 84.6901 22.0402C85.6901 21.0102 87.0201 21.3902 87.9201 22.2602L89.4501 23.7502ZM86.2701 24.9302L87.7101 23.4402L87.2201 22.9702C86.8301 22.5902 86.2401 22.5402 85.7801 23.0202C85.3401 23.4802 85.3701 24.0602 85.7901 24.4702L86.2701 24.9302Z" fill="#005C4D"/>
</g>
<g id="Group_15">
<g id="Group_16">
<path id="Vector_43" d="M35.5803 14.7104C35.8903 14.5504 36.0103 14.1804 35.8503 13.8804C35.6903 13.5704 35.3203 13.4504 35.0103 13.6104C34.7103 13.7704 34.5903 14.1404 34.7503 14.4504C34.9003 14.7504 35.2803 14.8704 35.5803 14.7104Z" fill="#005C4D"/>
<path id="Vector_44" d="M34.1701 15.4404C34.4801 15.2804 34.6001 14.9104 34.4401 14.6104C34.2801 14.3004 33.9101 14.1804 33.6001 14.3404C33.3001 14.5004 33.1801 14.8704 33.3401 15.1804C33.4901 15.4804 33.8701 15.6004 34.1701 15.4404Z" fill="#005C4D"/>
</g>
<g id="Group_17">
<path id="Vector_45" d="M54.77 8.13023C54.78 8.47023 55.06 8.74023 55.4 8.74023C55.75 8.73023 56.02 8.45023 56.02 8.11023C56.01 7.76023 55.73 7.49023 55.38 7.49023C55.04 7.50023 54.77 7.78023 54.77 8.13023Z" fill="#005C4D"/>
<path id="Vector_46" d="M53.8102 8.76025C54.1602 8.75025 54.4302 8.47025 54.4302 8.13025C54.4202 7.78025 54.1402 7.51025 53.8002 7.51025C53.4602 7.52025 53.1902 7.80025 53.1902 8.14025C53.1802 8.50025 53.4702 8.77025 53.8102 8.76025Z" fill="#005C4D"/>
<path id="Vector_47" d="M54.5504 7.41016C54.9004 7.40016 55.1704 7.12016 55.1704 6.78016C55.1604 6.43016 54.8804 6.16016 54.5304 6.16016C54.1904 6.17016 53.9204 6.45016 53.9204 6.80016C53.9304 7.14016 54.2104 7.42016 54.5504 7.41016Z" fill="#005C4D"/>
</g>
<g id="Group_18">
<path id="Vector_48" d="M58.9799 8.85046C59.3299 8.87046 59.6199 8.61046 59.6399 8.27046C59.6599 7.92046 59.3999 7.63046 59.0499 7.61046C58.7099 7.59046 58.4199 7.85045 58.3899 8.20045C58.3799 8.53045 58.6399 8.83046 58.9799 8.85046Z" fill="#005C4D"/>
<path id="Vector_49" d="M57.3998 8.75036C57.7498 8.77036 58.0398 8.51036 58.0598 8.17036C58.0798 7.82036 57.8198 7.53036 57.4698 7.51036C57.1298 7.49036 56.8398 7.75036 56.8098 8.10036C56.7998 8.43036 57.0598 8.73036 57.3998 8.75036Z" fill="#005C4D"/>
</g>
<path id="Vector_50" d="M39.87 16.4804L38.41 12.8804L37.26 13.3504L38.37 16.0904C36.87 16.7404 35.29 17.5904 34.51 18.0304C33.91 18.3704 33.59 18.2704 33.27 17.6804L32.83 16.8604L31.54 17.5604L31.83 18.1004C32.59 19.5004 33.56 19.5804 34.79 18.9604C36.42 18.0204 38.12 17.1904 39.87 16.4804Z" fill="#005C4D"/>
<path id="Vector_51" d="M63.8301 14.1602C64.3201 14.2502 64.7501 14.1502 65.0601 13.8802L65.3201 14.4802C66.1501 14.6702 66.9601 14.8802 67.7701 15.1202L68.7501 11.3602L67.3201 10.9902L66.5901 13.7802C66.1901 13.6802 65.7801 13.5802 65.3701 13.4902C65.4401 13.3602 65.5001 13.1902 65.5301 13.0302L65.9401 11.0302L64.4901 10.7302L64.0001 13.1902C63.5101 13.1002 63.0201 13.0102 62.5201 12.9302L62.8701 10.5002L61.4101 10.2902L61.0601 12.7302C60.5201 12.6602 59.8401 12.6002 59.3001 12.5502L59.5401 9.66021L58.0701 9.54021L57.8301 12.4602C57.2301 12.4302 56.6201 12.4102 56.0101 12.4102L56.0201 9.51021L54.5501 9.50021L54.5201 12.4202C53.9801 12.4402 53.4401 12.4602 52.9001 12.5002L52.7801 11.5202C52.5901 10.0802 51.3201 9.55021 50.0601 9.71021L48.3401 9.98021L48.2001 11.9102C48.0901 12.6802 47.8901 13.1502 47.2701 13.2602L46.5601 13.4102L45.2601 8.22021L43.8301 8.56021L45.0301 13.2902C45.2301 14.1402 45.9201 14.5502 46.7701 14.3702C47.0201 14.3202 47.2601 14.2702 47.5101 14.2202C48.3701 14.0502 48.9701 13.7002 49.3001 13.0902L49.9901 13.8002C51.5101 13.5902 53.0601 13.4702 54.6301 13.4202C55.1201 13.4102 55.4401 13.2102 55.7001 12.9002L56.1301 13.4002V13.4102C56.7101 13.4102 57.2801 13.4302 57.8501 13.4602C58.3401 13.4802 58.7401 13.3202 59.0201 13.0302L59.3401 13.5602C60.8501 13.6702 62.3501 13.8802 63.8301 14.1602ZM49.3701 12.8902C49.4901 12.6102 49.6201 12.2602 49.6701 11.9002L49.8001 10.7502L50.1801 10.7002C50.7101 10.6302 51.2101 10.9502 51.3001 11.6302L51.4301 12.6402C50.7401 12.7002 50.0501 12.7902 49.3701 12.8902Z" fill="#005C4D"/>
<path id="Vector_52" d="M75.8102 11.3703L74.4602 10.7803L72.4102 15.7103C71.9802 15.5303 71.5502 15.3603 71.1102 15.2003L72.5102 11.0703L71.1202 10.5703L69.7202 14.7003C69.3802 14.5803 69.0302 14.4703 68.6802 14.3603L68.4102 15.3103C70.1102 15.8403 71.7701 16.4803 73.3801 17.2103L75.8102 11.3703Z" fill="#005C4D"/>
<path id="Vector_53" d="M39.85 9.74023L42.1 15.6602L40.71 16.1602L38.46 10.2502L39.85 9.74023Z" fill="#005C4D"/>
<path id="Vector_54" d="M44.4502 14.7599C44.8202 16.0099 44.4302 16.9899 43.0702 17.6199L42.4802 16.8499C43.0602 16.5299 43.3302 16.1799 43.1402 15.5099L41.9902 11.6099L43.4002 11.1899L44.4502 14.7599Z" fill="#005C4D"/>
<path id="Vector_55" d="M78.37 12.6102L75.61 18.3002L74.29 17.6302L77.04 11.9502L78.37 12.6102Z" fill="#005C4D"/>
</g>
<g id="Group_19">
<path id="Vector_56" d="M12.2701 35.8098C11.9501 35.6698 11.5901 35.7998 11.4401 36.1198C11.3001 36.4298 11.4401 36.7998 11.7501 36.9398C12.0601 37.0798 12.4301 36.9398 12.5701 36.6298C12.7101 36.3198 12.5801 35.9498 12.2701 35.8098Z" fill="#005C4D"/>
<path id="Vector_57" d="M12.9303 34.3601C12.6103 34.2101 12.2403 34.3501 12.1003 34.6701C11.9603 34.9801 12.1003 35.3501 12.4103 35.4901C12.7203 35.6301 13.0903 35.4901 13.2303 35.1901C13.3803 34.8701 13.2403 34.5001 12.9303 34.3601Z" fill="#005C4D"/>
</g>
<path id="Vector_58" d="M21.5101 30.84C21.3701 30.76 20.7901 30.42 19.7701 29.76C18.5801 28.99 17.3101 29.63 16.6301 30.71L15.7901 32.04L17.1301 33.55C17.6601 34.12 17.9501 34.58 17.6601 35.14L17.6301 35.19L17.5501 35.34L17.3001 35.82L14.3201 34.28L13.6401 35.59L14.1501 35.85L13.6201 36.87C13.1201 37.87 13.3801 38.99 14.3901 39.5C15.4001 40.01 16.5101 39.57 17.0101 38.58L17.0701 38.46C17.1401 38.3 17.2101 38.14 17.2901 37.99L17.4501 37.65L17.1401 37.05C17.5301 36.98 17.8601 36.73 18.1001 36.35C18.2001 36.15 18.5301 35.53 18.5301 35.53C18.9401 34.76 19.0201 34.19 18.7901 33.54L19.7901 33.37L19.8001 33.36C20.3501 32.5 20.9201 31.66 21.5101 30.84ZM16.3201 37.85C16.1001 38.33 15.6301 38.5 15.1601 38.27C14.6601 38.04 14.5001 37.58 14.7201 37.1L15.0801 36.34L16.1901 36.92C16.3601 37.01 16.5201 37.06 16.6801 37.1L16.3201 37.85ZM18.7901 33.24L18.7201 33.35C18.5901 33.07 18.2901 32.68 18.0901 32.46C17.8901 32.24 17.2801 31.57 17.2801 31.57L17.4901 31.24C17.7801 30.79 18.3401 30.6 18.9201 30.97L19.8701 31.57C19.4901 32.11 19.1301 32.67 18.7901 33.24Z" fill="#005C4D"/>
<path id="Vector_59" d="M24.3702 27.33C24.7902 26.87 24.9602 26.44 25.1502 26.02C25.4902 25.91 25.8902 25.77 26.2802 25.36C27.2102 24.38 28.2602 23.52 29.3102 22.68L25.3802 17.73L24.2402 18.67L27.6002 22.91C26.9902 23.43 26.4002 23.97 25.8202 24.53C25.9102 23.83 25.6902 23.17 25.3102 22.81C24.7102 22.23 23.6502 22.24 22.6102 23.33C22.0702 23.9 21.6802 24.61 21.3902 25.21C21.3902 25.21 21.5502 25.92 21.5602 25.97C21.5802 26.06 21.7602 26.14 21.9002 26.17C22.0402 26.21 23.3902 26.46 23.9002 26.51C23.2602 27.21 22.6402 27.93 22.0502 28.66L22.0402 28.67L17.8302 25.29L16.9302 26.45L20.7002 29.49C21.3802 30.04 22.2202 29.95 22.7602 29.26C23.2602 28.59 23.8002 27.95 24.3702 27.33ZM22.5202 25.09C22.6802 24.78 22.8902 24.44 23.1102 24.21C23.5502 23.74 24.1002 23.65 24.5102 24.04C24.7902 24.31 24.9302 24.76 24.7502 25.26C24.1702 25.34 22.7102 25.12 22.5202 25.09Z" fill="#005C4D"/>
<g id="Group_20">
<path id="Vector_60" d="M27.5601 16.0801L31.2201 21.2301L30.0301 22.1001L26.3701 16.9501L27.5601 16.0801Z" fill="#005C4D"/>
</g>
</g>
</g>
<g id="Group_21">
<path id="Vector_61" d="M17.4602 75.07C17.2802 75.52 16.9002 75.87 16.3402 76.13C15.7702 76.39 15.2602 76.44 14.8102 76.28C14.3502 76.12 14.0002 75.77 13.7602 75.23L13.2402 74.08L11.4802 74.88L10.9302 73.66L16.3102 71.23L17.3802 73.59C17.6102 74.12 17.6502 74.62 17.4602 75.07ZM14.7502 74.51C14.8502 74.74 14.9902 74.88 15.1702 74.95C15.3502 75.01 15.5502 75 15.7802 74.89C16.0102 74.79 16.1502 74.65 16.2202 74.47C16.2902 74.29 16.2702 74.09 16.1702 73.86L15.7502 72.93L14.3202 73.58L14.7502 74.51Z" fill="#005C4D"/>
<path id="Vector_62" d="M16.4502 82.1899C16.0502 82.1999 15.6902 82.0999 15.3602 81.8899C15.0302 81.6799 14.7502 81.3799 14.5102 80.9899C14.1502 80.3899 14.0202 79.8099 14.1302 79.2499C14.2402 78.6799 14.6202 78.1999 15.2602 77.8099L18.4402 75.8599L19.1402 76.9999L16.0902 78.8699C15.4002 79.2899 15.2302 79.7799 15.5802 80.3399C15.9302 80.9099 16.4402 80.9799 17.1302 80.5599L20.1802 78.6899L20.8802 79.8299L17.7002 81.7799C17.2602 82.0499 16.8502 82.1799 16.4502 82.1899Z" fill="#005C4D"/>
<path id="Vector_63" d="M23.59 83.98C23.55 84.39 23.34 84.74 22.97 85.04C22.76 85.21 22.54 85.32 22.31 85.35C22.09 85.38 21.87 85.36 21.66 85.27L21.63 85.29C21.69 85.56 21.68 85.82 21.59 86.08C21.5 86.34 21.33 86.57 21.07 86.78C20.64 87.13 20.21 87.29 19.78 87.25C19.35 87.21 18.97 86.99 18.64 86.57L16.77 84.24L21.37 80.54L23.18 82.78C23.49 83.18 23.63 83.58 23.59 83.98ZM19.37 85.58C19.5 85.74 19.65 85.83 19.81 85.85C19.97 85.86 20.13 85.81 20.29 85.68C20.45 85.55 20.55 85.4 20.57 85.25C20.59 85.09 20.54 84.93 20.4 84.77L19.56 83.73L18.54 84.55L19.37 85.58ZM21.14 84.04C21.26 84.19 21.4 84.28 21.55 84.29C21.7 84.3 21.85 84.25 22 84.13C22.15 84.01 22.24 83.87 22.25 83.72C22.27 83.57 22.22 83.42 22.1 83.27L21.32 82.3L20.36 83.07L21.14 84.04Z" fill="#005C4D"/>
<path id="Vector_64" d="M20.6802 88.9202L24.8102 84.7002L25.7602 85.6302L22.5402 88.9202L24.4502 90.7902L23.5402 91.7202L20.6802 88.9202Z" fill="#005C4D"/>
<path id="Vector_65" d="M24.29 92.3198L28.08 87.7998L29.1 88.6598L25.31 93.1798L24.29 92.3198Z" fill="#005C4D"/>
<path id="Vector_66" d="M30.7603 95.9401C30.3903 96.1001 30.0003 96.1601 29.5903 96.1101C29.1803 96.0701 28.7903 95.9201 28.4203 95.6601C27.9903 95.3601 27.6803 95.0001 27.4803 94.5701C27.2803 94.1401 27.2203 93.6601 27.2903 93.1501C27.3603 92.6301 27.5803 92.1101 27.9403 91.5901C28.3003 91.0601 28.7103 90.6801 29.1703 90.4301C29.6303 90.1801 30.0903 90.0701 30.5703 90.1101C31.0503 90.1401 31.5003 90.3101 31.9203 90.6001C32.2903 90.8601 32.5703 91.1601 32.7503 91.5301C32.9303 91.8901 33.0203 92.2601 33.0203 92.6501C33.0203 93.0301 32.9403 93.3901 32.7803 93.7301L31.5703 93.1301C31.6903 92.8501 31.7303 92.5801 31.6703 92.3001C31.6103 92.0201 31.4603 91.8001 31.2103 91.6301C31.0203 91.5001 30.8003 91.4301 30.5503 91.4201C30.3103 91.4101 30.0503 91.4901 29.7903 91.6401C29.5303 91.8001 29.2803 92.0401 29.0503 92.3801C28.8203 92.7201 28.6703 93.0301 28.6203 93.3301C28.5703 93.6301 28.5903 93.8901 28.6803 94.1201C28.7703 94.3501 28.9203 94.5301 29.1103 94.6601C29.3703 94.8401 29.6403 94.9001 29.9203 94.8401C30.2003 94.7801 30.4703 94.6201 30.7203 94.3601L31.7503 95.2401C31.4603 95.5501 31.1303 95.7801 30.7603 95.9401Z" fill="#005C4D"/>
<path id="Vector_67" d="M33.23 98.4399L35.92 93.1899L37.11 93.7999L34.42 99.0499L33.23 98.4399Z" fill="#005C4D"/>
<path id="Vector_68" d="M40.14 101.49L38.75 100.94L38.33 96.64L38.3 96.63L36.88 100.2L35.75 99.75L37.94 94.27L39.36 94.83L39.78 99.05L39.81 99.06L41.2 95.57L42.33 96.02L40.14 101.49Z" fill="#005C4D"/>
<path id="Vector_69" d="M47.9203 97.4799L44.7103 102.75L43.1403 102.35L42.8403 96.1899L44.2303 96.5399L44.3203 101L44.3503 101.01L46.5503 97.1299L47.9203 97.4799Z" fill="#005C4D"/>
<path id="Vector_70" d="M49.52 99.99L52 100.3L51.85 101.45L49.37 101.13L49.22 102.33L51.83 102.66L51.67 103.89L47.73 103.39L48.47 97.54L52.41 98.04L52.26 99.23L49.65 98.9L49.52 99.99Z" fill="#005C4D"/>
<path id="Vector_71" d="M55.7303 99.3402C55.5803 99.2002 55.3703 99.1302 55.1103 99.1202C54.8803 99.1202 54.6903 99.1702 54.5503 99.2702C54.4103 99.3802 54.3403 99.5102 54.3403 99.6802C54.3403 99.8202 54.3903 99.9302 54.4903 100.01C54.5903 100.09 54.7503 100.16 54.9603 100.22L55.7703 100.46C56.1303 100.57 56.4203 100.68 56.6403 100.8C56.8603 100.91 57.0503 101.1 57.2003 101.35C57.3503 101.6 57.4203 101.94 57.4203 102.37C57.4103 102.98 57.1903 103.44 56.7703 103.73C56.3503 104.03 55.8103 104.17 55.1703 104.16C54.5203 104.15 53.9803 103.97 53.5503 103.62C53.1203 103.27 52.8903 102.78 52.8403 102.15L54.1603 102.01C54.1803 102.34 54.2903 102.58 54.4803 102.74C54.6703 102.9 54.9103 102.99 55.2003 102.99C55.4503 102.99 55.6503 102.94 55.8103 102.84C55.9703 102.74 56.0503 102.59 56.0503 102.39C56.0503 102.21 56.0003 102.07 55.8803 101.99C55.7703 101.9 55.5703 101.82 55.2803 101.73L54.5503 101.49C54.2203 101.39 53.9603 101.28 53.7503 101.17C53.5403 101.06 53.3703 100.89 53.2303 100.66C53.0903 100.43 53.0203 100.13 53.0303 99.7502C53.0403 99.1702 53.2403 98.7302 53.6403 98.4302C54.0403 98.1302 54.5503 97.9802 55.1803 97.9902C55.7603 98.0002 56.2403 98.1702 56.6203 98.4902C57.0003 98.8102 57.2203 99.2702 57.3003 99.8502L56.0003 99.9302C55.9803 99.6802 55.8803 99.4802 55.7303 99.3402Z" fill="#005C4D"/>
<path id="Vector_72" d="M62.3004 99.01L60.6804 99.16L61.1203 103.74L59.7904 103.87L59.3503 99.29L57.7304 99.44L57.6104 98.15L62.1804 97.71L62.3004 99.01Z" fill="#005C4D"/>
<path id="Vector_73" d="M68.1603 96.3999L69.5003 102.15L68.2903 102.43L67.3503 98.3999L67.3203 98.4099L67.2403 102.67L66.3303 102.88L64.3703 99.0899L64.3403 99.0999L65.2803 103.13L64.1003 103.41L62.7603 97.6599L64.6703 97.2199L66.2603 100.51L66.2903 100.5L66.2703 96.8499L68.1603 96.3999Z" fill="#005C4D"/>
<path id="Vector_74" d="M71.1003 97.7502L73.4403 96.8602L73.8503 97.9402L71.5103 98.8302L71.9403 99.9602L74.4003 99.0201L74.8403 100.18L71.1303 101.59L69.0303 96.0702L72.7403 94.6602L73.1703 95.7802L70.7103 96.7202L71.1003 97.7502Z" fill="#005C4D"/>
<path id="Vector_75" d="M80.47 97.3299L79.15 98.0299L75.6 95.5599L75.58 95.5699L77.38 98.9699L76.31 99.5399L73.54 94.3299L74.89 93.6199L78.38 96.0299L78.4 95.9999L76.64 92.6799L77.71 92.1099L80.47 97.3299Z" fill="#005C4D"/>
<path id="Vector_76" d="M82.7402 90.2001L81.4102 91.1401L84.0602 94.9101L82.9702 95.6801L80.3202 91.9101L78.9902 92.8501L78.2402 91.7901L82.0002 89.1401L82.7402 90.2001Z" fill="#005C4D"/>
<path id="Vector_77" d="M85.49 87.6502L86.38 88.5802L88.19 86.8502L88.99 87.6902L87.18 89.4202L88.75 91.0602L87.79 91.9802L83.71 87.7202L86.58 84.9702L87.41 85.8402L85.49 87.6502Z" fill="#005C4D"/>
<path id="Vector_78" d="M93.6803 84.2801C93.8203 84.6501 93.8403 85.0301 93.7503 85.4101C93.6603 85.7901 93.4703 86.1601 93.1803 86.5101C92.7403 87.0501 92.2303 87.3601 91.6603 87.4401C91.0903 87.5201 90.5103 87.3201 89.9303 86.8401L87.0503 84.4701L87.9003 83.4401L90.6603 85.7101C91.2803 86.2201 91.8003 86.2201 92.2203 85.7101C92.6403 85.2001 92.5403 84.6801 91.9203 84.1701L89.1603 81.9001L90.0103 80.8701L92.8903 83.2401C93.2803 83.5601 93.5403 83.9101 93.6803 84.2801Z" fill="#005C4D"/>
<path id="Vector_79" d="M98.02 79.2999L97.23 80.5699L92.92 80.2199L92.91 80.2399L96.17 82.2799L95.53 83.3099L90.52 80.1899L91.33 78.8999L95.55 79.2299L95.56 79.2099L92.37 77.2199L93.01 76.1899L98.02 79.2999Z" fill="#005C4D"/>
<path id="Vector_80" d="M95.8402 71.8398C96.4802 71.6098 97.2502 71.6998 98.1502 72.1098C99.0502 72.5198 99.6302 73.0398 99.8802 73.6698C100.13 74.2998 100.09 74.9798 99.7602 75.7198L98.8102 77.8298L93.4302 75.3998L94.3802 73.2898C94.7102 72.5498 95.2002 72.0698 95.8402 71.8398ZM98.5802 75.4198C98.7802 74.9698 98.8202 74.5798 98.6802 74.2498C98.5402 73.9198 98.1802 73.6198 97.5902 73.3498C97.0002 73.0798 96.5402 73.0098 96.2002 73.1298C95.8602 73.2498 95.5902 73.5298 95.3902 73.9798L95.0702 74.6798L98.2602 76.1198L98.5802 75.4198Z" fill="#005C4D"/>
</g>
</g>
<g id="Group_22">
<g id="Group_23">
<path id="Vector_81" fill-rule="evenodd" clip-rule="evenodd" d="M88.7998 56.1796V56.1096C76.6898 54.4196 65.6498 58.6096 55.7898 67.4796C45.9198 58.6096 34.8898 54.4196 22.7798 56.1096V56.1796C35.4098 56.7296 45.9998 63.2596 54.4698 71.2096C56.1298 72.7696 58.7398 75.3896 59.9898 76.9196L59.3398 77.4696C58.7698 77.9496 58.6998 78.7996 59.1798 79.3696C59.6598 79.9396 60.5098 80.0096 61.0798 79.5296L61.7198 78.9896C62.1398 79.4996 62.5198 79.9696 62.6798 80.1896C62.6798 80.1896 64.0198 82.1996 65.3898 84.1196C68.7398 88.8096 73.0498 86.9996 73.4498 84.6596C73.8698 82.2196 71.6498 81.1996 69.8398 81.4696C69.8298 81.4696 69.4798 81.4796 69.0798 81.3496C67.7898 80.8096 65.7298 78.4796 64.3298 76.7596L65.5898 75.6896C66.1598 75.2096 66.2298 74.3596 65.7498 73.7896C65.2698 73.2196 64.4198 73.1496 63.8498 73.6296L62.6498 74.6496C61.2598 72.9896 59.8398 71.4296 58.3998 69.9796C65.7198 63.4396 76.1598 56.7296 88.7998 56.1796Z" fill="#CC963F"/>
</g>
<path id="Vector_82" d="M62.4096 32.0098L69.9397 32.7298C69.1997 29.8698 65.9296 28.7298 62.6297 29.1398C63.6297 28.1398 66.2396 27.4098 68.5896 27.5798C66.3596 25.0898 63.5696 24.9898 60.1796 26.5098L63.1497 23.5098C60.7297 22.5298 58.3296 23.8798 57.1696 25.5598C57.1696 24.7998 56.4796 21.5798 55.7896 21.0298C55.1096 21.5798 54.4096 24.7998 54.4096 25.5598C53.2496 23.8798 50.8496 22.5298 48.4296 23.5098L51.3997 26.5098C48.0097 24.9898 45.2197 25.0898 42.9897 27.5798C45.3397 27.4198 47.9496 28.1398 48.9496 29.1398C45.6496 28.7298 42.3796 29.8698 41.6396 32.7298L49.1696 32.0098C46.3796 32.8498 44.0596 33.6298 43.2596 38.4398L50.9596 34.4898C48.6296 36.1098 47.5997 41.0098 49.3097 42.9998C49.8897 41.7098 52.7496 36.7898 53.9196 35.7998C54.8296 42.9198 54.1896 54.4898 53.6996 56.8598L53.0496 57.7298C51.5996 57.7598 48.9497 57.8698 47.4697 58.1298V58.1498C48.3997 58.6598 49.3296 59.2198 50.2096 59.7998C53.1496 59.4598 56.9996 59.3898 58.7496 60.1298C56.6496 60.1098 54.2196 60.5398 52.0696 61.0698H52.0597C53.2697 61.9298 54.2496 62.6798 54.7596 63.0898C55.0496 63.3298 55.4396 63.4398 55.7996 63.4398C56.1596 63.4398 56.5396 63.3298 56.8396 63.0898C57.9096 62.2198 61.0596 59.8398 64.1296 58.1598V58.1398C62.6496 57.8698 59.9996 57.7698 58.5496 57.7398L57.8997 56.8698C57.4097 54.4998 56.7696 42.9298 57.6796 35.8098C58.8496 36.7998 61.7097 41.7198 62.2896 43.0098C63.9996 41.0198 62.9696 36.1298 60.6396 34.4998L68.3396 38.4498C67.5196 33.6398 65.1996 32.8498 62.4096 32.0098Z" fill="#CC963F"/>
<path id="Vector_83" fill-rule="evenodd" clip-rule="evenodd" d="M51.59 76.9198C52.27 76.0798 53.36 74.9198 54.48 73.7798C54.02 73.3298 53.58 72.8998 53.2 72.5498C52.76 72.1298 52.31 71.7198 51.85 71.3198C50.85 72.3798 49.87 73.4898 48.9 74.6498L47.7 73.6298C47.13 73.1498 46.28 73.2198 45.8 73.7898C45.32 74.3598 45.39 75.2098 45.96 75.6898L47.22 76.7598C45.82 78.4798 43.77 80.8098 42.47 81.3498C42.07 81.4798 41.72 81.4698 41.71 81.4698C39.9 81.1998 37.69 82.2198 38.1 84.6598C38.51 86.9898 42.81 88.8098 46.16 84.1198C47.53 82.1998 48.87 80.1898 48.87 80.1898C49.03 79.9698 49.42 79.4998 49.83 78.9898L50.47 79.5298C51.04 80.0098 51.89 79.9398 52.37 79.3698C52.85 78.7998 52.78 77.9498 52.21 77.4698L51.59 76.9198Z" fill="#CC963F"/>
</g>
</g>
</g>
</svg>
