<svg xmlns="http://www.w3.org/2000/svg" width="90" height="90" viewBox="0 0 90 90" fill="none">
  <path d="M90 45.004C90 69.8575 69.8494 90.0081 44.996 90.0081C20.1425 90.0081 0 69.8575 0 45.004C0 20.1506 20.1506 0 45.004 0C69.8575 0 90 20.1506 90 45.004ZM45.004 3.37187C22.014 3.37187 3.37994 22.0059 3.37994 44.996C3.37994 67.986 22.014 86.62 45.004 86.62C67.9941 86.62 86.6281 67.986 86.6281 44.996C86.6281 22.0059 67.986 3.37187 45.004 3.37187Z" fill="white"/>
  <path d="M45.0039 13.6323C27.6847 13.6323 13.6406 27.6764 13.6406 44.9956C13.6406 62.3148 27.6847 76.3589 45.0039 76.3589C62.3231 76.3589 76.3672 62.3148 76.3672 44.9956C76.3672 27.6764 62.3231 13.6323 45.0039 13.6323ZM45.0039 75.0117C28.4269 75.0117 14.9878 61.5726 14.9878 44.9956C14.9878 28.4186 28.4269 14.9795 45.0039 14.9795C61.5809 14.9795 75.02 28.4186 75.02 44.9956C75.012 61.5807 61.5809 75.0117 45.0039 75.0117Z" fill="white"/>
  <path d="M83.6033 39.2365L78.8359 40.1319L78.6504 39.0429L83.4097 38.1475L83.6033 39.2365Z" fill="white"/>
  <path d="M83.3536 52.3449L78.562 51.5302L78.7637 50.4492L83.5392 51.2559L83.3536 52.3449Z" fill="white"/>
  <path d="M78.9253 49.5133L79.0382 48.4243L80.7887 48.6099L80.8936 47.658C80.9823 46.8594 81.547 46.2383 82.5311 46.3431C83.4507 46.4399 84.088 47.1014 83.9589 48.2872C83.8218 49.5779 82.9586 49.9409 81.9826 49.836L78.9253 49.5133ZM82.2972 48.7631C82.8054 48.8196 83.1764 48.6179 83.2168 48.1904C83.2571 47.8113 83.0151 47.5128 82.4666 47.4483C81.9584 47.3918 81.6276 47.6257 81.5873 47.9968L81.5147 48.6744L82.2972 48.7631Z" fill="white"/>
  <path d="M82.2558 41.7368L82.3042 42.5435L83.974 42.4467L84.0385 43.5438L82.3687 43.6406L82.4171 44.423L84.0305 44.3262L84.095 45.4152L81.7476 45.5524L81.5298 41.7772L79.0372 41.9224L78.9727 40.8253L83.8207 40.543L83.8853 41.64L82.2558 41.7368Z" fill="white"/>
  <path d="M11.0673 40.7046L6.45312 40.0028L6.61446 38.9219L9.6072 39.3736L9.73627 38.5347L10.5349 38.6557L10.5187 38.7767C10.4784 39.0267 10.5268 39.2365 10.672 39.4139C10.8091 39.5914 10.9866 39.7205 11.2125 39.7931L11.0673 40.7046Z" fill="white"/>
  <path d="M8.01021 41.9955C8.13928 41.7858 8.32481 41.6164 8.55875 41.4873C8.79268 41.3582 9.06695 41.3098 9.38961 41.326C9.76875 41.3502 10.0753 41.447 10.3092 41.6244C10.5431 41.8019 10.7126 42.0197 10.8174 42.2778C10.9223 42.536 10.9626 42.7941 10.9465 43.0684C10.9142 43.6895 10.6803 44.1251 10.2447 44.3832C9.80908 44.6333 9.20408 44.7382 8.42161 44.6978C7.53428 44.6494 6.92121 44.4558 6.58241 44.1251C6.23554 43.7863 6.08227 43.3507 6.10647 42.8102C6.13067 42.3988 6.25167 42.0681 6.48561 41.8019C6.71954 41.5357 7.02608 41.3744 7.41328 41.3018L7.50201 42.3424C7.13901 42.3988 6.95348 42.5682 6.93734 42.8506C6.92121 43.1087 7.02608 43.2942 7.24388 43.4072C7.46168 43.5282 7.75208 43.5927 8.10701 43.6169V43.5927C7.98601 43.4717 7.90534 43.3265 7.84888 43.1732C7.79241 43.0119 7.77628 42.8425 7.78434 42.665C7.80854 42.4311 7.88114 42.2052 8.01021 41.9955ZM8.80881 42.5279C8.67168 42.6408 8.59101 42.786 8.58295 42.9716C8.57488 43.149 8.63135 43.3023 8.76848 43.4394C8.89755 43.5766 9.08308 43.6492 9.31701 43.6653C9.55901 43.6814 9.74455 43.625 9.88975 43.504C10.0349 43.383 10.1075 43.2378 10.1156 43.0603C10.1237 42.8828 10.0672 42.7296 9.94622 42.6005C9.82522 42.4714 9.63162 42.3988 9.38961 42.3908C9.13955 42.3666 8.94595 42.415 8.80881 42.5279Z" fill="white"/>
  <path d="M10.7685 45.2056L10.954 48.5936L9.94568 48.65L6.19467 46.948L6.12207 45.6734L9.88115 47.44L9.76014 45.2701L10.7685 45.2056Z" fill="white"/>
  <path d="M11.3253 50.9978L6.71114 51.6916L6.5498 50.6106L9.54254 50.1589L9.41348 49.32L10.2121 49.207L10.2282 49.328C10.2685 49.5781 10.3734 49.7636 10.5589 49.8927C10.7445 50.0218 10.9542 50.0863 11.1881 50.1024L11.3253 50.9978Z" fill="white"/>
  <path d="M77.0606 23.7152C77.3106 23.5378 77.3752 23.1909 77.1896 22.9408C77.0122 22.6908 76.6653 22.6262 76.4072 22.8037C76.1571 22.9812 76.0926 23.3361 76.27 23.5862C76.4556 23.8443 76.8024 23.8927 77.0606 23.7152Z" fill="white"/>
  <path d="M78.408 29.128L77.4561 27.1436L76.8753 27.2082L77.5691 26.7726L76.956 25.7804L74.9797 26.9662C74.7296 26.5548 74.4795 26.1514 74.2133 25.7562L76.1332 24.401L75.4475 23.4249L73.5519 24.772C73.2857 24.401 73.0195 24.0299 72.7371 23.6669L73.3179 23.1829C74.1891 22.4569 74.2617 21.6421 73.447 20.6661L72.9227 20.0288L72.3257 20.5612L72.6484 20.9484C73.1001 21.4969 73.0759 21.8438 72.6807 22.1665L71.9869 22.7392C71.5755 22.2391 71.1561 21.7551 70.7205 21.2791L70.1396 21.8196C71.1319 22.8925 72.0515 24.038 72.8985 25.2318H72.9065C73.1405 25.5545 73.4147 25.74 73.7455 25.7723L73.5922 26.2482C74.8103 28.1036 75.8509 30.0718 76.6979 32.153L77.8111 31.5884C78.9323 31.0479 78.8517 30.0073 78.408 29.128ZM77.44 30.4752L76.9479 30.7252C76.5365 29.7976 76.0767 28.8941 75.5847 28.0148L76.6575 27.3453L77.6578 29.4104C77.8998 29.8702 77.803 30.2816 77.44 30.4752Z" fill="white"/>
  <path d="M68.7682 15.9956L67.2516 18.0042C66.2917 19.2706 64.872 18.9964 63.7426 18.1413C62.6456 17.3185 61.9438 15.9956 62.8714 14.7614L63.2506 14.2774L64.2024 14.9953L63.7507 15.5922C63.2264 16.286 63.662 17.0765 64.275 17.5363C64.7187 17.8751 65.2753 18.0203 65.7351 17.7864L65.1946 17.383C64.4122 16.7942 64.2024 15.8504 64.7752 15.0921C65.477 14.1644 66.5821 14.3419 67.3888 14.9469L68.7682 15.9956ZM66.8967 15.5842C66.5418 15.318 66.0658 15.3422 65.7432 15.7697C65.4366 16.1811 65.5173 16.649 65.8884 16.9313L66.324 17.262C66.3401 17.2459 66.3724 17.2056 66.3804 17.1894L67.3404 15.923L66.8967 15.5842ZM67.3807 14.0515C67.1629 13.8902 67.1145 13.5756 67.2839 13.3497C67.4533 13.1238 67.7679 13.0835 67.9857 13.2448C68.2116 13.4142 68.2519 13.7288 68.0825 13.9547C67.9212 14.1725 67.6066 14.2209 67.3807 14.0515ZM68.4052 14.8259C68.1874 14.6565 68.139 14.35 68.3084 14.1322C68.4778 13.9063 68.7924 13.866 69.0102 14.0273C69.236 14.1967 69.2764 14.5113 69.107 14.7372C68.9456 14.9469 68.631 14.9953 68.4052 14.8259Z" fill="white"/>
  <path d="M72.1565 19.1577L70.2125 21.1744C69.1315 22.2957 68.2361 22.0537 67.2923 21.1421L66.8325 20.6985L67.3488 20.1661L67.6795 20.4807C68.1635 20.9485 68.5507 21.0453 69.0267 20.6581L68.4459 20.1015C67.7441 19.4239 67.6473 18.4721 68.3168 17.7783C69.1235 16.9475 70.1963 17.254 70.9223 17.9558L72.1565 19.1577ZM69.5913 20.1096L70.7529 18.9077L70.3577 18.5285C70.0431 18.222 69.5671 18.1817 69.1961 18.5689C68.8411 18.9399 68.8653 19.4078 69.2041 19.7385L69.5913 20.1096Z" fill="white"/>
  <path d="M28.7015 11.8659C28.9516 11.7368 29.0484 11.4383 28.9193 11.1963C28.7902 10.9463 28.4918 10.8495 28.2417 10.9785C27.9997 11.1076 27.9029 11.4061 28.032 11.6561C28.153 11.8981 28.4595 11.9949 28.7015 11.8659Z" fill="white"/>
  <path d="M27.5638 12.4547C27.8139 12.3257 27.9107 12.0272 27.7816 11.7852C27.6525 11.5351 27.3541 11.4383 27.104 11.5674C26.862 11.6965 26.7652 11.9949 26.8943 12.245C27.0153 12.487 27.3218 12.5838 27.5638 12.4547Z" fill="white"/>
  <path d="M44.1807 6.55826C44.1887 6.83253 44.4146 7.05033 44.6889 7.05033C44.9712 7.04226 45.189 6.81639 45.189 6.54213C45.1809 6.25979 44.9551 6.04199 44.6727 6.04199C44.3985 6.05006 44.1807 6.27593 44.1807 6.55826Z" fill="white"/>
  <path d="M43.4066 7.06595C43.6889 7.05789 43.9067 6.83202 43.9067 6.55775C43.8987 6.27542 43.6728 6.05762 43.3985 6.05762C43.1243 6.06568 42.9065 6.29155 42.9065 6.56582C42.8984 6.85622 43.1323 7.07402 43.4066 7.06595Z" fill="white"/>
  <path d="M44.0033 5.97709C44.2857 5.96902 44.5035 5.74315 44.5035 5.46888C44.4954 5.18655 44.2695 4.96875 43.9872 4.96875C43.7129 4.97682 43.4951 5.20268 43.4951 5.48502C43.5032 5.75929 43.7291 5.98515 44.0033 5.97709Z" fill="white"/>
  <path d="M47.5777 7.13786C47.8601 7.15399 48.094 6.94426 48.1101 6.66999C48.1263 6.38766 47.9165 6.15372 47.6342 6.13759C47.3599 6.12146 47.126 6.33119 47.1018 6.61352C47.0937 6.87972 47.3035 7.12173 47.5777 7.13786Z" fill="white"/>
  <path d="M46.3023 7.05729C46.5847 7.07343 46.8186 6.86369 46.8347 6.58942C46.8509 6.30709 46.6411 6.07316 46.3588 6.05702C46.0845 6.04089 45.8506 6.25062 45.8264 6.53296C45.8183 6.79916 46.0281 7.04116 46.3023 7.05729Z" fill="white"/>
  <path d="M32.1614 13.2937L30.9837 10.3896L30.056 10.7688L30.9514 12.9791C29.7414 13.5034 28.4669 14.1891 27.8377 14.544C27.3537 14.8183 27.0956 14.7376 26.8374 14.2617L26.4825 13.6002L25.4419 14.1649L25.6758 14.6005C26.2889 15.7298 27.0714 15.7943 28.0636 15.2942C29.3784 14.5359 30.7498 13.8664 32.1614 13.2937Z" fill="white"/>
  <path d="M51.4893 11.4225C51.8846 11.4951 52.2315 11.4144 52.4815 11.1966L52.6913 11.6806C53.3608 11.8339 54.0142 12.0033 54.6676 12.1969L55.4581 9.1638L54.3046 8.86533L53.7157 11.1159C53.3931 11.0353 53.0623 10.9546 52.7316 10.882C52.7881 10.7771 52.8365 10.64 52.8607 10.5109L53.1914 8.8976L52.0217 8.6556L51.6265 10.64C51.2312 10.5674 50.8359 10.4948 50.4326 10.4303L50.7149 8.47006L49.5372 8.30066L49.2549 10.2689C48.8193 10.2125 48.2707 10.1641 47.8351 10.1237L48.0287 7.79246L46.8429 7.69566L46.6493 10.0511C46.1653 10.0269 45.6732 10.0108 45.1812 10.0108L45.1892 7.67146L44.0034 7.66339L43.9792 10.0189C43.5436 10.035 43.108 10.0511 42.6724 10.0834L42.5756 9.29287C42.4224 8.13126 41.3979 7.70373 40.3815 7.8328L38.994 8.0506L38.8811 9.60747C38.7924 10.2286 38.631 10.6077 38.1309 10.6965L37.5582 10.8175L36.5095 6.63086L35.356 6.90513L36.324 10.7207C36.4853 11.4063 37.0419 11.7371 37.7276 11.5919C37.9292 11.5515 38.1228 11.5112 38.3245 11.4709C39.0182 11.3337 39.5022 11.0514 39.7684 10.5593L40.325 11.1321C41.5512 10.9627 42.8015 10.8659 44.068 10.8255C44.4632 10.8175 44.7214 10.6561 44.9311 10.4061L45.278 10.8094V10.8175C45.7458 10.8175 46.2056 10.8336 46.6654 10.8578C47.0607 10.8739 47.3834 10.7449 47.6093 10.5109L47.8674 10.9385C49.0855 11.0272 50.2955 11.1966 51.4893 11.4225ZM39.8249 10.398C39.9217 10.1721 40.0266 9.8898 40.0669 9.5994L40.1718 8.67173L40.4783 8.6314C40.9058 8.57493 41.3092 8.83306 41.3818 9.3816L41.4866 10.1963C40.93 10.2447 40.3734 10.3173 39.8249 10.398Z" fill="white"/>
  <path d="M61.1534 9.1717L60.0644 8.69577L58.4108 12.6726C58.0639 12.5274 57.717 12.3903 57.3621 12.2612L58.4914 8.9297L57.3702 8.52637L56.2408 11.8579C55.9665 11.7611 55.6842 11.6724 55.4019 11.5836L55.1841 12.35C56.5554 12.7775 57.8945 13.2938 59.1932 13.8826L61.1534 9.1717Z" fill="white"/>
  <path d="M32.1457 7.85645L33.9607 12.6319L32.8394 13.0353L31.0244 8.26785L32.1457 7.85645Z" fill="white"/>
  <path d="M35.8565 11.9062C36.1549 12.9145 35.8403 13.705 34.7433 14.2132L34.2673 13.5921C34.7352 13.334 34.953 13.0516 34.7997 12.5112L33.8721 9.36517L35.0095 9.02637L35.8565 11.9062Z" fill="white"/>
  <path d="M63.2185 10.172L60.992 14.762L59.9272 14.2215L62.1456 9.63965L63.2185 10.172Z" fill="white"/>
  <path d="M9.89796 28.8864C9.63982 28.7735 9.34942 28.8784 9.22842 29.1365C9.11549 29.3866 9.22842 29.685 9.47849 29.798C9.72856 29.9109 10.027 29.798 10.14 29.5479C10.2529 29.2978 10.148 28.9994 9.89796 28.8864Z" fill="white"/>
  <path d="M10.4302 27.7166C10.172 27.5956 9.87358 27.7085 9.76065 27.9666C9.64771 28.2167 9.76065 28.5152 10.0107 28.6281C10.2608 28.741 10.5592 28.6281 10.6722 28.3861C10.7932 28.128 10.6802 27.8295 10.4302 27.7166Z" fill="white"/>
  <path d="M17.352 24.8767C17.2391 24.8122 16.7712 24.5379 15.9484 24.0055C14.9885 23.3844 13.964 23.9007 13.4155 24.7719L12.7379 25.8447L13.8188 27.0628C14.2463 27.5226 14.4803 27.8937 14.2463 28.3454L14.2221 28.3857L14.1576 28.5068L13.9559 28.894L11.5521 27.6517L11.0035 28.7084L11.4149 28.9181L10.9874 29.741C10.5841 30.5476 10.7938 31.4511 11.6085 31.8625C12.4233 32.2739 13.3187 31.919 13.722 31.1204L13.7704 31.0236C13.8269 30.8945 13.8833 30.7654 13.9479 30.6444L14.0769 30.3702L13.8269 29.8862C14.1415 29.8297 14.4077 29.628 14.6013 29.3215C14.6819 29.1602 14.9481 28.66 14.9481 28.66C15.2789 28.0389 15.3434 27.5791 15.1579 27.0547L15.9645 26.9176L15.9726 26.9095C16.4163 26.2158 16.8761 25.5382 17.352 24.8767ZM13.1654 30.5315C12.9879 30.9187 12.6088 31.0558 12.2297 30.8703C11.8263 30.6848 11.6973 30.3137 11.8747 29.9265L12.1651 29.3134L13.0605 29.7813C13.1977 29.8539 13.3267 29.8942 13.4558 29.9265L13.1654 30.5315ZM15.1579 26.8127L15.1014 26.9015C14.9965 26.6756 14.7545 26.361 14.5932 26.1835C14.4319 26.0061 13.9398 25.4656 13.9398 25.4656L14.1092 25.1994C14.3431 24.8364 14.7949 24.6831 15.2627 24.9816L16.0291 25.4656C15.7225 25.9012 15.4321 26.3529 15.1579 26.8127Z" fill="white"/>
  <path d="M19.6584 22.0458C19.9972 21.6747 20.1343 21.3278 20.2876 20.989C20.5618 20.9003 20.8845 20.7874 21.1991 20.4566C21.9493 19.6661 22.7963 18.9724 23.6433 18.2948L20.4731 14.3018L19.5535 15.06L22.2639 18.4803C21.7718 18.8998 21.2959 19.3354 20.828 19.7871C20.9006 19.2224 20.7232 18.69 20.4166 18.3996C19.9326 17.9318 19.0776 17.9398 18.2386 18.8191C17.803 19.2789 17.4884 19.8516 17.2545 20.3356C17.2545 20.3356 17.3835 20.9084 17.3916 20.9487C17.4077 21.0213 17.5529 21.0858 17.6659 21.11C17.7788 21.1423 18.8678 21.344 19.2792 21.3843C18.7629 21.949 18.2628 22.5298 17.7869 23.1186L17.7788 23.1267L14.3827 20.4002L13.6567 21.3359L16.6979 23.7882C17.2464 24.2318 17.924 24.1592 18.3596 23.6026C18.7629 23.0622 19.1986 22.5459 19.6584 22.0458ZM18.166 20.2388C18.2951 19.9888 18.4645 19.7145 18.6419 19.529C18.9969 19.1498 19.4406 19.0772 19.7713 19.3918C19.9972 19.6096 20.1101 19.9726 19.9649 20.376C19.497 20.4405 18.3193 20.263 18.166 20.2388Z" fill="white"/>
  <path d="M22.2319 12.9702L25.1843 17.1246L24.2244 17.8264L21.272 13.672L22.2319 12.9702Z" fill="white"/>
  <path d="M14.0844 60.5571C13.9392 60.9201 13.6327 61.2024 13.181 61.4121C12.7212 61.6219 12.3098 61.6622 11.9468 61.5331C11.5757 61.4041 11.2934 61.1217 11.0998 60.6861L10.6803 59.7585L9.26056 60.4038L8.81689 59.4197L13.1568 57.4595L14.0199 59.3632C14.2054 59.7907 14.2377 60.1941 14.0844 60.5571ZM11.8984 60.1053C11.979 60.2909 12.092 60.4038 12.2372 60.4603C12.3824 60.5087 12.5437 60.5006 12.7292 60.4119C12.9148 60.3312 13.0277 60.2183 13.0842 60.0731C13.1406 59.9279 13.1245 59.7665 13.0438 59.581L12.705 58.8308L11.5515 59.3551L11.8984 60.1053Z" fill="white"/>
  <path d="M13.2702 66.3005C12.9476 66.3086 12.6572 66.2279 12.391 66.0585C12.1248 65.8891 11.8989 65.6471 11.7053 65.3325C11.4149 64.8485 11.31 64.3807 11.3988 63.9289C11.4875 63.4691 11.794 63.0819 12.3103 62.7673L14.8755 61.1943L15.4402 62.1139L12.9798 63.6224C12.4232 63.9612 12.2861 64.3565 12.5684 64.8082C12.8508 65.268 13.2622 65.3245 13.8188 64.9857L16.2791 63.4772L16.8438 64.3968L14.2786 65.9698C13.9236 66.1876 13.5929 66.2925 13.2702 66.3005Z" fill="white"/>
  <path d="M19.0293 67.7447C18.997 68.0754 18.8276 68.3577 18.5292 68.5997C18.3598 68.7369 18.1823 68.8256 17.9968 68.8498C17.8193 68.874 17.6418 68.8579 17.4724 68.7853L17.4482 68.8014C17.4966 69.0192 17.4886 69.2289 17.416 69.4387C17.3434 69.6484 17.2062 69.8339 16.9965 70.0033C16.6496 70.2857 16.3028 70.4147 15.9559 70.3825C15.609 70.3502 15.3025 70.1727 15.0363 69.8339L13.5278 67.9544L17.2385 64.9697L18.6986 66.7767C18.9486 67.0993 19.0616 67.422 19.0293 67.7447ZM15.6252 69.0353C15.73 69.1644 15.851 69.237 15.9801 69.2531C16.1092 69.2612 16.2382 69.2209 16.3673 69.116C16.4964 69.0111 16.577 68.8901 16.5932 68.7691C16.6093 68.6401 16.569 68.511 16.456 68.3819L15.7784 67.543L14.9556 68.2045L15.6252 69.0353ZM17.053 67.7931C17.1498 67.9141 17.2627 67.9867 17.3837 67.9947C17.5047 68.0028 17.6257 67.9625 17.7467 67.8657C17.8677 67.7689 17.9403 67.6559 17.9484 67.5349C17.9645 67.4139 17.9242 67.2929 17.8274 67.1719L17.1982 66.3895L16.4238 67.0106L17.053 67.7931Z" fill="white"/>
  <path d="M16.6826 71.7298L20.0142 68.3257L20.7805 69.0759L18.183 71.7298L19.7238 73.2383L18.9897 73.9885L16.6826 71.7298Z" fill="white"/>
  <path d="M19.5938 74.4723L22.651 70.8262L23.4738 71.5199L20.4166 75.166L19.5938 74.4723Z" fill="white"/>
  <path d="M24.8135 77.392C24.515 77.521 24.2004 77.5694 23.8697 77.5291C23.539 77.4968 23.2244 77.3758 22.9259 77.1661C22.579 76.9241 22.3289 76.6337 22.1676 76.2868C22.0063 75.94 21.9579 75.5528 22.0143 75.1414C22.0708 74.7219 22.2483 74.3024 22.5387 73.883C22.8291 73.4554 23.1598 73.1489 23.5309 72.9472C23.902 72.7456 24.273 72.6568 24.6602 72.6891C25.0474 72.7133 25.4104 72.8504 25.7492 73.0844C26.0477 73.2941 26.2736 73.5361 26.4188 73.8346C26.564 74.125 26.6366 74.4234 26.6366 74.738C26.6366 75.0446 26.572 75.335 26.443 75.6092L25.4669 75.1252C25.5637 74.8994 25.596 74.6816 25.5476 74.4557C25.4992 74.2298 25.3782 74.0524 25.1765 73.9152C25.0232 73.8104 24.8458 73.7539 24.6441 73.7458C24.4505 73.7378 24.2408 73.8023 24.031 73.9233C23.8213 74.0524 23.6196 74.246 23.4341 74.5202C23.2485 74.7945 23.1276 75.0446 23.0872 75.2866C23.0469 75.5286 23.063 75.7383 23.1356 75.9238C23.2082 76.1094 23.3292 76.2546 23.4825 76.3594C23.6922 76.5046 23.91 76.553 24.1359 76.5046C24.3618 76.4562 24.5796 76.3272 24.7812 76.1174L25.6121 76.8273C25.3782 77.0774 25.112 77.2629 24.8135 77.392Z" fill="white"/>
  <path d="M26.8057 79.4088L28.9756 75.1738L29.9355 75.6659L27.7656 79.9009L26.8057 79.4088Z" fill="white"/>
  <path d="M32.3797 81.8696L31.2584 81.4259L30.9196 77.9572L30.8954 77.9491L29.7499 80.829L28.8384 80.466L30.605 76.0454L31.7505 76.4971L32.0893 79.9013L32.1135 79.9094L33.2347 77.0941L34.1463 77.4571L32.3797 81.8696Z" fill="white"/>
  <path d="M38.6555 78.6344L36.0661 82.8855L34.7996 82.5628L34.5576 77.5938L35.6789 77.8761L35.7515 81.4738L35.7757 81.4819L37.5504 78.352L38.6555 78.6344Z" fill="white"/>
  <path d="M39.9459 80.659L41.9464 80.909L41.8254 81.8367L39.8249 81.5786L39.7039 82.5466L41.8093 82.8128L41.6802 83.805L38.502 83.4016L39.0989 78.6826L42.2772 79.086L42.1562 80.0459L40.0508 79.7797L39.9459 80.659Z" fill="white"/>
  <path d="M44.9563 80.1348C44.8353 80.0219 44.6659 79.9654 44.4561 79.9573C44.2706 79.9573 44.1173 79.9977 44.0044 80.0783C43.8915 80.1671 43.835 80.2719 43.835 80.4091C43.835 80.522 43.8753 80.6107 43.956 80.6753C44.0367 80.7398 44.1657 80.7963 44.3351 80.8447L44.9885 81.0383C45.2789 81.127 45.5129 81.2157 45.6903 81.3125C45.8678 81.4013 46.0211 81.5545 46.1421 81.7562C46.2631 81.9579 46.3195 82.2321 46.3195 82.579C46.3115 83.0711 46.134 83.4421 45.7952 83.6761C45.4564 83.9181 45.0208 84.031 44.5045 84.0229C43.9802 84.0149 43.5446 83.8697 43.1977 83.5873C42.8509 83.305 42.6653 82.9097 42.625 82.4015L43.6898 82.2886C43.7059 82.5548 43.7947 82.7484 43.9479 82.8775C44.1012 83.0065 44.2948 83.0791 44.5287 83.0791C44.7304 83.0791 44.8917 83.0388 45.0208 82.9581C45.1499 82.8775 45.2144 82.7565 45.2144 82.5951C45.2144 82.4499 45.1741 82.337 45.0773 82.2725C44.9885 82.1999 44.8272 82.1353 44.5933 82.0627L44.0044 81.8691C43.7382 81.7885 43.5285 81.6997 43.3591 81.611C43.1897 81.5223 43.0525 81.3851 42.9396 81.1996C42.8267 81.0141 42.7702 80.7721 42.7783 80.4655C42.7863 79.9977 42.9477 79.6427 43.2703 79.4007C43.593 79.1587 44.0044 79.0377 44.5126 79.0458C44.9805 79.0539 45.3677 79.191 45.6742 79.4491C45.9807 79.7073 46.1582 80.0783 46.2227 80.5462L45.1741 80.6107C45.1579 80.4091 45.0773 80.2477 44.9563 80.1348Z" fill="white"/>
  <path d="M50.2554 79.8685L48.9486 79.9895L49.3036 83.684L48.2307 83.7889L47.8758 80.0944L46.569 80.2154L46.4722 79.1748L50.1586 78.8198L50.2554 79.8685Z" fill="white"/>
  <path d="M54.9825 77.7637L56.0634 82.402L55.0873 82.6279L54.3291 79.377L54.3049 79.3851L54.2403 82.8215L53.5063 82.9909L51.9252 79.9336L51.901 79.9417L52.6593 83.1925L51.7074 83.4184L50.6265 78.7801L52.1672 78.4251L53.4498 81.0791L53.474 81.071L53.4579 78.1267L54.9825 77.7637Z" fill="white"/>
  <path d="M57.3544 78.852L59.242 78.134L59.5727 79.0052L57.6851 79.7232L58.032 80.6347L60.0164 79.8764L60.3713 80.8122L57.3786 81.9496L55.6846 77.4968L58.6773 76.3594L59.0242 77.2628L57.0398 78.0211L57.3544 78.852Z" fill="white"/>
  <path d="M64.9125 78.5135L63.8477 79.0782L60.984 77.0857L60.9679 77.0938L62.4199 79.8365L61.5567 80.2963L59.3223 76.0935L60.4113 75.5208L63.2265 77.4649L63.2427 77.4407L61.8229 74.7625L62.6861 74.3027L64.9125 78.5135Z" fill="white"/>
  <path d="M66.7443 72.7623L65.6714 73.5206L67.8091 76.5617L66.9298 77.1828L64.7921 74.1417L63.7193 74.9L63.1143 74.0449L66.1473 71.9072L66.7443 72.7623Z" fill="white"/>
  <path d="M68.9622 70.7048L69.6802 71.455L71.1402 70.0595L71.7856 70.7371L70.3255 72.1326L71.592 73.4556L70.8176 74.1977L67.5264 70.7613L69.8415 68.543L70.511 69.2448L68.9622 70.7048Z" fill="white"/>
  <path d="M75.5689 67.9861C75.6818 68.2846 75.698 68.5911 75.6254 68.8976C75.5528 69.2042 75.3995 69.5026 75.1656 69.785C74.8106 70.2206 74.3992 70.4706 73.9394 70.5352C73.4796 70.5997 73.0118 70.4384 72.5439 70.0512L70.2207 68.1394L70.9064 67.3085L73.1328 69.1396C73.6329 69.551 74.0524 69.551 74.3912 69.1396C74.73 68.7282 74.6493 68.3088 74.1492 67.8974L71.9228 66.0662L72.6084 65.2354L74.9316 67.1472C75.2462 67.4053 75.456 67.6876 75.5689 67.9861Z" fill="white"/>
  <path d="M79.0695 63.9697L78.4323 64.9941L74.9555 64.7118L74.9475 64.7279L77.5772 66.3735L77.0609 67.2044L73.0195 64.6876L73.6729 63.647L77.0771 63.9132L77.0851 63.8971L74.5119 62.2918L75.0281 61.4609L79.0695 63.9697Z" fill="white"/>
  <path d="M77.3113 57.9521C77.8275 57.7665 78.4487 57.8391 79.1747 58.1699C79.9007 58.5006 80.3685 58.9201 80.5702 59.4283C80.7719 59.9365 80.7396 60.485 80.4734 61.0819L79.7071 62.784L75.3672 60.8238L76.1335 59.1217C76.3997 58.5248 76.795 58.1376 77.3113 57.9521ZM79.5215 60.8399C79.6829 60.4769 79.7151 60.1623 79.6022 59.8961C79.4893 59.6299 79.1989 59.3879 78.7229 59.1701C78.247 58.9523 77.8759 58.8959 77.6017 58.9927C77.3274 59.0895 77.1096 59.3153 76.9483 59.6783L76.6901 60.243L79.2634 61.4046L79.5215 60.8399Z" fill="white"/>
  <path fill-rule="evenodd" clip-rule="evenodd" d="M71.6313 45.3186V45.2621C61.8625 43.8989 52.9569 47.2788 45.0031 54.434C37.0413 47.2788 28.1438 43.8989 18.375 45.2621V45.3186C28.5632 45.7623 37.1058 51.0298 43.9383 57.4428C45.2774 58.7012 47.3828 60.8147 48.3911 62.0489L47.8668 62.4926C47.407 62.8798 47.3505 63.5654 47.7377 64.0252C48.1249 64.485 48.8106 64.5415 49.2704 64.1543L49.7867 63.7187C50.1255 64.1301 50.432 64.5092 50.5611 64.6867C50.5611 64.6867 51.642 66.3081 52.7471 67.8569C55.4495 71.6402 58.9262 70.1801 59.2489 68.2925C59.5877 66.3243 57.7969 65.5014 56.3368 65.7192C56.3288 65.7192 56.0464 65.7273 55.7238 65.6224C54.6832 65.1868 53.0214 63.3073 51.8921 61.9198L52.9085 61.0567C53.3683 60.6695 53.4247 59.9838 53.0375 59.524C52.6503 59.0642 51.9647 59.0078 51.5049 59.395L50.5369 60.2178C49.4156 58.8787 48.2701 57.6203 47.1085 56.4506C53.0133 51.175 61.435 45.7623 71.6313 45.3186Z" fill="white"/>
  <path d="M50.3434 25.8216L56.4176 26.4024C55.8207 24.0953 53.1828 23.1757 50.5208 23.5064C51.3275 22.6998 53.4329 22.1109 55.3286 22.248C53.5297 20.2394 51.2791 20.1588 48.5445 21.3849L50.9403 18.9649C48.9882 18.1744 47.0522 19.2634 46.1164 20.6186C46.1164 20.0055 45.5598 17.408 45.0032 16.9644C44.4547 17.408 43.89 20.0055 43.89 20.6186C42.9543 19.2634 41.0183 18.1744 39.0661 18.9649L41.462 21.3849C38.7273 20.1588 36.4767 20.2394 34.6779 22.248C36.5735 22.119 38.6789 22.6998 39.4856 23.5064C36.8236 23.1757 34.1858 24.0953 33.5889 26.4024L39.6631 25.8216C37.4125 26.4992 35.541 27.1284 34.8957 31.0085L41.107 27.8221C39.2275 29.1289 38.3966 33.0816 39.776 34.6869C40.2439 33.6463 42.551 29.6774 43.4948 28.8788C44.2288 34.6223 43.7126 43.9555 43.3173 45.8673L42.793 46.5691C41.6233 46.5933 39.4856 46.682 38.2917 46.8918V46.9079C39.0419 47.3193 39.7921 47.771 40.502 48.2389C42.8736 47.9646 45.9793 47.9082 47.391 48.5051C45.697 48.489 43.7368 48.8358 42.0024 49.2634H41.9944C42.9704 49.9571 43.761 50.5621 44.1724 50.8928C44.4063 51.0864 44.7209 51.1752 45.0113 51.1752C45.3017 51.1752 45.6082 51.0864 45.8502 50.8928C46.7134 50.191 49.2544 48.2712 51.7308 46.916V46.8998C50.537 46.682 48.3993 46.6014 47.2296 46.5772L46.7053 45.8753C46.31 43.9635 45.7938 34.6304 46.5278 28.8869C47.4716 29.6855 49.7787 33.6543 50.2466 34.6949C51.626 33.0897 50.7951 29.145 48.9156 27.8302L55.1269 31.0165C54.4654 27.1364 52.594 26.4992 50.3434 25.8216Z" fill="white"/>
  <path fill-rule="evenodd" clip-rule="evenodd" d="M41.6159 62.0491C42.1644 61.3715 43.0437 60.4357 43.9471 59.5161C43.5761 59.1531 43.2211 58.8063 42.9146 58.5239C42.5597 58.1851 42.1967 57.8544 41.8256 57.5317C41.0189 58.3868 40.2284 59.2822 39.4459 60.2179L38.4779 59.3951C38.0181 59.0079 37.3325 59.0644 36.9453 59.5242C36.5581 59.984 36.6145 60.6697 37.0743 61.0569L38.0907 61.92C36.9614 63.3075 35.3077 65.187 34.2591 65.6226C33.9364 65.7275 33.6541 65.7194 33.646 65.7194C32.1859 65.5016 30.4032 66.3244 30.7339 68.2927C31.0647 70.1722 34.5333 71.6404 37.2357 67.8571C38.3408 66.3083 39.4217 64.6869 39.4217 64.6869C39.5508 64.5094 39.8654 64.1303 40.1961 63.7189L40.7124 64.1545C41.1722 64.5417 41.8579 64.4852 42.2451 64.0254C42.6323 63.5656 42.5758 62.88 42.116 62.4928L41.6159 62.0491Z" fill="white"/>
</svg>