<svg xmlns="http://www.w3.org/2000/svg" width="90" height="40" viewBox="0 0 90 40" fill="none">
  <path d="M62.8809 8.78738C62.6443 8.0094 62.232 7.32821 61.644 6.73665C61.0525 6.1451 60.2422 5.67544 59.2097 5.3205C58.1772 4.96557 56.865 4.78989 55.2731 4.78989H47.988H46.7476V4.91179C46.7476 4.91179 47.988 5.77224 47.988 8.05601V24.6662H51.4979V7.74051H55.2122C56.0977 7.74051 56.8291 7.81938 57.4099 7.97713C57.9907 8.13488 58.4532 8.36075 58.7974 8.65473C59.1416 8.94872 59.3818 9.31799 59.5216 9.75897C59.6578 10.2 59.7295 10.7162 59.7295 11.3078C59.7295 11.8778 59.665 12.3905 59.5359 12.8422C59.4069 13.294 59.1774 13.6812 58.844 14.0074C58.5106 14.3337 58.0517 14.5811 57.4709 14.7603C56.8901 14.936 56.1479 15.0256 55.2445 15.0256H53.9179L52.6775 18.0049H55.3341C56.8865 18.0049 58.1736 17.8221 59.1989 17.46C60.2207 17.0979 61.031 16.6031 61.6333 15.9865C62.232 15.3662 62.6515 14.6456 62.8881 13.8174C63.1247 12.9928 63.243 12.1252 63.243 11.2217C63.2323 10.3756 63.114 9.56537 62.8809 8.78738Z" fill="#005C4D"/>
  <path d="M65.9497 4.78988V4.91178C65.9497 4.91178 67.1902 5.77223 67.1902 8.056V8.46112V24.6662H70.7575V4.77913L67.1902 4.78988H65.9497Z" fill="#005C4D"/>
  <path d="M88.3895 7.85882L89.6299 4.79348H76.1819H74.9414V4.91538C74.9414 4.91538 76.1819 5.77583 76.1819 8.05959V8.46472V24.6662H79.7492V16.9114H86.7439L87.9843 13.8461H79.7492V7.85882H88.3895Z" fill="#005C4D"/>
  <path d="M70.761 28.7998H47.9663V29.1297H70.761V28.7998Z" fill="#CC963F"/>
  <path d="M73.4572 28.8751C73.4572 29.4272 73.8838 29.7642 74.4109 29.7642H74.8662C74.7443 30.0761 74.4037 30.2339 74.038 30.2339C73.5576 30.2339 73.0807 29.9937 73.0807 29.4846V29.083L72.543 29.1906V29.42C72.543 30.241 73.2528 30.596 74.0057 30.596C74.8016 30.596 75.4721 30.2339 75.4721 29.3734V27.9429H74.5471C73.995 27.9429 73.4572 28.2333 73.4572 28.8751ZM74.9343 29.3412C74.9343 29.3555 74.9343 29.3842 74.9307 29.4021H74.522C74.2244 29.4021 73.9914 29.2049 73.9914 28.8607C73.9914 28.4951 74.2495 28.305 74.5363 28.305H74.9343V29.3412Z" fill="#CC963F"/>
  <path d="M74.2781 27.5127C74.4143 27.5127 74.529 27.4015 74.529 27.2689C74.529 27.1327 74.4179 27.0215 74.2781 27.0215C74.1454 27.0215 74.0343 27.1327 74.0343 27.2689C74.0307 27.398 74.1454 27.5127 74.2781 27.5127Z" fill="#CC963F"/>
  <path d="M74.945 27.5127C75.0813 27.5127 75.1888 27.4015 75.1888 27.2689C75.1888 27.1327 75.0813 27.0215 74.945 27.0215C74.8088 27.0215 74.7013 27.1327 74.7013 27.2689C74.6977 27.398 74.8052 27.5127 74.945 27.5127Z" fill="#CC963F"/>
  <path d="M75.938 28.8786C75.938 29.4307 76.3646 29.7642 76.8917 29.7642H77.4115C77.3721 30.1406 77.1677 30.2876 76.7518 30.2876H76.4471V30.6246H76.8415C77.5513 30.6246 77.9529 30.3557 77.9529 29.549V27.9465H77.0279C76.4794 27.9429 75.938 28.2333 75.938 28.8786ZM77.4151 29.3985H77.0028C76.7088 29.3985 76.4722 29.2049 76.4722 28.8607C76.4722 28.495 76.7303 28.3014 77.0243 28.3014H77.4187V29.3985H77.4151Z" fill="#CC963F"/>
  <path d="M83.1983 27.6597C83.3488 27.6597 83.4707 27.5378 83.4707 27.3872C83.4707 27.2402 83.3452 27.1147 83.1983 27.1147C83.0441 27.1147 82.9258 27.2402 82.9258 27.3872C82.9258 27.5378 83.0441 27.6597 83.1983 27.6597Z" fill="#CC963F"/>
  <path d="M87.9413 28.1688H86.7295L86.6184 28.409V28.0075L86.0842 28.1078V29.3985H84.9907H83.761H83.4455V28.0684L82.9113 28.1724V29.3985H81.6851H80.269H80.036V28.8356C80.036 28.2082 79.6918 27.9358 79.0608 27.9358H78.5696V28.2943H78.9281C79.3153 28.2943 79.5018 28.4269 79.5018 28.7675V29.3985H78.3438V29.7606H80.269H81.6851H82.9077C83.087 29.7606 83.2375 29.6925 83.3307 29.5742L83.4598 29.7606H83.761H84.9907H88.9703V29.0651C88.9667 28.4233 88.4791 28.1688 87.9413 28.1688ZM88.4325 29.3985H86.6148V28.5273H87.8911C88.221 28.5273 88.4289 28.7137 88.4289 28.997V29.3985H88.4325Z" fill="#CC963F"/>
  <path d="M48.5792 32.8475C48.7155 32.8475 48.8266 32.7364 48.8266 32.6037C48.8266 32.4675 48.7155 32.3528 48.5792 32.3528C48.4466 32.3528 48.3354 32.4639 48.3354 32.6037C48.3354 32.7328 48.4466 32.8475 48.5792 32.8475Z" fill="#CC963F"/>
  <path d="M49.2462 32.8475C49.3825 32.8475 49.49 32.7364 49.49 32.6037C49.49 32.4675 49.3825 32.3528 49.2462 32.3528C49.11 32.3528 49.0024 32.4639 49.0024 32.6037C49.0024 32.7328 49.11 32.8475 49.2462 32.8475Z" fill="#CC963F"/>
  <path d="M51.8099 33.2311H51.1251L50.8956 34.0772C50.7988 34.4644 50.6913 34.6759 50.3328 34.6759H50.2467H49.9348V33.1164L49.4006 33.2239V33.3494H48.7876C48.2856 33.3494 47.9092 33.6828 47.9092 34.1919C47.9092 34.701 48.2856 35.0345 48.7876 35.0345H49.311L49.4831 34.7692C49.5799 34.9341 49.7591 35.0345 49.985 35.0345H50.2503H50.3686C50.9781 35.0345 51.2936 34.7297 51.437 34.1417L51.5697 33.586H51.8135C52.1003 33.586 52.3548 33.7832 52.3548 34.1382V34.6724H51.2147L51.4693 35.0345H52.8926V34.1704C52.889 33.5358 52.362 33.2311 51.8099 33.2311ZM48.9094 34.6795C48.6226 34.6795 48.4362 34.4859 48.4362 34.1991C48.4362 33.9123 48.6262 33.7187 48.9094 33.7187H49.4006V34.4608C49.4006 34.5397 49.4114 34.615 49.4365 34.6831H48.9094V34.6795Z" fill="#CC963F"/>
  <path d="M59.7545 34.6795H58.1483H57.5747C57.8436 34.4823 57.9942 34.2099 57.9942 33.9517C57.9942 33.5609 57.6572 33.2168 57.0011 33.2168C56.6461 33.2168 56.2948 33.3171 56.0116 33.4175L55.8323 33.6757L55.861 33.6972L55.8287 33.7008L55.9076 33.88C56.1335 34.2601 56.2697 34.5074 56.4454 34.6759H55.3053H54.2369H54.219H53.9214V32.0372L53.3872 32.1412V34.5003C53.3872 34.8229 53.5987 35.038 53.925 35.038H54.2154H54.2333H55.3017H56.3414C56.5852 35.038 56.7573 34.9628 56.9365 34.9054C57.0692 34.9592 57.209 35.038 57.4385 35.038H58.1412H60.2815V32.0372L59.7473 32.1376V34.6795H59.7545ZM57.0262 34.6114C56.7896 34.4608 56.5709 34.131 56.4059 33.8513C56.3916 33.8262 56.3342 33.7545 56.284 33.6936C56.4741 33.6326 56.7035 33.5789 56.8864 33.5789C57.2234 33.5789 57.4564 33.7689 57.4564 34.0521C57.46 34.2672 57.3237 34.5003 57.0262 34.6114Z" fill="#CC963F"/>
  <path d="M60.916 35.0416H61.4502V32.0372L60.916 32.1448V35.0416Z" fill="#CC963F"/>
  <path d="M64.885 33.4749C65.0212 33.4749 65.1288 33.3638 65.1288 33.2312C65.1288 33.0949 65.0212 32.9838 64.885 32.9838C64.7488 32.9838 64.6412 33.0949 64.6412 33.2312C64.6376 33.3602 64.7488 33.4749 64.885 33.4749Z" fill="#CC963F"/>
  <path d="M64.218 33.4749C64.3542 33.4749 64.4654 33.3638 64.4654 33.2312C64.4654 33.0949 64.3542 32.9838 64.218 32.9838C64.0853 32.9838 63.9742 33.0949 63.9742 33.2312C63.9706 33.3602 64.0853 33.4749 64.218 33.4749Z" fill="#CC963F"/>
  <path d="M65.6233 34.6796H63.8235C63.4507 34.6796 63.336 34.5433 63.336 34.1561V33.7833L62.8018 33.8873V34.0486C62.8018 34.7549 63.1388 35.0417 63.759 35.0417H66.1575V33.3495L65.6233 33.4534V34.6796Z" fill="#CC963F"/>
  <path d="M66.7817 35.0416H67.3159V32.0372L66.7817 32.1448V35.0416Z" fill="#CC963F"/>
  <path d="M67.9466 35.1851C67.9466 35.5257 67.7888 35.6763 67.4697 35.7265L67.5916 36.0599C68.219 35.981 68.4843 35.6368 68.4843 35.0668V33.3495L67.9501 33.4534V35.1851H67.9466Z" fill="#CC963F"/>
  <path d="M75.9275 32.9372C76.0637 32.9372 76.1748 32.826 76.1748 32.6934C76.1748 32.5571 76.0637 32.446 75.9275 32.446C75.7948 32.446 75.6837 32.5571 75.6837 32.6934C75.6801 32.826 75.7948 32.9372 75.9275 32.9372Z" fill="#CC963F"/>
  <path d="M76.2462 32.3707C76.3825 32.3707 76.49 32.2595 76.49 32.1269C76.49 31.9907 76.3825 31.8795 76.2462 31.8795C76.11 31.8795 76.0024 31.9907 76.0024 32.1269C76.0024 32.2595 76.11 32.3707 76.2462 32.3707Z" fill="#CC963F"/>
  <path d="M76.3506 32.6934C76.3506 32.826 76.4581 32.9372 76.5944 32.9372C76.7306 32.9372 76.8382 32.826 76.8382 32.6934C76.8382 32.5571 76.7306 32.446 76.5944 32.446C76.4581 32.446 76.3506 32.5571 76.3506 32.6934Z" fill="#CC963F"/>
  <path d="M78.8244 32.9372C78.9606 32.9372 79.0753 32.826 79.0753 32.6934C79.0753 32.5571 78.9642 32.446 78.8244 32.446C78.6917 32.446 78.5806 32.5571 78.5806 32.6934C78.5806 32.826 78.6917 32.9372 78.8244 32.9372Z" fill="#CC963F"/>
  <path d="M79.4909 32.9372C79.6271 32.9372 79.7347 32.826 79.7347 32.6934C79.7347 32.5571 79.6271 32.446 79.4909 32.446C79.3546 32.446 79.2471 32.5571 79.2471 32.6934C79.2471 32.826 79.3546 32.9372 79.4909 32.9372Z" fill="#CC963F"/>
  <path d="M84.5571 34.6795H83.8867C83.901 34.6257 83.9118 34.5684 83.9118 34.5039V33.4713L83.3776 33.5753V34.6795H82.6318V33.4785L82.0941 33.5789V34.6795H80.9074H80.8643H80.0541H80.0469H79.7386V33.3494L79.2044 33.4534V34.6795H78.5877H78.5842H77.1465H77.1429H76.8346V33.3494L76.3004 33.4534V34.6795H75.7052H75.6837H74.0919H74.0847H73.8553V34.1776C73.8553 33.5394 73.3247 33.2347 72.7761 33.2347H72.0914L71.8619 34.0808C71.7651 34.468 71.6576 34.6795 71.299 34.6795H71.2094C71.2022 34.6795 71.2022 34.6903 71.1987 34.6903C71.1951 34.6867 71.1951 34.6795 71.1879 34.6795H69.8793H69.8721H69.5674V32.0408L69.0332 32.1448V34.5039C69.0332 34.8265 69.2447 35.0416 69.571 35.0416H69.8721H69.8793H71.1879C71.1951 35.0416 71.1915 35.0309 71.1987 35.0309C71.2058 35.0345 71.2022 35.0416 71.2094 35.0416H71.3313C71.9444 35.0416 72.2563 34.7369 72.3997 34.1489L72.5323 33.5932H72.7797C73.0665 33.5932 73.3211 33.7904 73.3211 34.1453V34.6795H72.181L72.4355 35.0416H74.0812H74.0883H75.6801H75.7017H76.2932C76.4725 35.0416 76.6231 34.9735 76.7163 34.8552L76.8453 35.0416H77.1429H77.1465H78.5842H78.5877H79.2008C79.3801 35.0416 79.5306 34.9735 79.6239 34.8552L79.7529 35.0416H80.0505H80.0577H80.8679H80.9109H83.3811C83.5676 35.0416 83.7146 34.9699 83.8114 34.848L83.944 35.0416H85.102V33.3494L84.5678 33.4534V34.6795H84.5571Z" fill="#CC963F"/>
  <path d="M87.2604 34.6795H86.529V32.532L85.9948 32.6395V34.6795H85.4785V35.0416H87.7946V32.0372L87.2604 32.1376V34.6795Z" fill="#CC963F"/>
  <path d="M88.418 32.1448V35.0416H88.9522V32.0372L88.418 32.1448Z" fill="#CC963F"/>
  <path d="M40 20.0018C40 31.0478 31.0442 40.0036 19.9982 40.0036C8.95223 40.0036 0 31.0478 0 20.0018C0 8.95581 8.95581 0 20.0018 0C31.0478 0 40 8.95581 40 20.0018ZM20.0018 1.49861C9.78399 1.49861 1.5022 9.78041 1.5022 19.9982C1.5022 30.216 9.78399 38.4978 20.0018 38.4978C30.2196 38.4978 38.5014 30.216 38.5014 19.9982C38.5014 9.78041 30.216 1.49861 20.0018 1.49861Z" fill="#CC963F"/>
  <path d="M20.0017 6.05894C12.3043 6.05894 6.0625 12.3008 6.0625 19.9982C6.0625 27.6956 12.3043 33.9374 20.0017 33.9374C27.6991 33.9374 33.941 27.6956 33.941 19.9982C33.941 12.3008 27.6991 6.05894 20.0017 6.05894ZM20.0017 33.3387C12.6342 33.3387 6.66123 27.3657 6.66123 19.9982C6.66123 12.6306 12.6342 6.65767 20.0017 6.65767C27.3693 6.65767 33.3422 12.6306 33.3422 19.9982C33.3386 27.3693 27.3693 33.3387 20.0017 33.3387Z" fill="#CC963F"/>
  <path d="M37.1569 17.4384L35.038 17.8364L34.9556 17.3524L37.0708 16.9544L37.1569 17.4384Z" fill="#CC963F"/>
  <path d="M37.0456 23.2644L34.916 22.9023L35.0056 22.4219L37.1281 22.7804L37.0456 23.2644Z" fill="#CC963F"/>
  <path d="M35.0776 22.006L35.1278 21.522L35.9058 21.6045L35.9524 21.1814C35.9919 20.8265 36.2428 20.5504 36.6802 20.597C37.0889 20.6401 37.3722 20.934 37.3148 21.4611C37.2539 22.0347 36.8702 22.196 36.4364 22.1494L35.0776 22.006ZM36.5762 21.6726C36.8021 21.6977 36.967 21.6081 36.985 21.418C37.0029 21.2495 36.8953 21.1169 36.6515 21.0882C36.4257 21.0631 36.2787 21.1671 36.2608 21.332L36.2285 21.6332L36.5762 21.6726Z" fill="#CC963F"/>
  <path d="M36.5583 18.5498L36.5798 18.9084L37.3219 18.8653L37.3506 19.3529L36.6085 19.3959L36.63 19.7437L37.347 19.7007L37.3757 20.1847L36.3324 20.2456L36.2356 18.5678L35.1278 18.6323L35.0991 18.1447L37.2538 18.0192L37.2825 18.5068L36.5583 18.5498Z" fill="#CC963F"/>
  <path d="M4.91889 18.0909L2.86816 17.779L2.93987 17.2986L4.26997 17.4993L4.32734 17.1265L4.68227 17.1803L4.6751 17.234C4.65718 17.3452 4.67869 17.4384 4.74322 17.5173C4.80417 17.5961 4.88304 17.6535 4.98343 17.6858L4.91889 18.0909Z" fill="#CC963F"/>
  <path d="M3.56009 18.6645C3.61746 18.5713 3.69992 18.496 3.80389 18.4386C3.90786 18.3813 4.02975 18.3598 4.17316 18.3669C4.34167 18.3777 4.4779 18.4207 4.58187 18.4996C4.68584 18.5785 4.76113 18.6753 4.80774 18.79C4.85435 18.9047 4.87227 19.0194 4.8651 19.1413C4.85076 19.4174 4.74679 19.611 4.55319 19.7257C4.35959 19.8369 4.0907 19.8835 3.74294 19.8655C3.34857 19.844 3.07609 19.758 2.92551 19.611C2.77135 19.4604 2.70323 19.2668 2.71399 19.0266C2.72474 18.8438 2.77852 18.6968 2.88249 18.5785C2.98646 18.4601 3.1227 18.3884 3.29479 18.3562L3.33423 18.8187C3.17289 18.8438 3.09043 18.9191 3.08326 19.0445C3.07609 19.1593 3.1227 19.2417 3.2195 19.2919C3.3163 19.3457 3.44537 19.3744 3.60312 19.3851V19.3744C3.54934 19.3206 3.51349 19.2561 3.48839 19.1879C3.46329 19.1162 3.45612 19.0409 3.45971 18.9621C3.47046 18.8581 3.50273 18.7577 3.56009 18.6645ZM3.91503 18.9011C3.85408 18.9513 3.81823 19.0159 3.81464 19.0983C3.81106 19.1772 3.83615 19.2453 3.8971 19.3063C3.95447 19.3672 4.03692 19.3995 4.1409 19.4066C4.24845 19.4138 4.33091 19.3887 4.39544 19.3349C4.45998 19.2812 4.49224 19.2166 4.49583 19.1378C4.49941 19.0589 4.47432 18.9908 4.42054 18.9334C4.36676 18.876 4.28072 18.8438 4.17316 18.8402C4.06202 18.8294 3.97598 18.8509 3.91503 18.9011Z" fill="#CC963F"/>
  <path d="M4.78626 20.0914L4.86872 21.5972L4.42057 21.6223L2.75346 20.8658L2.72119 20.2994L4.39189 21.0845L4.33811 20.1201L4.78626 20.0914Z" fill="#CC963F"/>
  <path d="M5.03357 22.6656L2.98284 22.9739L2.91113 22.4935L4.24124 22.2927L4.18388 21.9199L4.53881 21.8697L4.54598 21.9235C4.56391 22.0346 4.61051 22.1171 4.69297 22.1744C4.77543 22.2318 4.86865 22.2605 4.97262 22.2676L5.03357 22.6656Z" fill="#CC963F"/>
  <path d="M34.2496 10.5405C34.3607 10.4616 34.3894 10.3075 34.3069 10.1963C34.2281 10.0852 34.0739 10.0565 33.9592 10.1354C33.848 10.2142 33.8193 10.372 33.8982 10.4831C33.9807 10.5979 34.1348 10.6194 34.2496 10.5405Z" fill="#CC963F"/>
  <path d="M34.8482 12.9461L34.4251 12.0642L34.167 12.0928L34.4753 11.8992L34.2028 11.4583L33.3245 11.9853C33.2133 11.8024 33.1022 11.6232 32.9839 11.4475L33.8371 10.8452L33.5324 10.4114L32.6899 11.0101C32.5716 10.8452 32.4533 10.6803 32.3278 10.5189L32.5859 10.3038C32.9731 9.98116 33.0054 9.61906 32.6433 9.18525L32.4102 8.90202L32.1449 9.13864L32.2883 9.31073C32.4891 9.55452 32.4784 9.70869 32.3027 9.8521L31.9943 10.1066C31.8115 9.88436 31.6251 9.66925 31.4315 9.45772L31.1733 9.69793C31.6143 10.1748 32.023 10.6839 32.3995 11.2145H32.4031C32.507 11.3579 32.6289 11.4403 32.7759 11.4547L32.7078 11.6662C33.2492 12.4908 33.7117 13.3656 34.0881 14.2906L34.5829 14.0396C35.0812 13.7994 35.0453 13.3369 34.8482 12.9461ZM34.4179 13.5448L34.1992 13.656C34.0164 13.2437 33.812 12.8421 33.5933 12.4514L34.0702 12.1538L34.5147 13.0716C34.6223 13.276 34.5793 13.4588 34.4179 13.5448Z" fill="#CC963F"/>
  <path d="M30.5636 7.10935L29.8896 8.00206C29.4629 8.56494 28.8319 8.44304 28.33 8.06301C27.8424 7.69732 27.5305 7.10935 27.9428 6.56082L28.1113 6.34571L28.5344 6.66479L28.3336 6.93009C28.1005 7.23842 28.2942 7.58977 28.5666 7.79412C28.7638 7.9447 29.0112 8.00923 29.2155 7.90526L28.9753 7.726C28.6276 7.46428 28.5344 7.04482 28.7889 6.70781C29.1008 6.29551 29.592 6.37439 29.9505 6.64328L30.5636 7.10935ZM29.7318 6.92651C29.5741 6.80819 29.3625 6.81895 29.2191 7.00897C29.0829 7.19181 29.1187 7.39975 29.2837 7.52523L29.4773 7.67223C29.4844 7.66506 29.4988 7.64713 29.5024 7.63996L29.929 7.07708L29.7318 6.92651ZM29.9469 6.24532C29.8501 6.17362 29.8286 6.03379 29.9039 5.93341C29.9792 5.83302 30.119 5.8151 30.2158 5.8868C30.3162 5.96209 30.3341 6.10191 30.2588 6.2023C30.1871 6.2991 30.0473 6.32061 29.9469 6.24532ZM30.4022 6.5895C30.3054 6.51421 30.2839 6.37797 30.3592 6.28117C30.4345 6.18079 30.5743 6.16286 30.6711 6.23456C30.7715 6.30985 30.7894 6.44968 30.7142 6.55006C30.6425 6.64328 30.5026 6.66479 30.4022 6.5895Z" fill="#CC963F"/>
  <path d="M32.0694 8.51488L31.2053 9.41118C30.7249 9.90952 30.3269 9.80196 29.9075 9.39684L29.7031 9.19965L29.9326 8.96303L30.0796 9.10285C30.2947 9.31079 30.4668 9.35381 30.6783 9.18172L30.4202 8.93435C30.1083 8.63319 30.0652 8.21014 30.3628 7.90181C30.7213 7.53254 31.1982 7.66877 31.5208 7.98069L32.0694 8.51488ZM30.9293 8.93793L31.4455 8.40374L31.2699 8.23523C31.13 8.099 30.9185 8.08107 30.7536 8.25316C30.5958 8.41808 30.6066 8.62602 30.7572 8.77301L30.9293 8.93793Z" fill="#CC963F"/>
  <path d="M12.7562 5.27369C12.8673 5.21633 12.9103 5.08368 12.853 4.97612C12.7956 4.86498 12.663 4.82196 12.5518 4.87932C12.4443 4.93669 12.4012 5.06934 12.4586 5.18048C12.5124 5.28804 12.6486 5.33106 12.7562 5.27369Z" fill="#CC963F"/>
  <path d="M12.2508 5.53541C12.3619 5.47804 12.405 5.34539 12.3476 5.23784C12.2902 5.1267 12.1576 5.08367 12.0464 5.14104C11.9389 5.1984 11.8959 5.33105 11.9532 5.44219C12.007 5.54975 12.1432 5.59277 12.2508 5.53541Z" fill="#CC963F"/>
  <path d="M19.6362 2.91461C19.6398 3.03651 19.7402 3.13331 19.8621 3.13331C19.9876 3.12973 20.0844 3.02934 20.0844 2.90744C20.0808 2.78196 19.9804 2.68516 19.8549 2.68516C19.733 2.68875 19.6362 2.78913 19.6362 2.91461Z" fill="#CC963F"/>
  <path d="M19.2922 3.14049C19.4177 3.1369 19.5145 3.03652 19.5145 2.91462C19.5109 2.78914 19.4105 2.69234 19.2886 2.69234C19.1667 2.69592 19.0699 2.79631 19.0699 2.91821C19.0663 3.04727 19.1703 3.14407 19.2922 3.14049Z" fill="#CC963F"/>
  <path d="M19.5574 2.65645C19.6829 2.65287 19.7797 2.55248 19.7797 2.43059C19.7761 2.3051 19.6757 2.2083 19.5502 2.2083C19.4283 2.21189 19.3315 2.31227 19.3315 2.43776C19.3351 2.55965 19.4355 2.66004 19.5574 2.65645Z" fill="#CC963F"/>
  <path d="M21.1452 3.17269C21.2707 3.17986 21.3747 3.08665 21.3818 2.96475C21.389 2.83927 21.2958 2.7353 21.1703 2.72813C21.0484 2.72096 20.9444 2.81417 20.9337 2.93965C20.9301 3.05797 21.0233 3.16552 21.1452 3.17269Z" fill="#CC963F"/>
  <path d="M20.5788 3.1369C20.7043 3.14407 20.8083 3.05085 20.8154 2.92896C20.8226 2.80348 20.7294 2.69951 20.6039 2.69234C20.482 2.68516 20.378 2.77838 20.3673 2.90386C20.3637 3.02217 20.4569 3.12973 20.5788 3.1369Z" fill="#CC963F"/>
  <path d="M14.2941 5.90826L13.7706 4.61759L13.3583 4.78609L13.7563 5.76844C13.2185 6.00147 12.6521 6.30622 12.3724 6.46396C12.1573 6.58586 12.0426 6.55001 11.9279 6.33848L11.7701 6.0445L11.3076 6.29546L11.4116 6.48906C11.6841 6.99099 12.0318 7.01967 12.4728 6.79739C13.0572 6.46038 13.6667 6.16281 14.2941 5.90826Z" fill="#CC963F"/>
  <path d="M22.8843 5.07653C23.0599 5.10879 23.2141 5.07294 23.3252 4.97614L23.4184 5.19125C23.716 5.25937 24.0064 5.33466 24.2968 5.4207L24.6482 4.07267L24.1355 3.94002L23.8738 4.94029C23.7304 4.90444 23.5834 4.86858 23.4364 4.83632C23.4615 4.78971 23.483 4.72876 23.4937 4.6714L23.6407 3.95436L23.1209 3.8468L22.9452 4.72876C22.7695 4.69649 22.5939 4.66423 22.4146 4.63555L22.5401 3.76434L22.0166 3.68906L21.8912 4.56384C21.6976 4.53875 21.4538 4.51724 21.2602 4.49931L21.3462 3.46319L20.8192 3.42017L20.7331 4.46704C20.518 4.45629 20.2993 4.44912 20.0806 4.44912L20.0842 3.40941L19.5572 3.40583L19.5464 4.4527C19.3528 4.45987 19.1592 4.46704 18.9656 4.48138L18.9226 4.13003C18.8545 3.61377 18.3992 3.42375 17.9474 3.48111L17.3308 3.57791L17.2806 4.26986C17.2412 4.54592 17.1695 4.71442 16.9472 4.75386L16.6926 4.80764L16.2265 2.94692L15.7139 3.06882L16.1441 4.76461C16.2158 5.06935 16.4632 5.21635 16.7679 5.15181C16.8575 5.13389 16.9436 5.11596 17.0332 5.09804C17.3415 5.03709 17.5567 4.91161 17.675 4.69291L17.9223 4.94746C18.4673 4.87217 19.023 4.82915 19.5859 4.81122C19.7615 4.80764 19.8763 4.73593 19.9695 4.62479L20.1237 4.80405V4.80764C20.3316 4.80764 20.536 4.81481 20.7403 4.82556C20.916 4.83273 21.0594 4.77537 21.1598 4.6714L21.2745 4.86141C21.8159 4.90085 22.3536 4.97614 22.8843 5.07653ZM17.7001 4.62121C17.7431 4.52082 17.7897 4.39534 17.8076 4.26627L17.8542 3.85397L17.9905 3.83605C18.1805 3.81095 18.3597 3.92568 18.392 4.16947L18.4386 4.53158C18.1912 4.55309 17.9439 4.58535 17.7001 4.62121Z" fill="#CC963F"/>
  <path d="M27.1794 4.0762L26.6954 3.86468L25.9604 5.63218C25.8063 5.56764 25.6521 5.5067 25.4944 5.44933L25.9963 3.96865L25.498 3.78939L24.996 5.27007C24.8741 5.22705 24.7486 5.18761 24.6232 5.14818L24.5264 5.48877C25.1359 5.67879 25.731 5.90824 26.3082 6.16996L27.1794 4.0762Z" fill="#CC963F"/>
  <path d="M14.2869 3.49188L15.0936 5.61431L14.5952 5.79357L13.7886 3.67472L14.2869 3.49188Z" fill="#CC963F"/>
  <path d="M15.9362 5.29163C16.0688 5.73978 15.929 6.09113 15.4414 6.31699L15.2299 6.04093C15.4378 5.92621 15.5346 5.80072 15.4665 5.56052L15.0542 4.16229L15.5597 4.01171L15.9362 5.29163Z" fill="#CC963F"/>
  <path d="M28.097 4.52081L27.1075 6.56079L26.6343 6.32058L27.6202 4.28419L28.097 4.52081Z" fill="#CC963F"/>
  <path d="M4.39909 12.8384C4.28437 12.7882 4.1553 12.8348 4.10152 12.9495C4.05133 13.0607 4.10152 13.1933 4.21266 13.2435C4.3238 13.2937 4.45645 13.2435 4.50665 13.1324C4.55684 13.0212 4.51023 12.8886 4.39909 12.8384Z" fill="#CC963F"/>
  <path d="M4.63591 12.3185C4.52118 12.2648 4.38853 12.315 4.33834 12.4297C4.28814 12.5408 4.33834 12.6735 4.44948 12.7237C4.56062 12.7739 4.69327 12.7237 4.74346 12.6161C4.79724 12.5014 4.74705 12.3687 4.63591 12.3185Z" fill="#CC963F"/>
  <path d="M7.71173 11.0567C7.66154 11.028 7.4536 10.9061 7.08791 10.6695C6.66127 10.3934 6.20595 10.6229 5.96215 11.0101L5.661 11.4869L6.14141 12.0283C6.33143 12.2326 6.4354 12.3975 6.33143 12.5983L6.32067 12.6162L6.29199 12.67L6.20236 12.8421L5.13398 12.29L4.89018 12.7596L5.07303 12.8529L4.88301 13.2185C4.70375 13.5771 4.79697 13.9786 5.15907 14.1615C5.52118 14.3443 5.91913 14.1865 6.09839 13.8316L6.1199 13.7886C6.145 13.7312 6.1701 13.6739 6.19878 13.6201L6.25614 13.4982L6.145 13.2831C6.28482 13.258 6.40313 13.1684 6.48918 13.0321C6.52503 12.9604 6.64334 12.7381 6.64334 12.7381C6.79034 12.4621 6.81902 12.2577 6.73656 12.0247L7.09508 11.9637L7.09866 11.9601C7.29585 11.6518 7.5002 11.3507 7.71173 11.0567ZM5.85101 13.5699C5.77214 13.742 5.60364 13.8029 5.43513 13.7205C5.25587 13.638 5.19851 13.4731 5.27738 13.301L5.40645 13.0285L5.80441 13.2365C5.86536 13.2687 5.92272 13.2867 5.98008 13.301L5.85101 13.5699ZM6.73656 11.9171L6.71146 11.9566C6.66485 11.8562 6.5573 11.7164 6.48559 11.6375C6.41389 11.5586 6.19519 11.3184 6.19519 11.3184L6.27048 11.2001C6.37445 11.0387 6.57522 10.9706 6.78316 11.1033L7.12376 11.3184C6.98752 11.512 6.85845 11.7128 6.73656 11.9171Z" fill="#CC963F"/>
  <path d="M8.73721 9.79828C8.88779 9.63336 8.94873 9.47919 9.01685 9.32862C9.13875 9.28918 9.28216 9.23899 9.42198 9.09199C9.7554 8.74064 10.1318 8.43232 10.5083 8.13116L9.09931 6.35649L8.6906 6.6935L9.89523 8.21362C9.67653 8.40005 9.465 8.59365 9.25706 8.79442C9.28933 8.54346 9.21045 8.30684 9.07422 8.17777C8.8591 7.96983 8.47907 7.97341 8.10621 8.3642C7.91261 8.56856 7.77279 8.8231 7.66882 9.03822C7.66882 9.03822 7.72618 9.29276 7.72977 9.31069C7.73694 9.34296 7.80147 9.37164 7.85167 9.38239C7.90186 9.39674 8.38586 9.48637 8.5687 9.50429C8.33925 9.75525 8.11697 10.0134 7.90544 10.2751L7.90186 10.2787L6.39249 9.0669L6.06982 9.48278L7.42144 10.5727C7.66524 10.7699 7.96639 10.7376 8.15999 10.4902C8.33925 10.25 8.53285 10.0206 8.73721 9.79828ZM8.07395 8.99519C8.13131 8.88405 8.2066 8.76216 8.28547 8.6797C8.44322 8.51119 8.64041 8.47893 8.7874 8.61875C8.88779 8.71555 8.93798 8.87688 8.87345 9.05614C8.6655 9.08482 8.14207 9.00595 8.07395 8.99519Z" fill="#CC963F"/>
  <path d="M9.88074 5.76488L11.1929 7.61126L10.7663 7.92317L9.4541 6.07679L9.88074 5.76488Z" fill="#CC963F"/>
  <path d="M6.25959 26.914C6.19505 27.0754 6.05882 27.2009 5.85805 27.2941C5.65369 27.3873 5.47085 27.4052 5.30951 27.3478C5.14459 27.2905 5.01911 27.165 4.93307 26.9714L4.74664 26.5591L4.11564 26.8459L3.91846 26.4085L5.84729 25.5373L6.23091 26.3834C6.31337 26.5734 6.32771 26.7527 6.25959 26.914ZM5.288 26.7133C5.32385 26.7957 5.37405 26.8459 5.43858 26.871C5.50311 26.8925 5.57482 26.8889 5.65728 26.8495C5.73974 26.8137 5.78993 26.7635 5.81502 26.6989C5.84012 26.6344 5.83295 26.5627 5.7971 26.4802L5.64652 26.1468L5.13384 26.3798L5.288 26.7133Z" fill="#CC963F"/>
  <path d="M5.89761 29.4666C5.7542 29.4702 5.62514 29.4344 5.50682 29.3591C5.38851 29.2838 5.28813 29.1762 5.20208 29.0364C5.07302 28.8213 5.02641 28.6133 5.06585 28.4126C5.10528 28.2082 5.24152 28.0361 5.47097 27.8963L6.61106 27.1972L6.86203 27.6059L5.76854 28.2763C5.52117 28.4269 5.46022 28.6026 5.5857 28.8034C5.71118 29.0077 5.89403 29.0328 6.1414 28.8822L7.23489 28.2118L7.48585 28.6205L6.34576 29.3196C6.18801 29.4164 6.04102 29.463 5.89761 29.4666Z" fill="#CC963F"/>
  <path d="M8.45731 30.1084C8.44297 30.2554 8.36768 30.3809 8.23503 30.4885C8.15974 30.5494 8.08086 30.5889 7.9984 30.5996C7.91953 30.6104 7.84066 30.6032 7.76537 30.5709L7.75461 30.5781C7.77612 30.6749 7.77254 30.7681 7.74027 30.8613C7.708 30.9545 7.64705 31.037 7.55384 31.1123C7.39968 31.2378 7.24551 31.2951 7.09135 31.2808C6.93719 31.2665 6.80095 31.1876 6.68264 31.037L6.01221 30.2017L7.6614 28.8751L8.31032 29.6782C8.42146 29.8216 8.47165 29.965 8.45731 30.1084ZM6.94436 30.6821C6.99096 30.7394 7.04474 30.7717 7.10211 30.7789C7.15947 30.7825 7.21683 30.7645 7.2742 30.7179C7.33156 30.6713 7.36741 30.6175 7.37458 30.5638C7.38175 30.5064 7.36382 30.449 7.31363 30.3917L7.01248 30.0188L6.64679 30.3128L6.94436 30.6821ZM7.57894 30.1299C7.62196 30.1837 7.67215 30.216 7.72593 30.2196C7.77971 30.2232 7.83349 30.2052 7.88726 30.1622C7.94104 30.1192 7.97331 30.069 7.97689 30.0152C7.98406 29.9614 7.96614 29.9077 7.92312 29.8539L7.64347 29.5061L7.29929 29.7822L7.57894 30.1299Z" fill="#CC963F"/>
  <path d="M7.41406 31.8795L8.89475 30.3665L9.23534 30.7L8.08091 31.8795L8.76568 32.5499L8.43943 32.8833L7.41406 31.8795Z" fill="#CC963F"/>
  <path d="M8.7085 33.0985L10.0673 31.478L10.433 31.7863L9.07419 33.4068L8.7085 33.0985Z" fill="#CC963F"/>
  <path d="M11.0281 34.3963C10.8954 34.4537 10.7556 34.4752 10.6086 34.4573C10.4616 34.4429 10.3218 34.3892 10.1891 34.296C10.035 34.1884 9.92381 34.0593 9.85211 33.9052C9.78041 33.751 9.7589 33.5789 9.78399 33.3961C9.80909 33.2096 9.88796 33.0232 10.017 32.8368C10.1461 32.6468 10.2931 32.5105 10.458 32.4209C10.6229 32.3313 10.7878 32.2918 10.9599 32.3062C11.132 32.3169 11.2934 32.3779 11.4439 32.4818C11.5766 32.5751 11.677 32.6826 11.7415 32.8153C11.806 32.9443 11.8383 33.077 11.8383 33.2168C11.8383 33.353 11.8096 33.4821 11.7523 33.604L11.3185 33.3889C11.3615 33.2885 11.3758 33.1917 11.3543 33.0913C11.3328 32.9909 11.279 32.9121 11.1894 32.8511C11.1213 32.8045 11.0424 32.7794 10.9528 32.7758C10.8667 32.7722 10.7735 32.8009 10.6803 32.8547C10.5871 32.9121 10.4974 32.9981 10.415 33.12C10.3325 33.2419 10.2787 33.353 10.2608 33.4606C10.2429 33.5682 10.2501 33.6614 10.2823 33.7438C10.3146 33.8263 10.3684 33.8908 10.4365 33.9374C10.5297 34.002 10.6265 34.0235 10.7269 34.002C10.8273 33.9805 10.9241 33.9231 11.0137 33.8299L11.383 34.1454C11.279 34.2565 11.1607 34.339 11.0281 34.3963Z" fill="#CC963F"/>
  <path d="M11.9136 35.2926L12.878 33.4104L13.3046 33.6291L12.3402 35.5113L11.9136 35.2926Z" fill="#CC963F"/>
  <path d="M14.3908 36.3861L13.8925 36.1889L13.7419 34.6473L13.7311 34.6437L13.222 35.9236L12.8169 35.7623L13.6021 33.7976L14.1111 33.9984L14.2617 35.5113L14.2725 35.5149L14.7708 34.2637L15.176 34.425L14.3908 36.3861Z" fill="#CC963F"/>
  <path d="M17.1802 34.9484L16.0293 36.8378L15.4664 36.6944L15.3589 34.4859L15.8572 34.6114L15.8895 36.2104L15.9003 36.214L16.689 34.8229L17.1802 34.9484Z" fill="#CC963F"/>
  <path d="M17.7541 35.8483L18.6432 35.9595L18.5894 36.3718L17.7003 36.257L17.6465 36.6873L18.5822 36.8056L18.5249 37.2466L17.1123 37.0673L17.3776 34.97L18.7902 35.1492L18.7364 35.5759L17.8007 35.4575L17.7541 35.8483Z" fill="#CC963F"/>
  <path d="M19.9805 35.6153C19.9267 35.5651 19.8514 35.54 19.7582 35.5364C19.6757 35.5364 19.6076 35.5543 19.5574 35.5902C19.5072 35.6296 19.4821 35.6762 19.4821 35.7372C19.4821 35.7874 19.5 35.8268 19.5359 35.8555C19.5717 35.8842 19.6291 35.9093 19.7044 35.9308L19.9948 36.0168C20.1239 36.0562 20.2278 36.0957 20.3067 36.1387C20.3856 36.1781 20.4537 36.2463 20.5075 36.3359C20.5613 36.4255 20.5864 36.5474 20.5864 36.7016C20.5828 36.9203 20.5039 37.0852 20.3533 37.1892C20.2027 37.2967 20.0091 37.3469 19.7797 37.3433C19.5466 37.3397 19.353 37.2752 19.1989 37.1497C19.0447 37.0243 18.9623 36.8486 18.9443 36.6227L19.4176 36.5725C19.4248 36.6908 19.4642 36.7769 19.5323 36.8342C19.6004 36.8916 19.6865 36.9239 19.7904 36.9239C19.8801 36.9239 19.9518 36.9059 20.0091 36.8701C20.0665 36.8342 20.0952 36.7805 20.0952 36.7088C20.0952 36.6442 20.0773 36.594 20.0342 36.5653C19.9948 36.5331 19.9231 36.5044 19.8191 36.4721L19.5574 36.3861C19.4391 36.3502 19.3459 36.3108 19.2706 36.2714C19.1953 36.2319 19.1344 36.171 19.0842 36.0885C19.034 36.0061 19.0089 35.8985 19.0125 35.7623C19.016 35.5543 19.0877 35.3966 19.2312 35.289C19.3746 35.1815 19.5574 35.1277 19.7833 35.1313C19.9912 35.1349 20.1633 35.1958 20.2995 35.3105C20.4358 35.4253 20.5147 35.5902 20.5433 35.7981L20.0773 35.8268C20.0701 35.7372 20.0342 35.6655 19.9805 35.6153Z" fill="#CC963F"/>
  <path d="M22.3358 35.497L21.755 35.5507L21.9127 37.1927L21.4359 37.2394L21.2781 35.5973L20.6973 35.6511L20.6543 35.1886L22.2927 35.0309L22.3358 35.497Z" fill="#CC963F"/>
  <path d="M24.437 34.5612L24.9174 36.6227L24.4836 36.7231L24.1466 35.2782L24.1358 35.2818L24.1071 36.8091L23.7809 36.8844L23.0782 35.5256L23.0674 35.5292L23.4044 36.974L22.9814 37.0744L22.501 35.0129L23.1857 34.8552L23.7558 36.0347L23.7666 36.0311L23.7594 34.7225L24.437 34.5612Z" fill="#CC963F"/>
  <path d="M25.4907 35.0452L26.3296 34.7261L26.4766 35.1133L25.6377 35.4324L25.7918 35.8375L26.6738 35.5005L26.8315 35.9164L25.5014 36.4219L24.7485 34.4429L26.0786 33.9374L26.2328 34.3389L25.3508 34.6759L25.4907 35.0452Z" fill="#CC963F"/>
  <path d="M28.8503 34.8946L28.377 35.1456L27.1043 34.26L27.0971 34.2636L27.7424 35.4826L27.3588 35.6869L26.3657 33.819L26.8497 33.5645L28.101 34.4285L28.1081 34.4178L27.4771 33.2275L27.8607 33.0231L28.8503 34.8946Z" fill="#CC963F"/>
  <path d="M29.6641 32.3384L29.1873 32.6754L30.1374 34.027L29.7466 34.3031L28.7965 32.9514L28.3197 33.2884L28.0508 32.9084L29.3988 31.9583L29.6641 32.3384Z" fill="#CC963F"/>
  <path d="M30.6499 31.4242L30.969 31.7576L31.6179 31.1374L31.9047 31.4385L31.2558 32.0588L31.8187 32.6467L31.4745 32.9766L30.0117 31.4493L31.0407 30.4633L31.3382 30.7753L30.6499 31.4242Z" fill="#CC963F"/>
  <path d="M33.586 30.2159C33.6362 30.3486 33.6433 30.4848 33.6111 30.6211C33.5788 30.7573 33.5107 30.8899 33.4067 31.0154C33.249 31.209 33.0661 31.3202 32.8618 31.3489C32.6574 31.3775 32.4495 31.3058 32.2415 31.1337L31.209 30.2841L31.5137 29.9148L32.5032 30.7286C32.7255 30.9115 32.912 30.9115 33.0625 30.7286C33.2131 30.5458 33.1773 30.3593 32.955 30.1765L31.9655 29.3627L32.2702 28.9934L33.3027 29.8431C33.4426 29.9578 33.5358 30.0833 33.586 30.2159Z" fill="#CC963F"/>
  <path d="M35.142 28.4305L34.8588 28.8859L33.3136 28.7604L33.31 28.7675L34.4788 29.4989L34.2493 29.8682L32.4531 28.7496L32.7435 28.2871L34.2565 28.4054L34.2601 28.3983L33.1164 27.6848L33.3458 27.3155L35.142 28.4305Z" fill="#CC963F"/>
  <path d="M34.3606 25.756C34.5901 25.6736 34.8661 25.7058 35.1888 25.8528C35.5115 25.9998 35.7194 26.1862 35.809 26.4121C35.8987 26.638 35.8843 26.8818 35.766 27.1471L35.4254 27.9035L33.4966 27.0323L33.8372 26.2759C33.9555 26.0106 34.1312 25.8385 34.3606 25.756ZM35.343 27.0395C35.4147 26.8782 35.429 26.7384 35.3788 26.62C35.3286 26.5017 35.1995 26.3942 34.988 26.2974C34.7765 26.2006 34.6116 26.1755 34.4897 26.2185C34.3678 26.2615 34.271 26.3619 34.1993 26.5232L34.0846 26.7742L35.2282 27.2905L35.343 27.0395Z" fill="#CC963F"/>
  <path fill-rule="evenodd" clip-rule="evenodd" d="M31.8364 20.1418V20.1167C27.4948 19.5108 23.5367 21.013 20.0017 24.1931C16.4631 21.013 12.5087 19.5108 8.16699 20.1167V20.1418C12.6951 20.339 16.4918 22.6801 19.5285 25.5303C20.1236 26.0896 21.0593 27.0289 21.5075 27.5775L21.2745 27.7747C21.0701 27.9467 21.045 28.2515 21.2171 28.4558C21.3892 28.6602 21.6939 28.6853 21.8983 28.5132L22.1277 28.3196C22.2783 28.5025 22.4146 28.671 22.4719 28.7498C22.4719 28.7498 22.9523 29.4705 23.4435 30.1588C24.6445 31.8403 26.1898 31.1913 26.3332 30.3524C26.4837 29.4776 25.6878 29.1119 25.0389 29.2087C25.0353 29.2087 24.9098 29.2123 24.7664 29.1657C24.3039 28.9721 23.5654 28.1368 23.0635 27.5201L23.5152 27.1365C23.7196 26.9644 23.7447 26.6597 23.5726 26.4553C23.4005 26.251 23.0957 26.2259 22.8914 26.3979L22.4612 26.7636C21.9628 26.1685 21.4537 25.6092 20.9375 25.0893C23.5618 22.7446 27.3048 20.339 31.8364 20.1418Z" fill="#005C4D"/>
  <path d="M22.3752 11.4763L25.0748 11.7345C24.8095 10.7091 23.6371 10.3004 22.454 10.4474C22.8126 10.0889 23.7483 9.82715 24.5908 9.8881C23.7913 8.99538 22.791 8.95953 21.5757 9.50448L22.6405 8.42892C21.7728 8.07757 20.9124 8.56157 20.4965 9.16389C20.4965 8.89141 20.2491 7.73698 20.0018 7.53979C19.758 7.73698 19.507 8.89141 19.507 9.16389C19.0911 8.56157 18.2307 8.07757 17.3631 8.42892L18.4279 9.50448C17.2125 8.95953 16.2122 8.99538 15.4127 9.8881C16.2552 9.83073 17.191 10.0889 17.5495 10.4474C16.3664 10.3004 15.194 10.7091 14.9287 11.7345L17.6284 11.4763C16.6281 11.7775 15.7963 12.0571 15.5095 13.7816L18.2701 12.3655C17.4348 12.9463 17.0655 14.703 17.6786 15.4165C17.8865 14.954 18.9119 13.1901 19.3313 12.8351C19.6576 15.3878 19.4281 19.5359 19.2525 20.3855L19.0194 20.6975C18.4996 20.7082 17.5495 20.7476 17.0189 20.8409V20.848C17.3523 21.0309 17.6857 21.2316 18.0012 21.4396C19.0553 21.3177 20.4356 21.2926 21.063 21.5579C20.3101 21.5507 19.4389 21.7049 18.6681 21.8949H18.6645C19.0983 22.2032 19.4496 22.4721 19.6325 22.6191C19.7365 22.7052 19.8763 22.7446 20.0053 22.7446C20.1344 22.7446 20.2706 22.7052 20.3782 22.6191C20.7618 22.3072 21.8912 21.4539 22.9918 20.8516V20.8444C22.4612 20.7476 21.5111 20.7118 20.9913 20.701L20.7582 20.3891C20.5826 19.5394 20.3531 15.3914 20.6794 12.8387C21.0988 13.1936 22.1242 14.9576 22.3321 15.42C22.9452 14.7066 22.5759 12.9534 21.7406 12.3691L24.5012 13.7852C24.2072 12.0607 23.3754 11.7775 22.3752 11.4763Z" fill="#005C4D"/>
  <path fill-rule="evenodd" clip-rule="evenodd" d="M18.4958 27.5775C18.7396 27.2763 19.1304 26.8604 19.532 26.4517C19.367 26.2904 19.2093 26.1362 19.0731 26.0107C18.9153 25.8601 18.754 25.7132 18.5891 25.5697C18.2305 25.9498 17.8792 26.3477 17.5314 26.7636L17.1012 26.3979C16.8968 26.2258 16.5921 26.2509 16.42 26.4553C16.2479 26.6596 16.273 26.9644 16.4774 27.1365L16.9291 27.5201C16.4272 28.1367 15.6922 28.9721 15.2261 29.1657C15.0827 29.2123 14.9573 29.2087 14.9537 29.2087C14.3047 29.1119 13.5124 29.4776 13.6594 30.3524C13.8064 31.1877 15.348 31.8402 16.5491 30.1588C17.0402 29.4704 17.5207 28.7498 17.5207 28.7498C17.578 28.6709 17.7179 28.5024 17.8648 28.3196L18.0943 28.5132C18.2987 28.6853 18.6034 28.6602 18.7755 28.4558C18.9476 28.2515 18.9225 27.9467 18.7181 27.7746L18.4958 27.5775Z" fill="#005C4D"/>
</svg>